<?xml version="1.0" encoding="utf-8"?>
<!-- Generator: Adobe Illustrator 16.0.4, SVG Export Plug-In . SVG Version: 6.00 Build 0)  -->
<!DOCTYPE svg PUBLIC "-//W3C//DTD SVG 1.1//EN" "http://www.w3.org/Graphics/SVG/1.1/DTD/svg11.dtd">
<svg version="1.1" id="Layer_1" xmlns="http://www.w3.org/2000/svg" xmlns:xlink="http://www.w3.org/1999/xlink" x="0px" y="0px"
	 width="144px" height="144px" viewBox="0 0 144 144" enable-background="new 0 0 144 144" xml:space="preserve">
<g>
	<path fill="#231F20" d="M95.706,75.896l6.781,6.946c1.931-7.791,2.268-14.393,2.322-22.93L95.706,75.896z"/>
	<path fill="#231F20" d="M82.411,112.249c0.055-0.045,0.12-0.085,0.171-0.131l-4.746-4.825l-0.095,0.171L82.411,112.249z"/>
	<polygon fill="#231F20" points="109.002,52.548 107.157,55.783 111.35,55.783 	"/>
	<path fill="#231F20" d="M128.973,109.982l9.536-16.754l-8.641-11.919c-1.624,7.49-4.162,14.462-7.842,21.55L128.973,109.982z"/>
	<polygon fill="#231F20" points="91.007,84.16 92.002,85.165 91.122,83.949 	"/>
	<path fill="#231F20" d="M99.446,126.942c-0.498,0.382-1.021,0.779-1.548,1.176l13.104,13.432l1.246-2.191h-2.423L99.446,126.942z"
		/>
	<path fill="#231F20" d="M58.308,19.276c8.151,0,13.342,4.999,13.342,12.23c0,8.895-9.636,16.679-13.531,19.458
		c-1.85-1.485-13.338-11.488-13.338-19.828C44.781,24.092,50.154,19.276,58.308,19.276 M57.937,122.127
		c-12.232,0-23.539-8.153-23.539-22.238c0-10.008,6.302-16.679,14.459-22.053l23.534-12.417
		c7.043-3.891,25.944-14.082,25.944-34.654c0-9.636-5.373-29.281-40.027-29.281C21.8,1.484,17.35,23.909,17.35,31.878
		c0,15.196,11.677,24.646,16.125,28.351c-4.636,2.968-11.493,7.045-18.348,15.567c-8.155,10.193-9.636,19.83-9.636,26.319
		c0,25.757,21.498,40.399,50.59,40.399c21.278,0,33.363-8.042,41.818-14.396l-15.487-15.869
		C76.288,117.211,66.569,122.127,57.937,122.127"/>
	<path fill="#231F20" d="M92.002,85.165l-0.995-1.005l-13.171,23.138l4.746,4.826c-0.051,0.04-0.116,0.085-0.171,0.125
		l15.487,15.869c0.527-0.401,1.045-0.789,1.553-1.176l10.375,12.421h2.423l8.385-14.729L92.002,85.165z"/>
	<path fill="#231F20" d="M92.002,85.165l-0.995-1.005l-13.171,23.138l4.746,4.826c-0.051,0.04-0.116,0.085-0.171,0.125
		l15.487,15.869c0.527-0.401,1.045-0.789,1.553-1.176l10.375,12.421h2.423l8.385-14.729L92.002,85.165z"/>
	<path fill="#231F20" d="M129.863,81.31L111.35,55.783h-4.188l-2.353,4.129c-0.055,8.54-0.392,15.134-2.322,22.93l19.539,20.017
		C125.701,95.771,128.244,88.8,129.863,81.31"/>
	<path fill="#231F20" d="M129.863,81.31L111.35,55.783h-4.188l-2.353,4.129c-0.055,8.54-0.392,15.134-2.322,22.93l19.539,20.017
		C125.701,95.771,128.244,88.8,129.863,81.31"/>
</g>
</svg>
