<?xml version="1.0" encoding="utf-8"?>
<!-- Generator: Adobe Illustrator 16.0.4, SVG Export Plug-In . SVG Version: 6.00 Build 0)  -->
<!DOCTYPE svg PUBLIC "-//W3C//DTD SVG 1.1//EN" "http://www.w3.org/Graphics/SVG/1.1/DTD/svg11.dtd">
<svg version="1.1" id="Layer_1" xmlns="http://www.w3.org/2000/svg" xmlns:xlink="http://www.w3.org/1999/xlink" x="0px" y="0px"
	 width="144px" height="144px" viewBox="0 0 144 144" enable-background="new 0 0 144 144" xml:space="preserve">
<g>
	<path fill="#231F20" d="M56.694,48.094c0.151-0.807,0.285-1.636,0.358-2.538v-0.011c-0.744,0.395-1.5,0.791-2.28,1.177
		C55.417,47.158,56.053,47.642,56.694,48.094"/>
	<path fill="#231F20" d="M36.944,21.083c0.123,1.677,0.386,3.344,0.898,4.995c5.501,1.49,9.5,6.158,9.036,12.049
		c-0.039,0.49-0.118,0.96-0.207,1.424c1.623,1.592,3.397,3.164,5.42,4.69c1.855-1.089,3.433-2.221,4.874-3.398
		C55.804,30.897,48.271,23.395,36.944,21.083"/>
	<path fill="#231F20" d="M12,66.744c0.101-0.097,0.196-0.195,0.299-0.295C12.199,66.549,12.098,66.647,12,66.744"/>
	<path fill="#231F20" d="M13.553,65.3c0.171-0.146,0.35-0.292,0.518-0.432C13.9,65.008,13.724,65.152,13.553,65.3"/>
	<path fill="#231F20" d="M37.75,50.582c-2.037,1.347-4.287,2.622-6.643,3.892c2.312-1.082,4.735-2.152,7.365-3.215
		C38.22,51.04,37.996,50.802,37.75,50.582"/>
	<path fill="#231F20" d="M24.125,20.651c-2.832,0.344-5.633,0.952-8.297,1.783l-1.886,18.682l3.495,0.276
		c1.167-5.339,3.68-9.501,6.951-12.227c-0.333-1.604-0.562-3.191-0.562-4.73C23.826,23.125,23.949,21.876,24.125,20.651"/>
	<path fill="#231F20" d="M125.379,41.053c2.675-2.034,6.357-2.795,16.258-2.795v-3.712h-36.522v0.771
		C113.282,34.412,120.418,36.539,125.379,41.053"/>
	<path fill="#231F20" d="M93.149,86.747c12.452-14.477,21.378-30.116,26.781-38.704c-0.632-2.252-1.85-4.115-3.492-5.487
		c-0.271,5.82-16.154,28.613-25.766,40.682l-10.11,11.35c-8.87,10.726-24.345,18.776-36.31,18.776
		c-7.164,0-13.202-2.463-17.556-6.753C13.321,104.692,3.958,94.154,4.966,81.389c0.487-6.189,3.204-10.852,7.032-14.644
		c-6.693,6.485-9.634,13.826-9.634,22.89c0,19.19,14.651,34.043,33.428,34.043c14.648,0,31.771-9.287,47.044-25.584"/>
	<path fill="#231F20" d="M14.071,64.866c4.989-4.186,11.285-7.289,17.035-10.393C24.01,57.784,18.386,61.199,14.071,64.866"/>
	<path fill="#231F20" d="M12.3,66.45c0.406-0.392,0.825-0.776,1.251-1.149C13.12,65.676,12.706,66.064,12.3,66.45"/>
	<path fill="#231F20" d="M37.842,26.077c-0.512-1.649-0.775-3.317-0.898-4.993c-1.416-0.29-2.871-0.522-4.399-0.643
		c-2.765-0.218-5.607-0.134-8.42,0.208c-0.182,1.225-0.299,2.477-0.299,3.786c0,1.539,0.229,3.125,0.562,4.728
		c3.089-2.57,6.853-3.863,10.852-3.544C36.138,25.688,37.005,25.855,37.842,26.077"/>
	<path fill="#231F20" d="M37.842,26.077c-0.512-1.649-0.775-3.317-0.898-4.993c-1.416-0.29-2.871-0.522-4.399-0.643
		c-2.765-0.218-5.607-0.134-8.42,0.208c-0.182,1.225-0.299,2.477-0.299,3.786c0,1.539,0.229,3.125,0.562,4.728
		c3.089-2.57,6.853-3.863,10.852-3.544C36.138,25.688,37.005,25.855,37.842,26.077"/>
	<path fill="#231F20" d="M56.965,40.844c-1.441,1.175-3.019,2.31-4.874,3.398c-2.026-1.529-3.797-3.098-5.42-4.69
		c-0.912,4.619-4.362,8.017-8.921,11.028c0.247,0.224,0.47,0.461,0.722,0.68c-2.63,1.063-5.054,2.135-7.365,3.215
		c-5.753,3.103-12.043,6.207-17.035,10.393c-0.171,0.143-0.353,0.286-0.515,0.432c-0.431,0.373-0.851,0.76-1.259,1.152
		c-0.101,0.098-0.196,0.196-0.299,0.292c-3.828,3.792-6.545,8.452-7.032,14.645c-1.008,12.766,8.355,23.301,21.731,25.221
		c-1.786-1.758-3.296-3.817-4.469-6.159c-1.897-3.786-2.902-6.612-2.902-11.633c0-2.72,0.817-6.833,2.003-9.088
		c1.315-2.496,4.505-5.356,5.96-6.424c6.816-5,15.586-8.501,22.1-13.607c3.677-2.877,6.318-6.352,7.304-11.604
		c-0.641-0.453-1.276-0.938-1.92-1.373c0.781-0.388,1.534-0.782,2.278-1.175C57.181,43.927,57.142,42.36,56.965,40.844"/>
	<path fill="#231F20" d="M119.934,48.043c1.758-2.794,3.15-4.851,4.164-5.865c0.414-0.413,0.839-0.785,1.281-1.124
		c-4.964-4.519-12.094-6.645-20.259-5.736v2.939c9.071,0,11.344,1.238,11.344,4.126c0,0.049-0.022,0.121-0.025,0.172
		C118.081,43.929,119.296,45.792,119.934,48.043"/>
	<path fill="#231F20" d="M119.934,48.043c1.758-2.794,3.15-4.851,4.164-5.865c0.414-0.413,0.839-0.785,1.281-1.124
		c-4.964-4.519-12.094-6.645-20.259-5.736v2.939c9.071,0,11.344,1.238,11.344,4.126c0,0.049-0.022,0.121-0.025,0.172
		C118.081,43.929,119.296,45.792,119.934,48.043"/>
</g>
</svg>
