<?xml version="1.0" encoding="utf-8"?>
<!-- Generator: Adobe Illustrator 16.0.4, SVG Export Plug-In . SVG Version: 6.00 Build 0)  -->
<!DOCTYPE svg PUBLIC "-//W3C//DTD SVG 1.1//EN" "http://www.w3.org/Graphics/SVG/1.1/DTD/svg11.dtd">
<svg version="1.1" id="Layer_1" xmlns="http://www.w3.org/2000/svg" xmlns:xlink="http://www.w3.org/1999/xlink" x="0px" y="0px"
	 width="144px" height="144px" viewBox="0 0 144 144" enable-background="new 0 0 144 144" xml:space="preserve">
<g>
	<polygon fill="#231F20" points="54.749,109.887 54.749,142.966 75.083,142.966 75.083,109.994 54.828,109.994 	"/>
	<rect x="54.749" y="1.029" fill="#231F20" width="20.334" height="141.937"/>
	<rect x="100.201" y="1.029" fill="#231F20" width="20.336" height="141.941"/>
	<polygon fill="#231F20" points="23.463,89.661 38.137,109.887 38.137,89.661 	"/>
	<polygon fill="#231F20" points="23.463,61.75 38.137,81.977 58.548,61.831 	"/>
	<polygon fill="#231F20" points="58.47,61.831 58.47,61.75 23.463,61.75 38.137,81.977 38.212,82.086 58.47,82.086 58.47,79.775 
		58.548,79.775 58.548,61.831 	"/>
	<polygon fill="#231F20" points="38.137,109.887 38.215,109.994 58.47,109.994 58.47,89.656 23.463,89.661 	"/>
</g>
</svg>
