<?xml version="1.0" encoding="utf-8"?>
<!-- Generator: Adobe Illustrator 16.0.4, SVG Export Plug-In . SVG Version: 6.00 Build 0)  -->
<!DOCTYPE svg PUBLIC "-//W3C//DTD SVG 1.1//EN" "http://www.w3.org/Graphics/SVG/1.1/DTD/svg11.dtd">
<svg version="1.1" id="Layer_1" xmlns="http://www.w3.org/2000/svg" xmlns:xlink="http://www.w3.org/1999/xlink" x="0px" y="0px"
	 width="250px" height="250px" viewBox="30 11.25 250 250" enable-background="new 30 11.25 250 250" xml:space="preserve">
<g>
	
		<linearGradient id="SVGID_1_" gradientUnits="userSpaceOnUse" x1="267" y1="450.75" x2="267" y2="203.75" gradientTransform="matrix(1 0 0 1 -112 -191)">
		<stop  offset="0" style="stop-color:#2E33F7"/>
		<stop  offset="1" style="stop-color:#4A4EFF"/>
	</linearGradient>
	<path fill="url(#SVGID_1_)" d="M278.5,46.141c0-18.441-14.949-33.391-33.39-33.391H64.891C46.449,12.75,31.5,27.699,31.5,46.141
		v180.22c0,18.44,14.949,33.39,33.391,33.39h180.218c18.442,0,33.392-14.949,33.392-33.39V46.141z"/>
	<g>
		<path fill="#DB7CF2" d="M104.744,123.345c0,9.583,5.003,15.35,13.228,15.35c7.887,0,12.127-5.088,12.127-14.756V44.311h35.955
			v79.882c0,28.747-17.808,44.605-47.573,44.605c-29.68,0-48.167-17.131-48.167-45.454H104.744z"/>
		<path fill="#DB7CF2" d="M190.138,153.112c0-9.413,8.055-16.875,18.062-16.875c9.837,0,17.979,7.462,17.979,16.875
			c0,9.497-8.143,16.96-17.979,16.96C198.192,170.072,190.138,162.608,190.138,153.112z M226.009,44.311l-3.054,82.426h-29.51
			l-3.054-82.426H226.009z"/>
	</g>
	<g>
		<path fill="#DB7CF2" d="M120.479,228.35v-27.884h-0.217l-11.048,27.884h-6.5l-11.017-27.884h-0.249v27.884h-9.995v-44.656h13.123
			l11.265,29.182h0.248l11.265-29.182h13.123v44.656H120.479z"/>
		<path fill="#DB7CF2" d="M134.622,218.604c0-6.315,4.858-9.844,13.586-10.37l7.892-0.462v-1.918c0-2.692-1.92-4.179-4.797-4.179
			c-2.972,0-4.859,1.546-5.169,3.621h-9.871c0.309-6.9,6.189-11.449,15.597-11.449c9.008,0,14.976,4.609,14.976,11.389v23.118
			h-10.674v-4.797h-0.217c-1.826,3.403-5.942,5.29-9.995,5.29C139.695,228.846,134.622,224.696,134.622,218.604z M156.1,216.25
			v-2.322l-6.129,0.402c-2.877,0.218-4.486,1.548-4.486,3.528c0,2.135,1.763,3.437,4.363,3.437
			C153.189,221.295,156.1,219.249,156.1,216.25z"/>
		<path fill="#DB7CF2" d="M185.809,187.097v7.551h6.067v8.076h-6.067v14.144c0,2.32,1.238,3.498,3.87,3.498
			c0.865,0,1.517-0.03,2.165-0.154v7.8c-1.052,0.215-2.66,0.401-4.797,0.401c-8.759,0-12.226-2.693-12.226-9.315v-16.373h-4.58
			v-8.076h4.58v-7.551H185.809L185.809,187.097z"/>
		<path fill="#DB7CF2" d="M228.362,217.704c-1.053,6.963-7.242,11.45-16.062,11.45c-10.739,0-17.145-6.592-17.145-17.485
			s6.466-17.826,16.774-17.826c10.15,0,16.618,6.654,16.618,16.961v3.094h-22.744v0.68c0,4.023,2.69,6.809,6.65,6.809
			c2.942,0,5.232-1.393,6.006-3.682H228.362z M205.955,207.646h12.255c-0.186-3.592-2.631-6.006-6.095-6.006
			C208.741,201.641,206.234,204.148,205.955,207.646z"/>
	</g>
</g>
</svg>
