<?xml version="1.0" encoding="utf-8"?>
<!-- Generator: Adobe Illustrator 16.0.4, SVG Export Plug-In . SVG Version: 6.00 Build 0)  -->
<!DOCTYPE svg PUBLIC "-//W3C//DTD SVG 1.1//EN" "http://www.w3.org/Graphics/SVG/1.1/DTD/svg11.dtd">
<svg version="1.1" id="Layer_1" xmlns="http://www.w3.org/2000/svg" xmlns:xlink="http://www.w3.org/1999/xlink" x="0px" y="0px"
	 width="144px" height="144px" viewBox="0 0 144 144" enable-background="new 0 0 144 144" xml:space="preserve">
<g>
	<path fill="#231F20" d="M87.717,54.7V41.045h-4.009v13.714c10.729,1.787,15.834,3.837,17.887,6.987V54.7H87.717z"/>
	<path fill="#231F20" d="M127.178,73.984c0-1.896-0.331-3.674-1.007-5.32v10.722C126.787,77.734,127.178,75.966,127.178,73.984"/>
	<path fill="#231F20" d="M96.581,90.37c0,5.12,1.467,10.676,5.014,16.254V71.971C99.803,77.209,96.581,83,96.581,90.37"/>
	<path fill="#231F20" d="M101.429,108.933c-1.17-1.338-8.526-8.19-9.194-8.862C61.635,71.145,45.92,60.108,29.87,60.108
		c-8.027,0-13.546,5.518-13.546,14.715c0,9.192,6.521,13.043,15.383,14.213c36.114,5.012,53.003,15.883,65.706,27.253
		c1.413,1.292,2.798,2.539,4.182,3.691V108.77L101.429,108.933z"/>
	<path fill="#231F20" d="M126.173,107.78v5.106c0,3.044-0.22,5.887-0.628,8.549c1.338-1.923,2.132-4.335,2.132-7.156
		C127.677,111.717,127.121,109.562,126.173,107.78"/>
	<path fill="#231F20" d="M112.631,29.287c8.859,0,15.046-6.186,15.046-14.378c0-8.025-6.019-14.043-15.046-14.043
		c-8.859,0-14.882,6.352-14.882,14.544S103.771,29.287,112.631,29.287"/>
	<path fill="#231F20" d="M117.713,121.286c-5.456,0-9.853-2.698-14.214-6.335v9.46c0,6.853-1.839,9.197-5.184,9.36
		c-0.834,0-2.005-0.163-2.673-0.335c0.668-1.338,1.17-3.343,1.17-5.185c0-5.682-4.348-11.197-12.71-11.197
		c-7.522,0-12.037,5.516-12.037,11.706c0,8.525,8.531,14.374,23.577,14.374c17.853,0,29.141-9.209,31.808-26.732
		C125.305,119.495,121.735,121.286,117.713,121.286"/>
	<path fill="#231F20" d="M126.173,107.78c-1.837-3.442-5.229-5.369-9.53-5.369c-2.341,0-4.849,1.002-6.019,2.004
		c-0.168-0.499-0.333-1.333-0.333-2.503c0-8.146,12.285-12.885,15.882-22.526V68.664c-1.813-4.435-6.192-7.912-13.875-10.229v-1.17
		l13.875-1.503V41.045H87.717v13.658h13.878v7.043c0.825,1.265,1.172,2.703,1.172,4.383c0,1.9-0.485,3.83-1.172,5.842v34.653
		c0.274,0.436,0.535,0.871,0.834,1.306l-0.834,0.835v11.216c4.36,3.637,8.757,6.34,14.213,6.34c4.023,0,7.592-1.791,9.737-4.885
		c0.408-2.662,0.628-5.505,0.628-8.549V107.78z"/>
	<path fill="#231F20" d="M126.173,107.78c-1.837-3.442-5.229-5.369-9.53-5.369c-2.341,0-4.849,1.002-6.019,2.004
		c-0.168-0.499-0.333-1.333-0.333-2.503c0-8.146,12.285-12.885,15.882-22.526V68.664c-1.813-4.435-6.192-7.912-13.875-10.229v-1.17
		l13.875-1.503V41.045H87.717v13.658h13.878v7.043c0.825,1.265,1.172,2.703,1.172,4.383c0,1.9-0.485,3.83-1.172,5.842v34.653
		c0.274,0.436,0.535,0.871,0.834,1.306l-0.834,0.835v11.216c4.36,3.637,8.757,6.34,14.213,6.34c4.023,0,7.592-1.791,9.737-4.885
		c0.408-2.662,0.628-5.505,0.628-8.549V107.78z"/>
</g>
</svg>
