<?xml version="1.0" encoding="utf-8"?>
<!-- Generator: Adobe Illustrator 16.0.4, SVG Export Plug-In . SVG Version: 6.00 Build 0)  -->
<!DOCTYPE svg PUBLIC "-//W3C//DTD SVG 1.1//EN" "http://www.w3.org/Graphics/SVG/1.1/DTD/svg11.dtd">
<svg version="1.1" id="Layer_1" xmlns="http://www.w3.org/2000/svg" xmlns:xlink="http://www.w3.org/1999/xlink" x="0px" y="0px"
	 width="144px" height="144px" viewBox="0 0 144 144" enable-background="new 0 0 144 144" xml:space="preserve">
<g>
	<path fill="#231F20" d="M98.663,38.327c-0.101,0-0.401,0.162-0.899,0.49c-1.989,1.963-4.68,2.945-8.063,2.945
		c-1.993,0-5.227-0.648-9.708-1.943c-3.488-0.993-7.022-1.493-10.605-1.493c-10.657,0-19.321,3.286-25.993,9.858
		c-6.671,6.572-10.006,15.138-10.006,25.691c0,9.163,2.911,16.902,8.738,23.228s13.019,9.485,21.584,9.485
		c5.873,0,11.15-2.338,15.833-7.021v25.634c0,8.492-0.375,13.065-1.119,13.714c-0.747,0.647-4.161,0.972-10.234,0.972
		c-0.997,0.102-1.491,0.552-1.491,1.354c0,0.596,0.448,0.896,1.343,0.896h1.045c1.493-0.298,4.781-0.445,9.86-0.445
		c1.493,0,4.779,0.072,9.857,0.223l7.616,0.223h5.679h5.074h1.796c1.092,0,1.643-0.349,1.643-1.045c0-0.697-1.495-1.097-4.481-1.193
		c-3.286-0.104-5.255-0.479-5.899-1.123c-0.648-0.652-0.973-2.425-0.973-5.319V60.497v-4.493v-2.997v-9.889
		C99.259,39.923,99.061,38.327,98.663,38.327 M68.625,103.003c-8.653,0-12.98-10.553-12.98-31.666
		c0-11.252,1.161-19.269,3.485-24.048c2.326-4.781,6.211-7.169,11.653-7.169c3.169,0,5.422,0.97,6.755,2.911
		c1.337,1.943,2.006,7.644,2.006,17.103v9.858v13.594v2.609v-2.609c-0.098,7.27-0.689,11.8-1.771,13.591
		C75.407,101.062,72.361,103.003,68.625,103.003"/>
	<path fill="#231F20" d="M89.486,1.864c-3.06,0-5.556,0.896-7.488,2.688c-1.937,1.793-2.905,4.084-2.905,6.87
		c0,2.891,0.969,5.282,2.905,7.172c1.933,1.892,4.329,2.836,7.182,2.836c2.749,0,5.09-0.993,7.028-2.986
		c1.933-1.989,2.901-4.382,2.901-7.17c0-2.688-0.916-4.929-2.752-6.722C94.524,2.76,92.233,1.864,89.486,1.864"/>
</g>
</svg>
