<?xml version="1.0" encoding="utf-8"?>
<!-- Generator: Adobe Illustrator 16.0.4, SVG Export Plug-In . SVG Version: 6.00 Build 0)  -->
<!DOCTYPE svg PUBLIC "-//W3C//DTD SVG 1.1//EN" "http://www.w3.org/Graphics/SVG/1.1/DTD/svg11.dtd">
<svg version="1.1" id="Layer_1" xmlns="http://www.w3.org/2000/svg" xmlns:xlink="http://www.w3.org/1999/xlink" x="0px" y="0px"
	 width="144px" height="144px" viewBox="0 0 144 144" enable-background="new 0 0 144 144" xml:space="preserve">
<g>
	<path fill="#231F20" d="M71.194,62.575l-11.342,2.619h11.289C71.153,64.292,71.177,63.445,71.194,62.575"/>
	<path fill="#231F20" d="M84.511,102.672c0,16.907,0,31.281,1.478,35.903c4.485-1.45,9.083-2.871,12.582-3.854v-4.821
		c-4.168,1.533-7.455,2.41-12.057,2.63c-1.311-4.384-1.971-9.865-1.971-21.918c0-7.458,1.035-25.007,1.853-38.623h-1.441
		L84.511,102.672z"/>
	<path fill="#231F20" d="M45.971,131.652c-18.191,0-18.191-17.754-18.191-28.056c0-6.792,0.88-19.725,1.314-26.957l1.313-18.408
		c0-1.317-0.657-1.974-1.534-1.974c-0.437,0-0.437,0-2.19,0.877L3.014,70.285v4.384c4.384-1.974,6.138-2.85,8.108-2.85
		c5.042,0,4.821,6.794,4.601,13.15l-0.874,24.108c-1.097,29.15,15.343,31.778,19.945,31.778c9.241,0,24.795-7.583,35.728-13.04
		c0.107-1.441,0.179-3.079,0.232-4.836C62.016,127.266,53.889,131.652,45.971,131.652"/>
	<path fill="#231F20" d="M86.806,65.193c0.146-2.399,0.273-4.56,0.368-6.305l-2.039,0.47c-0.068,1.888-0.137,3.816-0.181,5.835
		H86.806z"/>
	<path fill="#231F20" d="M122.575,1.391c-9.202,0-26.954,7.671-37.256,19.508c-7.196,8.251-11.724,20.622-12.229,44.722
		l13.946-3.219c1.555-40.734,8.649-51.366,24.361-51.366c4.821,0,8.109,1.094,14.247,3.287c0.217,0,7.892,3.068,8.546,3.068
		c3.067,0,6.795-6.355,6.795-8.549C140.986,4.679,129.59,1.391,122.575,1.391"/>
	<path fill="#231F20" d="M71.144,65.193H59.855l-1.174,0.271l0.22,3.944c6.141,0.231,9.69,0.678,11.592,3.864
		c0.113,0.187,0.231,0.362,0.333,0.567c1.427,2.937,1.735,7.897,1.444,16.39l-0.66,21.915c-0.217,2.414-0.217,9.206-0.217,10.52
		c-0.214,0.104-0.425,0.208-0.639,0.315c-0.053,1.757-0.125,3.395-0.232,4.836c0.214-0.11,0.44-0.223,0.651-0.327
		c0.437,4.821,0.88,8.985,2.851,15.121c3.076-1.098,7.467-2.58,11.967-4.034c-1.48-4.622-1.48-18.996-1.48-35.906l0.44-30.681h1.447
		c0.146-2.423,0.282-4.706,0.407-6.795h-1.854c0.05-2.019,0.112-3.947,0.187-5.835l-13.943,3.216
		C71.177,63.445,71.153,64.292,71.144,65.193"/>
	<path fill="#231F20" d="M71.144,65.193H59.855l-1.174,0.271l0.22,3.944c6.141,0.231,9.69,0.678,11.592,3.864
		c0.113,0.187,0.231,0.362,0.333,0.567c1.427,2.937,1.735,7.897,1.444,16.39l-0.66,21.915c-0.217,2.414-0.217,9.206-0.217,10.52
		c-0.214,0.104-0.425,0.208-0.639,0.315c-0.053,1.757-0.125,3.395-0.232,4.836c0.214-0.11,0.44-0.223,0.651-0.327
		c0.437,4.821,0.88,8.985,2.851,15.121c3.076-1.098,7.467-2.58,11.967-4.034c-1.48-4.622-1.48-18.996-1.48-35.906l0.44-30.681h1.447
		c0.146-2.423,0.282-4.706,0.407-6.795h-1.854c0.05-2.019,0.112-3.947,0.187-5.835l-13.943,3.216
		C71.177,63.445,71.153,64.292,71.144,65.193"/>
</g>
</svg>
