<?xml version="1.0" encoding="utf-8"?>
<!-- Generator: Adobe Illustrator 16.0.4, SVG Export Plug-In . SVG Version: 6.00 Build 0)  -->
<!DOCTYPE svg PUBLIC "-//W3C//DTD SVG 1.1//EN" "http://www.w3.org/Graphics/SVG/1.1/DTD/svg11.dtd">
<svg version="1.1" id="Layer_1" xmlns="http://www.w3.org/2000/svg" xmlns:xlink="http://www.w3.org/1999/xlink" x="0px" y="0px"
	 width="144px" height="144px" viewBox="0 0 144 144" enable-background="new 0 0 144 144" xml:space="preserve">
<g>
	<path d="M71.717,66.262L46.628,5.179H36.097V2.458H15.31v2.721h13.419l33.653,83.257l-8.557,21.786
		c-2.079,5.186-3.959,9.561-5.644,13.134c-1.688,3.565-3.373,6.446-5.058,8.653c-1.685,2.206-3.404,3.797-5.151,4.766
		c-1.754,0.976-3.668,1.457-5.738,1.457c-1.558,0-2.792-0.256-3.696-0.774c-0.912-0.518-1.362-1.628-1.362-3.309
		c0-1.944,0.548-3.729,1.65-5.352c1.099-1.622,1.652-3.339,1.652-5.148c0-1.299-0.323-2.409-0.968-3.311
		c-0.649-0.907-1.426-1.621-2.333-2.139c-0.909-0.518-1.884-0.877-2.919-1.072c-1.041-0.195-2.012-0.293-2.917-0.293
		c-2.597,0-4.8,0.81-6.616,2.433c-1.815,1.62-2.724,4.059-2.724,7.301c0,1.163,0.195,2.59,0.585,4.278
		c0.386,1.681,1.232,3.303,2.525,4.862c1.295,1.555,3.085,2.914,5.352,4.083c2.27,1.164,5.283,1.75,9.047,1.75
		c3.11,0,5.832-0.556,8.169-1.652c2.338-1.103,4.502-2.755,6.515-4.96c2.011-2.208,3.925-5.059,5.742-8.557
		c1.812-3.504,3.627-7.594,5.444-12.262c2.208-5.706,4.409-11.378,6.613-17.016c2.207-5.643,4.54-11.249,7.002-16.832l5.556-12.99
		l-1.586-3.907L71.717,66.262z"/>
	<polygon points="97.979,5.183 82.254,41.77 83.817,45.585 101.092,5.183 102.43,5.183 102.43,2.458 83.173,2.458 83.173,5.183 	"/>
	<polygon points="49.324,5.183 72.962,63.367 82.254,41.77 67.22,5.183 81.834,5.183 81.834,2.458 62.968,2.458 62.968,5.183 	"/>
	<polygon points="111.599,2.458 111.599,5.179 118.386,5.179 92.312,66.262 83.817,45.585 74.549,67.274 84.732,92.33 
		121.492,5.179 132,5.179 132,2.458 	"/>
	<rect x="102.43" y="2.458" width="9.17" height="2.721"/>
	<rect x="102.43" y="2.458" width="9.17" height="2.721"/>
	<rect x="81.834" y="2.459" width="1.338" height="2.724"/>
	<rect x="81.834" y="2.459" width="1.338" height="2.724"/>
	<polygon points="82.252,41.766 72.962,63.367 74.549,67.274 83.817,45.585 	"/>
	<polygon points="82.252,41.766 72.962,63.367 74.549,67.274 83.817,45.585 	"/>
	<polygon points="46.628,5.183 49.324,5.183 62.968,5.183 62.968,2.458 36.101,2.458 36.101,5.183 	"/>
</g>
</svg>
