<?xml version="1.0" encoding="utf-8"?>
<!-- Generator: Adobe Illustrator 16.0.4, SVG Export Plug-In . SVG Version: 6.00 Build 0)  -->
<!DOCTYPE svg PUBLIC "-//W3C//DTD SVG 1.1//EN" "http://www.w3.org/Graphics/SVG/1.1/DTD/svg11.dtd">
<svg version="1.1" id="Layer_1" xmlns="http://www.w3.org/2000/svg" xmlns:xlink="http://www.w3.org/1999/xlink" x="0px" y="0px"
	 width="240.86px" height="215.054px" viewBox="0 0 240.86 215.054" enable-background="new 0 0 240.86 215.054"
	 xml:space="preserve">
<g>
	<g>
		<g>
			<path fill="#231F20" d="M23.31,61.11v20.176h-4.772V61.11H11.45v-4.613h18.946v4.613H23.31z"/>
			<path fill="#231F20" d="M35.269,81.286V56.497h11.514c1.568,0,2.879,0.217,3.933,0.648c1.056,0.432,1.903,1.006,2.549,1.719
				c0.647,0.715,1.106,1.539,1.386,2.473c0.273,0.934,0.414,1.906,0.414,2.922c0,0.703-0.102,1.414-0.304,2.135
				s-0.503,1.404-0.906,2.049c-0.404,0.645-0.907,1.23-1.505,1.754c-0.6,0.523-1.297,0.932-2.092,1.219l4.807,9.871h-5.376
				l-4.634-9.25h-4.996v9.25H35.269z M46.851,67.506c0.611,0,1.124-0.088,1.538-0.268c0.417-0.18,0.751-0.416,1.004-0.715
				c0.253-0.301,0.435-0.646,0.544-1.039c0.109-0.391,0.165-0.801,0.165-1.227c0-0.391-0.05-0.781-0.147-1.166
				c-0.098-0.389-0.267-0.734-0.51-1.039c-0.242-0.307-0.574-0.551-0.994-0.734s-0.955-0.277-1.6-0.277h-6.793v6.465H46.851z"/>
			<path fill="#231F20" d="M77.334,81.286l-1.919-5.135h-9.561l-1.9,5.135h-5.133l9.488-24.789h4.668l9.49,24.789H77.334z
				 M71.423,65.346c-0.13-0.299-0.264-0.656-0.408-1.07c-0.143-0.416-0.268-0.801-0.371-1.16c-0.092,0.359-0.215,0.744-0.363,1.16
				c-0.15,0.414-0.287,0.771-0.414,1.07l-2.456,6.449h6.45L71.423,65.346z"/>
			<path fill="#231F20" d="M87.435,81.286V56.497h4.77v24.789H87.435z"/>
			<path fill="#231F20" d="M114.263,81.286l-9.837-14.453c-0.16-0.242-0.337-0.537-0.525-0.891c-0.19-0.35-0.355-0.674-0.494-0.975
				c0.037,0.264,0.062,0.576,0.079,0.932c0.017,0.359,0.025,0.67,0.025,0.934v14.453h-4.754V56.497h4.494l9.596,14.277
				c0.148,0.232,0.321,0.52,0.518,0.865c0.195,0.346,0.368,0.68,0.519,1.004c-0.034-0.336-0.061-0.672-0.078-1.014
				c-0.018-0.338-0.026-0.623-0.026-0.855V56.497h4.737v24.789H114.263z"/>
			<path fill="#231F20" d="M125.068,81.286V56.497h4.771v24.789H125.068z"/>
			<path fill="#231F20" d="M151.895,81.286l-9.836-14.453c-0.16-0.242-0.337-0.537-0.527-0.891c-0.19-0.35-0.354-0.674-0.492-0.975
				c0.035,0.264,0.062,0.576,0.078,0.932c0.018,0.359,0.026,0.67,0.026,0.934v14.453h-4.756V56.497h4.495l9.595,14.277
				c0.149,0.232,0.321,0.52,0.52,0.865c0.194,0.346,0.368,0.68,0.519,1.004c-0.035-0.336-0.061-0.672-0.08-1.014
				c-0.016-0.338-0.024-0.623-0.024-0.855V56.497h4.737v24.789H151.895z"/>
			<path fill="#231F20" d="M172.255,81.719c-1.277,0-2.436-0.168-3.475-0.502c-1.037-0.336-1.957-0.797-2.764-1.383
				c-0.807-0.59-1.504-1.289-2.092-2.102s-1.072-1.691-1.453-2.637c-0.379-0.945-0.662-1.943-0.846-3
				c-0.186-1.053-0.277-2.121-0.277-3.205c0-1.004,0.096-2.018,0.285-3.043s0.484-2.014,0.881-2.965
				c0.398-0.951,0.893-1.842,1.488-2.67c0.592-0.83,1.295-1.549,2.109-2.16c0.812-0.611,1.727-1.092,2.746-1.445
				c1.021-0.35,2.152-0.527,3.396-0.527c1.201,0,2.256,0.15,3.174,0.451c0.916,0.299,1.729,0.693,2.438,1.184
				s1.326,1.055,1.85,1.693s1,1.301,1.426,1.98l-4.219,2.402c-0.275-0.416-0.574-0.809-0.898-1.186
				c-0.322-0.373-0.67-0.703-1.047-0.992c-0.373-0.289-0.785-0.518-1.234-0.686c-0.449-0.164-0.945-0.248-1.488-0.248
				c-0.771,0-1.451,0.117-2.037,0.354c-0.59,0.236-1.105,0.561-1.547,0.967c-0.445,0.412-0.816,0.887-1.115,1.428
				c-0.301,0.541-0.541,1.119-0.729,1.729c-0.184,0.611-0.316,1.236-0.396,1.877c-0.08,0.639-0.121,1.258-0.121,1.857
				c0,1.047,0.109,2.064,0.328,3.051c0.221,0.986,0.568,1.861,1.047,2.627c0.477,0.768,1.096,1.381,1.85,1.842
				c0.756,0.461,1.662,0.691,2.721,0.691c0.6,0,1.162-0.107,1.688-0.32c0.523-0.213,0.982-0.502,1.373-0.863
				c0.393-0.363,0.701-0.793,0.926-1.289s0.336-1.025,0.336-1.59v-0.207h-4.217v-4.547h9.094v3.648c0,1.59-0.236,2.992-0.709,4.207
				c-0.475,1.219-1.121,2.238-1.945,3.061c-0.824,0.824-1.797,1.449-2.914,1.877C174.769,81.504,173.56,81.719,172.255,81.719z"/>
		</g>
		<g>
			<path fill="#231F20" d="M11.45,43.297v-26.15h11.215c1.654,0,3.045,0.24,4.177,0.721c1.13,0.48,2.048,1.113,2.752,1.896
				c0.706,0.785,1.214,1.67,1.524,2.654c0.309,0.984,0.465,1.98,0.465,2.99c0,0.633-0.074,1.273-0.219,1.922
				c-0.146,0.652-0.371,1.285-0.675,1.896c-0.305,0.615-0.692,1.191-1.167,1.725c-0.475,0.535-1.043,1.006-1.705,1.414
				c-0.664,0.406-1.422,0.725-2.279,0.957c-0.857,0.23-1.814,0.348-2.873,0.348h-6.162v9.627H11.45z M22.885,28.872
				c0.644,0,1.185-0.102,1.622-0.309c0.438-0.207,0.793-0.475,1.066-0.803c0.274-0.328,0.471-0.699,0.593-1.111
				c0.121-0.414,0.183-0.826,0.183-1.24c0-0.377-0.051-0.77-0.155-1.176c-0.103-0.408-0.286-0.781-0.546-1.121
				c-0.262-0.342-0.618-0.621-1.068-0.84c-0.448-0.219-1.016-0.328-1.694-0.328h-6.382v6.928H22.885z"/>
			<path fill="#231F20" d="M35.677,43.297v-26.15H53.53v4.797H40.729v5.488h7.531v4.777h-7.531v6.311h13.585v4.777H35.677z"/>
			<path fill="#231F20" d="M59.729,43.297v-26.15h12.146c1.654,0,3.037,0.229,4.149,0.684c1.112,0.457,2.009,1.062,2.688,1.814
				c0.682,0.754,1.168,1.625,1.46,2.607c0.292,0.986,0.438,2.014,0.438,3.084c0,0.74-0.107,1.492-0.319,2.25
				c-0.213,0.76-0.533,1.48-0.957,2.162c-0.426,0.682-0.955,1.297-1.586,1.85c-0.635,0.555-1.368,0.982-2.207,1.285l5.069,10.414
				h-5.671l-4.887-9.756h-5.27v9.756H59.729z M71.948,28.764c0.644,0,1.185-0.094,1.623-0.285c0.438-0.188,0.789-0.438,1.057-0.756
				c0.268-0.314,0.459-0.68,0.576-1.094c0.113-0.412,0.172-0.846,0.172-1.293c0-0.414-0.053-0.826-0.156-1.232
				c-0.102-0.408-0.281-0.773-0.536-1.094c-0.255-0.322-0.606-0.58-1.05-0.775c-0.443-0.193-1.006-0.291-1.686-0.291h-7.166v6.82
				H71.948z"/>
			<path fill="#231F20" d="M99.161,24.26c-0.16-0.389-0.372-0.754-0.639-1.094c-0.269-0.342-0.587-0.635-0.959-0.885
				c-0.369-0.25-0.795-0.443-1.275-0.584c-0.479-0.141-1.012-0.211-1.596-0.211c-1.094,0-1.949,0.219-2.562,0.658
				c-0.613,0.438-0.921,1.051-0.921,1.84c0,0.525,0.194,0.961,0.584,1.312c0.388,0.354,0.9,0.674,1.531,0.959
				c0.632,0.287,1.353,0.557,2.161,0.812c0.809,0.254,1.639,0.537,2.49,0.846c0.85,0.311,1.68,0.676,2.488,1.094
				c0.809,0.42,1.528,0.938,2.161,1.551c0.632,0.615,1.143,1.344,1.531,2.189c0.39,0.844,0.584,1.857,0.584,3.035
				c0,1.275-0.243,2.408-0.729,3.393c-0.488,0.984-1.152,1.818-1.997,2.498c-0.847,0.682-1.846,1.197-3.002,1.549
				c-1.154,0.354-2.4,0.529-3.736,0.529c-1.229,0-2.378-0.166-3.447-0.502c-1.07-0.334-2.039-0.811-2.908-1.43
				s-1.625-1.375-2.27-2.262c-0.646-0.889-1.156-1.885-1.531-2.99l4.594-1.715c0.28,0.607,0.617,1.164,1.012,1.668
				c0.396,0.506,0.836,0.938,1.322,1.295c0.486,0.359,1.013,0.639,1.577,0.838c0.565,0.203,1.169,0.301,1.815,0.301
				c0.632,0,1.207-0.066,1.723-0.199c0.518-0.135,0.961-0.334,1.332-0.604c0.369-0.266,0.655-0.596,0.855-0.992
				c0.202-0.395,0.301-0.854,0.301-1.377c0-0.633-0.194-1.164-0.582-1.596c-0.39-0.432-0.899-0.807-1.533-1.129
				c-0.631-0.322-1.352-0.615-2.16-0.877c-0.809-0.26-1.636-0.537-2.479-0.83c-0.847-0.291-1.674-0.631-2.481-1.02
				c-0.81-0.389-1.528-0.871-2.161-1.441c-0.633-0.572-1.143-1.258-1.531-2.061c-0.39-0.803-0.584-1.775-0.584-2.916
				c0-0.986,0.197-1.912,0.594-2.783c0.395-0.869,0.969-1.633,1.723-2.287c0.754-0.658,1.678-1.178,2.771-1.561
				c1.095-0.383,2.348-0.574,3.757-0.574c1.179,0,2.247,0.152,3.2,0.455c0.953,0.305,1.796,0.729,2.525,1.268
				c0.729,0.541,1.343,1.18,1.841,1.916c0.498,0.734,0.877,1.541,1.132,2.416L99.161,24.26z"/>
			<path fill="#231F20" d="M120.708,43.752c-1.41,0-2.676-0.186-3.793-0.557c-1.117-0.369-2.104-0.873-2.963-1.514
				c-0.855-0.637-1.588-1.391-2.195-2.26c-0.609-0.869-1.105-1.807-1.486-2.809c-0.383-1.004-0.664-2.049-0.84-3.137
				c-0.178-1.088-0.264-2.172-0.264-3.254c0-1.07,0.086-2.148,0.264-3.238c0.176-1.088,0.457-2.133,0.84-3.137
				c0.381-1.002,0.877-1.938,1.486-2.809c0.607-0.867,1.34-1.621,2.195-2.262c0.859-0.637,1.846-1.141,2.963-1.512
				s2.383-0.557,3.793-0.557c1.412,0,2.674,0.186,3.785,0.557c1.113,0.371,2.094,0.875,2.947,1.512
				c0.85,0.641,1.578,1.395,2.186,2.262c0.609,0.871,1.104,1.807,1.486,2.809c0.383,1.004,0.662,2.049,0.84,3.137
				c0.176,1.09,0.264,2.168,0.264,3.238c0,1.082-0.088,2.166-0.264,3.254c-0.178,1.088-0.457,2.133-0.84,3.137
				c-0.383,1.002-0.877,1.939-1.486,2.809c-0.607,0.869-1.336,1.623-2.186,2.26c-0.854,0.641-1.834,1.145-2.947,1.514
				C123.382,43.567,122.12,43.752,120.708,43.752z M120.708,38.885c1.168,0,2.15-0.275,2.945-0.822
				c0.797-0.547,1.441-1.246,1.934-2.098c0.494-0.85,0.85-1.781,1.066-2.797c0.219-1.016,0.328-1.998,0.328-2.945
				c0-0.67-0.045-1.348-0.137-2.033c-0.09-0.688-0.24-1.35-0.445-1.988c-0.209-0.639-0.475-1.24-0.803-1.805
				c-0.328-0.566-0.725-1.059-1.186-1.477c-0.463-0.42-1-0.752-1.613-0.996c-0.615-0.242-1.311-0.363-2.09-0.363
				c-0.789,0-1.49,0.127-2.104,0.383c-0.615,0.254-1.156,0.6-1.625,1.029c-0.467,0.432-0.865,0.934-1.193,1.506
				s-0.596,1.178-0.803,1.822s-0.355,1.301-0.447,1.971c-0.092,0.668-0.137,1.318-0.137,1.951c0,0.996,0.111,2.01,0.328,3.035
				c0.219,1.027,0.574,1.957,1.068,2.791c0.492,0.834,1.139,1.512,1.943,2.041C118.538,38.62,119.53,38.885,120.708,38.885z"/>
			<path fill="#231F20" d="M154.353,43.297l-10.375-15.244c-0.17-0.256-0.357-0.568-0.555-0.941
				c-0.201-0.369-0.373-0.713-0.521-1.029c0.037,0.281,0.064,0.609,0.082,0.986c0.018,0.375,0.027,0.705,0.027,0.984v15.244h-5.016
				v-26.15h4.742l10.121,15.062c0.158,0.242,0.34,0.547,0.547,0.912s0.389,0.717,0.547,1.059c-0.035-0.354-0.062-0.709-0.082-1.066
				c-0.02-0.359-0.027-0.662-0.027-0.904V17.147h4.996v26.15H154.353z"/>
			<path fill="#231F20" d="M189.853,43.297v-26.15h5.053v21.299h12.617v4.852H189.853z"/>
		</g>
		<polygon fill="#E31837" points="204.728,47.518 202.61,47.518 194.495,69.038 174.284,15.545 162.228,47.522 12.769,49.79 
			162.536,52.061 165.737,52.061 174.284,29.395 194.495,82.887 206.138,52.016 226.978,49.768 		"/>
	</g>
	<g>
		<rect x="11.45" y="111.222" width="105.137" height="45.619"/>
		<g>
			<g>
				<path d="M148.044,138.718v7.947h-1.88v-7.947h-2.793v-1.818h7.466v1.818H148.044z"/>
				<path d="M152.756,146.665v-9.766h4.536c0.618,0,1.135,0.086,1.549,0.256c0.417,0.17,0.751,0.395,1.005,0.676
					c0.255,0.283,0.437,0.607,0.546,0.975c0.108,0.369,0.164,0.752,0.164,1.152c0,0.275-0.041,0.557-0.121,0.84
					c-0.078,0.285-0.197,0.555-0.356,0.809s-0.356,0.484-0.593,0.689c-0.235,0.207-0.511,0.367-0.824,0.48l1.895,3.889h-2.118
					l-1.826-3.643h-1.969v3.643H152.756z M157.319,141.237c0.24,0,0.443-0.035,0.606-0.105s0.295-0.164,0.395-0.281
					c0.101-0.119,0.172-0.256,0.215-0.41s0.065-0.314,0.065-0.482c0-0.154-0.021-0.309-0.059-0.459
					c-0.038-0.154-0.104-0.289-0.201-0.41c-0.095-0.121-0.226-0.217-0.391-0.289c-0.166-0.072-0.377-0.109-0.631-0.109h-2.677v2.547
					H157.319z"/>
				<path d="M169.329,146.665l-0.756-2.021h-3.767l-0.749,2.021h-2.022l3.739-9.766h1.839l3.738,9.766H169.329z M167,140.386
					c-0.051-0.117-0.104-0.258-0.16-0.422s-0.105-0.314-0.146-0.457c-0.036,0.143-0.084,0.293-0.144,0.457
					c-0.059,0.164-0.113,0.305-0.163,0.422l-0.968,2.541h2.541L167,140.386z"/>
				<path d="M173.309,146.665v-9.766h1.879v9.766H173.309z"/>
				<path d="M183.88,146.665l-3.877-5.693c-0.063-0.096-0.133-0.211-0.206-0.352c-0.075-0.137-0.141-0.266-0.195-0.383
					c0.015,0.104,0.024,0.227,0.031,0.367c0.006,0.141,0.01,0.264,0.01,0.367v5.693h-1.873v-9.766h1.771l3.78,5.625
					c0.059,0.092,0.127,0.205,0.205,0.342c0.076,0.135,0.145,0.268,0.203,0.395c-0.014-0.131-0.023-0.264-0.031-0.398
					c-0.006-0.133-0.01-0.246-0.01-0.338v-5.625h1.867v9.766H183.88z"/>
				<path d="M188.138,146.665v-9.766h1.879v9.766H188.138z"/>
				<path d="M198.706,146.665l-3.875-5.693c-0.062-0.096-0.133-0.211-0.209-0.352c-0.074-0.137-0.139-0.266-0.193-0.383
					c0.014,0.104,0.025,0.227,0.031,0.367s0.01,0.264,0.01,0.367v5.693h-1.873v-9.766h1.771l3.779,5.625
					c0.059,0.092,0.127,0.205,0.205,0.342c0.076,0.135,0.145,0.268,0.205,0.395c-0.014-0.131-0.025-0.264-0.033-0.398
					c-0.006-0.133-0.008-0.246-0.008-0.338v-5.625h1.865v9.766H198.706z"/>
				<path d="M206.728,146.837c-0.502,0-0.959-0.066-1.367-0.197c-0.41-0.133-0.771-0.314-1.09-0.545
					c-0.318-0.232-0.594-0.508-0.824-0.828c-0.232-0.32-0.424-0.666-0.572-1.039s-0.262-0.766-0.334-1.182
					c-0.074-0.416-0.109-0.836-0.109-1.264c0-0.395,0.039-0.795,0.113-1.199c0.074-0.402,0.191-0.793,0.346-1.168
					c0.158-0.373,0.354-0.725,0.586-1.051c0.234-0.328,0.512-0.611,0.832-0.852s0.68-0.43,1.082-0.57
					c0.402-0.137,0.848-0.207,1.338-0.207c0.473,0,0.889,0.061,1.252,0.178c0.359,0.117,0.68,0.273,0.959,0.467
					s0.521,0.416,0.73,0.666c0.205,0.252,0.393,0.514,0.561,0.781l-1.662,0.947c-0.109-0.164-0.227-0.32-0.354-0.467
					c-0.127-0.148-0.266-0.279-0.412-0.393c-0.148-0.113-0.311-0.203-0.488-0.27c-0.178-0.064-0.371-0.098-0.586-0.098
					c-0.305,0-0.57,0.047-0.803,0.139c-0.232,0.094-0.436,0.221-0.609,0.381c-0.176,0.162-0.322,0.35-0.439,0.564
					c-0.119,0.211-0.213,0.439-0.287,0.68c-0.072,0.24-0.123,0.486-0.156,0.74c-0.031,0.25-0.047,0.494-0.047,0.73
					c0,0.414,0.043,0.814,0.129,1.203s0.223,0.732,0.412,1.035c0.189,0.301,0.432,0.543,0.729,0.725
					c0.299,0.182,0.656,0.273,1.072,0.273c0.236,0,0.459-0.043,0.664-0.127c0.207-0.084,0.387-0.197,0.543-0.34
					c0.154-0.143,0.275-0.312,0.363-0.508c0.09-0.195,0.133-0.404,0.133-0.627v-0.082h-1.66v-1.791h3.582v1.438
					c0,0.627-0.094,1.18-0.279,1.658c-0.188,0.48-0.443,0.881-0.768,1.205c-0.324,0.326-0.707,0.572-1.146,0.74
					C207.718,146.753,207.241,146.837,206.728,146.837z"/>
			</g>
			<g>
				<path d="M143.371,131.698v-10.303h4.419c0.652,0,1.2,0.096,1.646,0.285c0.445,0.188,0.807,0.438,1.085,0.746
					c0.277,0.309,0.478,0.658,0.6,1.045c0.123,0.389,0.184,0.781,0.184,1.178c0,0.25-0.028,0.502-0.086,0.758
					c-0.058,0.258-0.146,0.508-0.266,0.748c-0.121,0.242-0.273,0.469-0.461,0.68c-0.187,0.211-0.41,0.396-0.671,0.557
					c-0.262,0.16-0.561,0.285-0.898,0.377s-0.715,0.137-1.132,0.137h-2.429v3.793H143.371z M147.877,126.015
					c0.253,0,0.466-0.039,0.639-0.121s0.312-0.188,0.421-0.316c0.107-0.129,0.186-0.275,0.233-0.438
					c0.048-0.164,0.072-0.326,0.072-0.49c0-0.146-0.021-0.303-0.062-0.463c-0.041-0.16-0.113-0.307-0.216-0.441
					s-0.243-0.244-0.421-0.33c-0.177-0.086-0.399-0.129-0.667-0.129h-2.516v2.729H147.877z"/>
				<path d="M152.917,131.698v-10.303h7.033v1.891h-5.043v2.162h2.967v1.881h-2.967v2.488h5.353v1.881H152.917z"/>
				<path d="M162.393,131.698v-10.303h4.785c0.652,0,1.196,0.09,1.636,0.27c0.438,0.18,0.791,0.418,1.059,0.715
					c0.269,0.297,0.46,0.641,0.575,1.027c0.115,0.389,0.173,0.793,0.173,1.215c0,0.291-0.043,0.588-0.126,0.887
					c-0.084,0.299-0.21,0.584-0.377,0.852c-0.168,0.27-0.377,0.512-0.626,0.729c-0.249,0.219-0.538,0.387-0.868,0.508l1.997,4.102
					h-2.234l-1.926-3.844h-2.076v3.844H162.393z M167.207,125.972c0.254,0,0.467-0.035,0.64-0.111
					c0.172-0.074,0.312-0.172,0.416-0.297c0.106-0.125,0.182-0.268,0.228-0.432c0.045-0.162,0.068-0.334,0.068-0.51
					c0-0.162-0.021-0.324-0.062-0.486c-0.04-0.16-0.111-0.303-0.212-0.43s-0.238-0.229-0.413-0.305
					c-0.176-0.078-0.397-0.115-0.665-0.115h-2.823v2.686H167.207z"/>
				<path d="M177.93,124.198c-0.063-0.152-0.147-0.297-0.252-0.432c-0.106-0.133-0.231-0.25-0.378-0.348
					c-0.146-0.1-0.313-0.176-0.503-0.23c-0.188-0.055-0.398-0.084-0.629-0.084c-0.431,0-0.768,0.088-1.009,0.26
					c-0.242,0.172-0.363,0.414-0.363,0.727c0,0.205,0.077,0.377,0.23,0.518c0.152,0.139,0.354,0.264,0.603,0.377
					c0.249,0.111,0.533,0.219,0.852,0.32c0.319,0.1,0.646,0.211,0.981,0.334c0.335,0.121,0.662,0.264,0.98,0.43
					s0.602,0.369,0.852,0.611c0.249,0.242,0.45,0.529,0.604,0.861c0.153,0.334,0.229,0.732,0.229,1.195
					c0,0.504-0.096,0.949-0.287,1.338c-0.191,0.387-0.454,0.717-0.786,0.984c-0.334,0.268-0.728,0.471-1.184,0.609
					c-0.455,0.141-0.945,0.209-1.472,0.209c-0.483,0-0.937-0.064-1.358-0.197c-0.422-0.131-0.804-0.32-1.146-0.564
					c-0.343-0.242-0.641-0.541-0.895-0.891s-0.455-0.742-0.604-1.178l1.811-0.676c0.11,0.24,0.243,0.459,0.398,0.658
					c0.156,0.199,0.329,0.367,0.521,0.51c0.19,0.141,0.398,0.252,0.621,0.33c0.223,0.08,0.46,0.119,0.715,0.119
					c0.249,0,0.476-0.027,0.679-0.08c0.204-0.053,0.379-0.131,0.524-0.236s0.259-0.236,0.338-0.393
					c0.079-0.154,0.118-0.336,0.118-0.543c0-0.248-0.077-0.457-0.229-0.627c-0.153-0.17-0.354-0.318-0.604-0.445
					s-0.533-0.242-0.852-0.346c-0.318-0.102-0.645-0.211-0.977-0.326c-0.333-0.115-0.659-0.25-0.978-0.402
					c-0.318-0.154-0.603-0.344-0.852-0.568s-0.449-0.496-0.604-0.812c-0.152-0.314-0.229-0.697-0.229-1.148
					c0-0.389,0.077-0.754,0.233-1.096c0.155-0.342,0.382-0.643,0.679-0.9c0.297-0.26,0.662-0.465,1.093-0.615
					c0.432-0.15,0.925-0.227,1.48-0.227c0.464,0,0.885,0.061,1.26,0.18c0.376,0.119,0.708,0.285,0.996,0.5
					c0.287,0.213,0.528,0.463,0.725,0.754c0.196,0.289,0.346,0.607,0.446,0.951L177.93,124.198z"/>
				<path d="M186.419,131.878c-0.555,0-1.053-0.072-1.494-0.219c-0.439-0.146-0.83-0.344-1.168-0.596s-0.625-0.549-0.865-0.891
					c-0.238-0.344-0.436-0.713-0.586-1.107s-0.262-0.807-0.33-1.236c-0.07-0.428-0.104-0.855-0.104-1.281
					c0-0.422,0.033-0.846,0.104-1.275c0.068-0.43,0.18-0.842,0.33-1.236s0.348-0.764,0.586-1.107
					c0.24-0.342,0.527-0.639,0.865-0.891s0.729-0.449,1.168-0.596c0.441-0.146,0.939-0.219,1.494-0.219
					c0.557,0,1.053,0.072,1.49,0.219c0.439,0.146,0.826,0.344,1.162,0.596c0.334,0.252,0.621,0.549,0.861,0.891
					c0.24,0.344,0.436,0.713,0.584,1.107c0.152,0.395,0.264,0.807,0.332,1.236c0.07,0.43,0.104,0.854,0.104,1.275
					c0,0.426-0.033,0.854-0.104,1.281c-0.068,0.43-0.18,0.842-0.332,1.236c-0.148,0.395-0.344,0.764-0.584,1.107
					c-0.24,0.342-0.527,0.639-0.861,0.891c-0.336,0.252-0.723,0.449-1.162,0.596C187.472,131.806,186.976,131.878,186.419,131.878z
					 M186.419,129.96c0.461,0,0.846-0.107,1.16-0.324c0.314-0.215,0.568-0.49,0.762-0.824c0.195-0.336,0.334-0.703,0.42-1.104
					s0.129-0.787,0.129-1.16c0-0.264-0.016-0.531-0.053-0.801c-0.037-0.271-0.094-0.533-0.176-0.783
					c-0.082-0.252-0.188-0.49-0.316-0.711c-0.129-0.223-0.285-0.418-0.467-0.582c-0.182-0.166-0.395-0.297-0.635-0.393
					c-0.242-0.096-0.518-0.145-0.824-0.145c-0.311,0-0.588,0.051-0.83,0.152c-0.242,0.1-0.455,0.234-0.639,0.406
					c-0.186,0.17-0.342,0.367-0.471,0.592s-0.234,0.465-0.316,0.719c-0.08,0.254-0.141,0.512-0.176,0.775s-0.055,0.52-0.055,0.77
					c0,0.393,0.045,0.791,0.131,1.195c0.084,0.404,0.225,0.771,0.42,1.1c0.193,0.328,0.449,0.596,0.766,0.805
					C185.563,129.856,185.954,129.96,186.419,129.96z"/>
				<path d="M199.675,131.698l-4.088-6.006c-0.066-0.102-0.141-0.225-0.219-0.369c-0.08-0.146-0.146-0.281-0.205-0.406
					c0.014,0.109,0.025,0.24,0.031,0.389c0.008,0.146,0.012,0.277,0.012,0.387v6.006h-1.977v-10.303h1.869l3.988,5.934
					c0.062,0.096,0.133,0.217,0.215,0.361c0.082,0.143,0.152,0.281,0.215,0.416c-0.014-0.139-0.025-0.279-0.031-0.42
					c-0.008-0.141-0.012-0.262-0.012-0.357v-5.934h1.969v10.303H199.675z"/>
				<path d="M213.661,131.698v-10.303h1.99v8.393h4.973v1.91H213.661z"/>
			</g>
			<polygon fill="#545454" points="219.522,133.362 218.688,133.362 215.491,141.841 207.526,120.765 202.776,133.364 
				143.891,134.257 202.897,135.151 204.159,135.151 207.526,126.222 215.491,147.298 220.077,135.134 228.288,134.249 			"/>
		</g>
		<g>
			<g>
				<path fill="#E5E5E5" d="M26.229,138.718v7.949h-1.88v-7.949h-2.792v-1.818h7.465v1.818H26.229z"/>
				<path fill="#E5E5E5" d="M30.94,146.667v-9.768h4.536c0.618,0,1.135,0.086,1.549,0.256c0.417,0.17,0.751,0.396,1.006,0.678
					c0.254,0.281,0.436,0.605,0.545,0.975c0.108,0.367,0.164,0.75,0.164,1.15c0,0.277-0.041,0.557-0.121,0.842
					c-0.079,0.283-0.197,0.553-0.356,0.807s-0.357,0.484-0.593,0.691c-0.236,0.207-0.512,0.367-0.824,0.48l1.895,3.889h-2.118
					l-1.825-3.645h-1.97v3.645H30.94z M35.504,141.237c0.24,0,0.443-0.035,0.605-0.105c0.164-0.07,0.296-0.164,0.396-0.281
					c0.101-0.117,0.172-0.254,0.215-0.408c0.042-0.154,0.065-0.316,0.065-0.484c0-0.154-0.02-0.309-0.059-0.459
					c-0.039-0.154-0.104-0.289-0.201-0.41c-0.095-0.119-0.226-0.217-0.392-0.289c-0.165-0.072-0.376-0.109-0.63-0.109h-2.677v2.547
					H35.504z"/>
				<path fill="#E5E5E5" d="M47.514,146.667l-0.756-2.023h-3.767l-0.749,2.023H40.22l3.738-9.768h1.84l3.738,9.768H47.514z
					 M45.185,140.388c-0.051-0.119-0.104-0.26-0.16-0.422c-0.057-0.164-0.105-0.316-0.146-0.457
					c-0.036,0.141-0.085,0.293-0.143,0.457c-0.06,0.162-0.113,0.303-0.163,0.422l-0.969,2.539h2.542L45.185,140.388z"/>
				<path fill="#E5E5E5" d="M51.493,146.667v-9.768h1.879v9.768H51.493z"/>
				<path fill="#E5E5E5" d="M62.063,146.667l-3.876-5.695c-0.062-0.096-0.133-0.211-0.206-0.35
					c-0.075-0.139-0.141-0.266-0.195-0.385c0.015,0.104,0.024,0.227,0.031,0.367c0.006,0.141,0.01,0.264,0.01,0.367v5.695h-1.873
					v-9.768h1.771l3.78,5.625c0.059,0.092,0.127,0.205,0.204,0.342c0.076,0.135,0.145,0.268,0.204,0.395
					c-0.014-0.131-0.023-0.264-0.03-0.398c-0.008-0.133-0.011-0.246-0.011-0.338v-5.625h1.866v9.768H62.063z"/>
				<path fill="#E5E5E5" d="M66.321,146.667v-9.768H68.2v9.768H66.321z"/>
				<path fill="#E5E5E5" d="M76.891,146.667l-3.876-5.695c-0.062-0.096-0.133-0.211-0.208-0.35
					c-0.074-0.139-0.139-0.266-0.193-0.385c0.014,0.104,0.024,0.227,0.03,0.367c0.008,0.141,0.011,0.264,0.011,0.367v5.695h-1.873
					v-9.768h1.771l3.78,5.625c0.059,0.092,0.126,0.205,0.205,0.342c0.076,0.135,0.145,0.268,0.204,0.395
					c-0.015-0.131-0.024-0.264-0.032-0.398c-0.005-0.133-0.009-0.246-0.009-0.338v-5.625h1.866v9.768H76.891z"/>
				<path fill="#E5E5E5" d="M84.912,146.837c-0.503,0-0.96-0.066-1.368-0.197c-0.409-0.133-0.771-0.312-1.09-0.545
					c-0.317-0.232-0.593-0.508-0.824-0.828s-0.422-0.666-0.572-1.037c-0.148-0.373-0.261-0.768-0.334-1.184
					c-0.072-0.414-0.108-0.836-0.108-1.262c0-0.396,0.038-0.795,0.112-1.199s0.191-0.795,0.348-1.168
					c0.156-0.375,0.352-0.727,0.586-1.053c0.233-0.326,0.511-0.611,0.831-0.852c0.319-0.24,0.681-0.43,1.082-0.568
					s0.849-0.209,1.338-0.209c0.474,0,0.889,0.061,1.251,0.178c0.36,0.119,0.681,0.273,0.96,0.467s0.522,0.416,0.729,0.668
					c0.206,0.252,0.393,0.512,0.562,0.779l-1.663,0.947c-0.108-0.164-0.226-0.318-0.354-0.467c-0.127-0.148-0.264-0.277-0.412-0.391
					c-0.147-0.115-0.31-0.205-0.486-0.271c-0.178-0.064-0.373-0.098-0.587-0.098c-0.304,0-0.571,0.047-0.803,0.141
					c-0.231,0.092-0.435,0.221-0.609,0.381c-0.176,0.16-0.322,0.348-0.439,0.562c-0.118,0.213-0.214,0.439-0.286,0.68
					c-0.073,0.242-0.125,0.488-0.156,0.74c-0.032,0.25-0.049,0.494-0.049,0.732c0,0.412,0.044,0.812,0.13,1.201
					c0.087,0.389,0.224,0.732,0.412,1.035s0.432,0.545,0.729,0.725c0.297,0.184,0.654,0.273,1.071,0.273
					c0.235,0,0.458-0.043,0.665-0.127c0.206-0.084,0.387-0.197,0.541-0.34s0.276-0.312,0.364-0.508
					c0.089-0.195,0.133-0.404,0.133-0.627v-0.082h-1.661v-1.789h3.583v1.436c0,0.627-0.094,1.18-0.28,1.658
					c-0.187,0.48-0.441,0.883-0.766,1.207c-0.325,0.324-0.708,0.57-1.148,0.738C85.903,146.753,85.427,146.837,84.912,146.837z"/>
			</g>
			<g>
				<path fill="#E5E5E5" d="M21.557,131.698v-10.301h4.418c0.652,0,1.199,0.094,1.646,0.283c0.444,0.189,0.806,0.438,1.085,0.746
					c0.277,0.311,0.478,0.658,0.6,1.047c0.122,0.387,0.184,0.779,0.184,1.178c0,0.248-0.029,0.5-0.086,0.758
					c-0.058,0.256-0.146,0.506-0.266,0.746c-0.121,0.244-0.273,0.469-0.46,0.68s-0.411,0.396-0.672,0.557
					c-0.262,0.162-0.561,0.287-0.898,0.377c-0.337,0.092-0.714,0.137-1.132,0.137h-2.428v3.793H21.557z M26.062,126.017
					c0.253,0,0.466-0.041,0.64-0.123c0.172-0.08,0.312-0.186,0.419-0.314c0.108-0.131,0.186-0.277,0.233-0.439
					c0.048-0.164,0.072-0.326,0.072-0.488c0-0.148-0.02-0.303-0.061-0.463s-0.113-0.309-0.215-0.443
					c-0.104-0.133-0.244-0.244-0.422-0.33c-0.176-0.086-0.4-0.129-0.667-0.129h-2.515v2.73H26.062z"/>
				<path fill="#E5E5E5" d="M31.102,131.698v-10.301h7.033v1.889h-5.043v2.162h2.967v1.883h-2.967v2.486h5.352v1.881H31.102z"/>
				<path fill="#E5E5E5" d="M40.578,131.698v-10.301h4.784c0.652,0,1.197,0.088,1.636,0.27c0.438,0.18,0.791,0.416,1.06,0.713
					c0.269,0.299,0.459,0.641,0.574,1.027c0.115,0.389,0.173,0.793,0.173,1.215c0,0.293-0.042,0.588-0.126,0.887
					c-0.084,0.301-0.21,0.584-0.377,0.854c-0.168,0.268-0.377,0.51-0.625,0.729c-0.25,0.219-0.539,0.387-0.869,0.506l1.997,4.102
					H46.57l-1.926-3.844h-2.076v3.844H40.578z M45.393,125.974c0.253,0,0.467-0.037,0.639-0.111s0.312-0.174,0.416-0.299
					c0.106-0.123,0.182-0.268,0.228-0.432c0.045-0.162,0.067-0.332,0.067-0.51c0-0.162-0.021-0.324-0.061-0.484
					s-0.111-0.305-0.212-0.432s-0.239-0.229-0.413-0.305c-0.175-0.076-0.397-0.115-0.664-0.115h-2.824v2.688H45.393z"/>
				<path fill="#E5E5E5" d="M56.114,124.198c-0.063-0.152-0.147-0.297-0.252-0.432c-0.106-0.133-0.231-0.25-0.378-0.348
					c-0.146-0.098-0.313-0.174-0.503-0.229c-0.188-0.057-0.398-0.084-0.628-0.084c-0.432,0-0.769,0.086-1.01,0.26
					c-0.242,0.172-0.363,0.412-0.363,0.725c0,0.205,0.077,0.379,0.23,0.518c0.152,0.139,0.354,0.266,0.603,0.377
					c0.249,0.113,0.533,0.219,0.852,0.32c0.319,0.1,0.646,0.211,0.981,0.334c0.335,0.121,0.661,0.266,0.98,0.43
					c0.318,0.166,0.603,0.369,0.852,0.611s0.45,0.529,0.604,0.863c0.153,0.332,0.229,0.73,0.229,1.195
					c0,0.502-0.096,0.947-0.287,1.336c-0.192,0.389-0.454,0.717-0.786,0.984c-0.334,0.27-0.728,0.471-1.184,0.611
					c-0.454,0.139-0.945,0.209-1.472,0.209c-0.483,0-0.937-0.066-1.358-0.199c-0.422-0.131-0.804-0.318-1.145-0.564
					c-0.344-0.242-0.642-0.539-0.896-0.889c-0.254-0.352-0.455-0.744-0.603-1.178l1.81-0.678c0.11,0.24,0.243,0.459,0.398,0.658
					c0.156,0.199,0.329,0.369,0.521,0.51c0.191,0.141,0.398,0.252,0.621,0.33c0.223,0.08,0.461,0.119,0.715,0.119
					c0.249,0,0.477-0.027,0.68-0.078c0.203-0.055,0.378-0.133,0.524-0.238c0.146-0.105,0.259-0.234,0.337-0.391
					c0.079-0.156,0.118-0.336,0.118-0.543c0-0.25-0.076-0.459-0.229-0.629s-0.354-0.318-0.604-0.445
					c-0.249-0.127-0.533-0.242-0.852-0.346c-0.318-0.102-0.645-0.211-0.977-0.326c-0.334-0.115-0.659-0.25-0.978-0.402
					s-0.603-0.342-0.852-0.566c-0.249-0.227-0.449-0.496-0.603-0.812c-0.154-0.316-0.23-0.699-0.23-1.15
					c0-0.387,0.078-0.752,0.233-1.096c0.155-0.342,0.382-0.643,0.679-0.9c0.297-0.26,0.661-0.465,1.093-0.615
					s0.925-0.227,1.48-0.227c0.464,0,0.885,0.061,1.26,0.18c0.376,0.121,0.708,0.287,0.996,0.5c0.286,0.213,0.528,0.465,0.725,0.754
					s0.346,0.607,0.446,0.951L56.114,124.198z"/>
				<path fill="#E5E5E5" d="M64.604,131.88c-0.556,0-1.055-0.074-1.495-0.221c-0.439-0.145-0.828-0.344-1.167-0.596
					c-0.337-0.252-0.626-0.549-0.865-0.891c-0.239-0.344-0.435-0.713-0.585-1.107c-0.151-0.395-0.263-0.807-0.331-1.234
					c-0.07-0.43-0.104-0.857-0.104-1.283c0-0.422,0.034-0.846,0.104-1.275c0.068-0.428,0.18-0.84,0.331-1.236
					c0.15-0.395,0.346-0.764,0.585-1.105s0.528-0.639,0.865-0.891c0.339-0.252,0.728-0.451,1.167-0.598
					c0.44-0.145,0.939-0.219,1.495-0.219s1.053,0.074,1.491,0.219c0.438,0.146,0.824,0.346,1.161,0.598
					c0.334,0.252,0.621,0.549,0.861,0.891c0.239,0.342,0.435,0.711,0.585,1.105c0.15,0.396,0.261,0.809,0.33,1.236
					c0.07,0.43,0.104,0.854,0.104,1.275c0,0.426-0.034,0.854-0.104,1.283c-0.069,0.428-0.18,0.84-0.33,1.234
					s-0.346,0.764-0.585,1.107c-0.24,0.342-0.527,0.639-0.861,0.891c-0.337,0.252-0.723,0.451-1.161,0.596
					C65.656,131.806,65.159,131.88,64.604,131.88z M64.604,129.96c0.46,0,0.847-0.107,1.16-0.322s0.568-0.49,0.762-0.826
					c0.194-0.336,0.334-0.703,0.42-1.104c0.086-0.398,0.129-0.787,0.129-1.16c0-0.264-0.017-0.529-0.054-0.801
					c-0.035-0.271-0.094-0.531-0.176-0.783c-0.081-0.252-0.187-0.488-0.315-0.711c-0.13-0.223-0.285-0.416-0.468-0.582
					c-0.182-0.166-0.394-0.297-0.635-0.393c-0.243-0.096-0.517-0.145-0.823-0.145c-0.312,0-0.588,0.053-0.829,0.152
					c-0.242,0.1-0.456,0.236-0.641,0.406c-0.184,0.17-0.341,0.367-0.47,0.592c-0.13,0.225-0.235,0.465-0.316,0.719
					s-0.14,0.514-0.176,0.777c-0.037,0.262-0.055,0.52-0.055,0.768c0,0.393,0.044,0.793,0.13,1.195
					c0.086,0.406,0.226,0.771,0.42,1.1c0.194,0.33,0.449,0.598,0.767,0.805C63.748,129.856,64.139,129.96,64.604,129.96z"/>
				<path fill="#E5E5E5" d="M77.858,131.698l-4.087-6.006c-0.067-0.1-0.142-0.225-0.22-0.369c-0.079-0.146-0.146-0.281-0.205-0.406
					c0.015,0.109,0.026,0.24,0.032,0.389c0.008,0.148,0.011,0.277,0.011,0.387v6.006h-1.976v-10.301h1.868l3.988,5.934
					c0.062,0.096,0.133,0.215,0.215,0.359s0.153,0.281,0.216,0.416c-0.014-0.139-0.025-0.277-0.032-0.42
					c-0.008-0.141-0.012-0.26-0.012-0.355v-5.934h1.97v10.301H77.858z"/>
				<path fill="#E5E5E5" d="M91.845,131.698v-10.301h1.991v8.391h4.972v1.91H91.845z"/>
			</g>
			<polygon fill="#E5E5E5" points="97.707,133.362 96.872,133.362 93.675,141.841 85.712,120.765 80.961,133.364 22.076,134.257 
				81.083,135.151 82.345,135.151 85.712,126.222 93.675,147.298 98.262,135.134 106.473,134.249 			"/>
		</g>
		<g>
			<g>
				<path fill="#202020" d="M26.229,193.944v7.949h-1.88v-7.949h-2.793v-1.818h7.466v1.818H26.229z"/>
				<path fill="#202020" d="M30.939,201.894v-9.768h4.537c0.618,0,1.134,0.086,1.549,0.256c0.417,0.17,0.751,0.396,1.004,0.676
					c0.256,0.283,0.438,0.607,0.547,0.977c0.108,0.367,0.163,0.75,0.163,1.15c0,0.277-0.04,0.557-0.12,0.842
					c-0.079,0.283-0.197,0.551-0.356,0.805c-0.159,0.256-0.357,0.486-0.593,0.691c-0.236,0.207-0.512,0.367-0.824,0.48l1.894,3.891
					h-2.118l-1.826-3.645h-1.967v3.645H30.939z M35.504,196.464c0.24,0,0.442-0.035,0.605-0.105c0.164-0.07,0.296-0.164,0.396-0.281
					c0.101-0.119,0.172-0.254,0.215-0.41c0.042-0.154,0.064-0.314,0.064-0.482c0-0.154-0.02-0.309-0.058-0.461
					c-0.039-0.152-0.105-0.289-0.201-0.408c-0.096-0.121-0.227-0.217-0.392-0.289s-0.376-0.109-0.63-0.109h-2.676v2.547H35.504z"/>
				<path fill="#202020" d="M47.514,201.894l-0.756-2.023h-3.767l-0.749,2.023H40.22l3.738-9.768h1.839l3.739,9.768H47.514z
					 M45.185,195.612c-0.051-0.117-0.104-0.258-0.161-0.422c-0.056-0.164-0.105-0.314-0.146-0.457
					c-0.036,0.143-0.085,0.293-0.143,0.457c-0.061,0.164-0.113,0.305-0.164,0.422l-0.968,2.541h2.542L45.185,195.612z"/>
				<path fill="#202020" d="M51.493,201.894v-9.768h1.879v9.768H51.493z"/>
				<path fill="#202020" d="M62.063,201.894l-3.876-5.695c-0.062-0.096-0.133-0.213-0.207-0.35c-0.074-0.139-0.14-0.268-0.194-0.385
					c0.015,0.104,0.024,0.227,0.031,0.367c0.006,0.141,0.01,0.264,0.01,0.367v5.695h-1.873v-9.768h1.771l3.78,5.625
					c0.059,0.092,0.127,0.205,0.204,0.34c0.077,0.137,0.146,0.27,0.205,0.396c-0.014-0.133-0.024-0.264-0.031-0.398
					c-0.007-0.133-0.011-0.246-0.011-0.338v-5.625h1.867v9.768H62.063z"/>
				<path fill="#202020" d="M66.32,201.894v-9.768h1.88v9.768H66.32z"/>
				<path fill="#202020" d="M76.89,201.894l-3.875-5.695c-0.062-0.096-0.133-0.213-0.208-0.35c-0.075-0.139-0.139-0.268-0.193-0.385
					c0.014,0.104,0.023,0.227,0.03,0.367c0.008,0.141,0.011,0.264,0.011,0.367v5.695H70.78v-9.768h1.771l3.781,5.625
					c0.059,0.092,0.126,0.205,0.204,0.34c0.077,0.137,0.145,0.27,0.205,0.396c-0.015-0.133-0.024-0.264-0.032-0.398
					c-0.006-0.133-0.01-0.246-0.01-0.338v-5.625h1.866v9.768H76.89z"/>
				<path fill="#202020" d="M84.912,202.063c-0.503,0-0.96-0.066-1.369-0.197c-0.408-0.133-0.771-0.314-1.089-0.545
					c-0.317-0.232-0.593-0.508-0.824-0.828s-0.423-0.666-0.572-1.039c-0.149-0.371-0.261-0.766-0.334-1.182
					c-0.072-0.416-0.108-0.836-0.108-1.264c0-0.395,0.038-0.795,0.111-1.199c0.075-0.404,0.191-0.793,0.349-1.166
					c0.155-0.377,0.352-0.727,0.585-1.053c0.233-0.328,0.511-0.611,0.831-0.852s0.682-0.43,1.083-0.57
					c0.401-0.137,0.848-0.207,1.338-0.207c0.473,0,0.889,0.059,1.25,0.178c0.361,0.117,0.682,0.273,0.96,0.467
					c0.28,0.193,0.522,0.416,0.729,0.666c0.206,0.252,0.394,0.514,0.562,0.781l-1.662,0.947c-0.108-0.164-0.227-0.32-0.354-0.469
					c-0.127-0.146-0.265-0.275-0.413-0.391c-0.146-0.113-0.31-0.203-0.486-0.27c-0.177-0.064-0.372-0.098-0.586-0.098
					c-0.304,0-0.572,0.045-0.804,0.139s-0.435,0.221-0.609,0.381c-0.175,0.162-0.321,0.35-0.439,0.562
					c-0.117,0.213-0.213,0.441-0.286,0.682c-0.072,0.24-0.125,0.488-0.156,0.738c-0.031,0.252-0.048,0.496-0.048,0.732
					c0,0.414,0.044,0.814,0.129,1.203c0.087,0.389,0.224,0.732,0.412,1.035s0.433,0.543,0.73,0.725
					c0.297,0.182,0.654,0.273,1.071,0.273c0.235,0,0.458-0.043,0.665-0.127c0.205-0.084,0.386-0.197,0.541-0.34
					c0.154-0.143,0.275-0.312,0.364-0.508s0.133-0.404,0.133-0.627v-0.082h-1.661v-1.791h3.582v1.438
					c0,0.627-0.094,1.18-0.279,1.658c-0.187,0.48-0.441,0.883-0.767,1.205c-0.325,0.324-0.707,0.572-1.148,0.74
					C85.902,201.979,85.426,202.063,84.912,202.063z"/>
			</g>
			<g>
				<path fill="#202020" d="M21.556,186.925v-10.303h4.419c0.652,0,1.2,0.096,1.646,0.285c0.443,0.188,0.806,0.438,1.084,0.746
					c0.277,0.309,0.478,0.658,0.6,1.045c0.123,0.389,0.184,0.781,0.184,1.18c0,0.248-0.029,0.5-0.086,0.758
					c-0.059,0.256-0.146,0.506-0.266,0.746c-0.12,0.242-0.273,0.469-0.461,0.68c-0.187,0.211-0.41,0.396-0.672,0.557
					s-0.559,0.287-0.897,0.377c-0.338,0.092-0.715,0.137-1.132,0.137h-2.428v3.793H21.556z M26.062,181.241
					c0.253,0,0.467-0.041,0.64-0.121c0.172-0.082,0.312-0.188,0.42-0.316s0.186-0.275,0.232-0.438
					c0.049-0.164,0.072-0.326,0.072-0.488c0-0.15-0.021-0.303-0.061-0.465c-0.041-0.16-0.113-0.307-0.216-0.441
					c-0.103-0.133-0.243-0.244-0.421-0.33c-0.177-0.086-0.4-0.129-0.667-0.129h-2.515v2.729H26.062z"/>
				<path fill="#202020" d="M31.102,186.925v-10.303h7.033v1.891h-5.043v2.162h2.967v1.883h-2.967v2.486h5.352v1.881H31.102z"/>
				<path fill="#202020" d="M40.578,186.925v-10.303h4.784c0.652,0,1.197,0.09,1.635,0.27c0.438,0.182,0.792,0.418,1.06,0.715
					c0.269,0.297,0.46,0.641,0.575,1.027c0.115,0.389,0.173,0.793,0.173,1.215c0,0.293-0.043,0.588-0.127,0.887
					c-0.083,0.301-0.209,0.584-0.377,0.852c-0.168,0.27-0.376,0.512-0.625,0.73c-0.249,0.217-0.538,0.387-0.869,0.506l1.998,4.102
					h-2.235l-1.925-3.844h-2.076v3.844H40.578z M45.392,181.2c0.254,0,0.467-0.037,0.64-0.113c0.172-0.074,0.312-0.172,0.416-0.297
					c0.105-0.123,0.182-0.268,0.228-0.432c0.045-0.162,0.067-0.332,0.067-0.51c0-0.162-0.021-0.324-0.062-0.484
					c-0.04-0.16-0.111-0.305-0.212-0.432c-0.1-0.127-0.238-0.229-0.413-0.307c-0.174-0.076-0.396-0.113-0.664-0.113h-2.823v2.688
					H45.392z"/>
				<path fill="#202020" d="M56.113,179.425c-0.063-0.154-0.146-0.297-0.252-0.432c-0.105-0.133-0.23-0.25-0.377-0.348
					c-0.146-0.1-0.313-0.176-0.503-0.23s-0.398-0.082-0.628-0.082c-0.432,0-0.769,0.086-1.011,0.258
					c-0.241,0.174-0.362,0.414-0.362,0.727c0,0.205,0.076,0.379,0.23,0.516c0.152,0.141,0.354,0.266,0.603,0.379
					c0.249,0.113,0.533,0.219,0.852,0.318c0.318,0.102,0.646,0.213,0.981,0.334c0.335,0.123,0.661,0.266,0.98,0.432
					c0.318,0.166,0.603,0.369,0.851,0.611c0.25,0.242,0.451,0.529,0.604,0.861c0.153,0.334,0.229,0.732,0.229,1.197
					c0,0.502-0.096,0.947-0.287,1.336c-0.192,0.387-0.454,0.717-0.787,0.984s-0.727,0.471-1.183,0.611
					c-0.454,0.137-0.945,0.207-1.472,0.207c-0.484,0-0.938-0.064-1.358-0.197c-0.422-0.131-0.804-0.32-1.146-0.564
					c-0.343-0.244-0.641-0.541-0.895-0.891s-0.455-0.742-0.604-1.178l1.811-0.676c0.109,0.24,0.243,0.459,0.398,0.658
					c0.156,0.199,0.329,0.369,0.521,0.51c0.192,0.141,0.399,0.252,0.621,0.33c0.224,0.08,0.461,0.119,0.716,0.119
					c0.249,0,0.476-0.027,0.679-0.08c0.204-0.053,0.379-0.131,0.525-0.236c0.146-0.105,0.258-0.236,0.336-0.391
					c0.08-0.156,0.119-0.336,0.119-0.543c0-0.25-0.076-0.459-0.229-0.629s-0.354-0.318-0.604-0.445
					c-0.248-0.127-0.532-0.242-0.851-0.346c-0.319-0.102-0.645-0.211-0.977-0.326c-0.334-0.115-0.66-0.25-0.978-0.402
					c-0.319-0.152-0.603-0.344-0.852-0.568s-0.45-0.494-0.604-0.811s-0.229-0.701-0.229-1.15c0-0.389,0.078-0.754,0.233-1.096
					s0.382-0.643,0.679-0.9c0.297-0.26,0.661-0.465,1.093-0.615c0.431-0.15,0.924-0.227,1.479-0.227c0.465,0,0.886,0.061,1.261,0.18
					c0.376,0.119,0.708,0.287,0.995,0.498c0.287,0.215,0.529,0.467,0.726,0.756s0.345,0.607,0.445,0.951L56.113,179.425z"/>
				<path fill="#202020" d="M64.604,187.104c-0.557,0-1.055-0.072-1.495-0.219c-0.439-0.145-0.829-0.346-1.167-0.596
					c-0.338-0.252-0.626-0.549-0.866-0.891c-0.239-0.344-0.435-0.713-0.585-1.107s-0.262-0.807-0.33-1.234
					c-0.07-0.43-0.104-0.857-0.104-1.283c0-0.422,0.034-0.848,0.104-1.275c0.068-0.43,0.18-0.842,0.33-1.236
					s0.346-0.764,0.585-1.105c0.24-0.342,0.528-0.641,0.866-0.893s0.728-0.449,1.167-0.596c0.44-0.146,0.938-0.219,1.495-0.219
					c0.555,0,1.053,0.072,1.49,0.219c0.438,0.146,0.825,0.344,1.161,0.596c0.335,0.252,0.622,0.551,0.861,0.893
					c0.24,0.342,0.435,0.711,0.586,1.105c0.15,0.395,0.261,0.807,0.33,1.236c0.069,0.428,0.104,0.854,0.104,1.275
					c0,0.426-0.035,0.854-0.104,1.283c-0.069,0.428-0.18,0.84-0.33,1.234c-0.151,0.395-0.346,0.764-0.586,1.107
					c-0.239,0.342-0.526,0.639-0.861,0.891c-0.336,0.25-0.723,0.451-1.161,0.596C65.656,187.032,65.158,187.104,64.604,187.104z
					 M64.604,185.187c0.46,0,0.846-0.107,1.159-0.322c0.314-0.217,0.568-0.492,0.762-0.828c0.195-0.334,0.335-0.701,0.421-1.102
					s0.129-0.787,0.129-1.16c0-0.264-0.018-0.531-0.054-0.803c-0.035-0.27-0.095-0.529-0.176-0.781
					c-0.082-0.252-0.187-0.49-0.316-0.711c-0.129-0.223-0.285-0.418-0.467-0.582c-0.182-0.166-0.394-0.297-0.636-0.393
					s-0.516-0.145-0.822-0.145c-0.312,0-0.588,0.051-0.83,0.152c-0.242,0.1-0.455,0.236-0.64,0.406
					c-0.184,0.17-0.342,0.367-0.47,0.592c-0.13,0.225-0.235,0.465-0.316,0.719c-0.082,0.254-0.141,0.512-0.177,0.775
					s-0.054,0.52-0.054,0.77c0,0.393,0.044,0.791,0.13,1.195c0.086,0.406,0.226,0.771,0.42,1.1s0.449,0.598,0.766,0.805
					C63.748,185.083,64.139,185.187,64.604,185.187z"/>
				<path fill="#202020" d="M77.858,186.925l-4.088-6.006c-0.067-0.1-0.141-0.225-0.219-0.371c-0.079-0.145-0.146-0.279-0.205-0.404
					c0.015,0.109,0.025,0.24,0.032,0.387c0.008,0.148,0.011,0.279,0.011,0.389v6.006h-1.976v-10.303h1.868l3.988,5.936
					c0.062,0.096,0.133,0.215,0.215,0.359c0.082,0.143,0.152,0.281,0.216,0.416c-0.015-0.139-0.025-0.279-0.032-0.42
					c-0.008-0.141-0.012-0.26-0.012-0.355v-5.936h1.969v10.303H77.858z"/>
				<path fill="#202020" d="M91.845,186.925v-10.303h1.99v8.393h4.972v1.91H91.845z"/>
			</g>
			<polygon fill="#202020" points="97.706,188.589 96.872,188.589 93.675,197.067 85.711,175.991 80.961,188.591 22.075,189.483 
				81.083,190.378 82.344,190.378 85.711,181.448 93.675,202.524 98.262,190.36 106.472,189.476 			"/>
		</g>
		<g>
			<g>
				<path fill="#F3F2F2" d="M148.04,193.944v7.949h-1.881v-7.949h-2.792v-1.818h7.465v1.818H148.04z"/>
				<path fill="#F3F2F2" d="M152.752,201.894v-9.768h4.536c0.618,0,1.135,0.086,1.55,0.256s0.75,0.396,1.004,0.676
					c0.255,0.283,0.436,0.607,0.546,0.975c0.107,0.369,0.163,0.752,0.163,1.152c0,0.277-0.04,0.557-0.119,0.84
					c-0.079,0.285-0.198,0.553-0.357,0.807c-0.159,0.256-0.357,0.486-0.593,0.691c-0.236,0.207-0.511,0.367-0.824,0.48l1.894,3.891
					h-2.118l-1.825-3.645h-1.969v3.645H152.752z M157.315,196.464c0.24,0,0.442-0.035,0.605-0.105
					c0.165-0.07,0.296-0.164,0.396-0.283c0.099-0.117,0.17-0.252,0.214-0.408c0.043-0.154,0.064-0.314,0.064-0.482
					c0-0.154-0.02-0.309-0.058-0.461s-0.105-0.289-0.201-0.408c-0.096-0.121-0.226-0.217-0.392-0.289
					c-0.165-0.072-0.376-0.109-0.63-0.109h-2.677v2.547H157.315z"/>
				<path fill="#F3F2F2" d="M169.325,201.894l-0.756-2.023h-3.767l-0.749,2.023h-2.022l3.738-9.768h1.839l3.739,9.768H169.325z
					 M166.997,195.612c-0.052-0.117-0.104-0.258-0.161-0.422s-0.105-0.314-0.146-0.457c-0.036,0.143-0.084,0.293-0.144,0.457
					c-0.059,0.164-0.112,0.305-0.163,0.422l-0.967,2.541h2.541L166.997,195.612z"/>
				<path fill="#F3F2F2" d="M173.306,201.894v-9.768h1.879v9.768H173.306z"/>
				<path fill="#F3F2F2" d="M183.876,201.894L180,196.198c-0.063-0.096-0.133-0.213-0.208-0.35c-0.075-0.139-0.14-0.268-0.194-0.385
					c0.015,0.104,0.024,0.227,0.031,0.367s0.01,0.264,0.01,0.367v5.695h-1.873v-9.768h1.771l3.781,5.625
					c0.059,0.092,0.127,0.205,0.203,0.34c0.078,0.137,0.146,0.27,0.205,0.396c-0.014-0.133-0.023-0.264-0.031-0.398
					c-0.006-0.133-0.01-0.246-0.01-0.338v-5.625h1.867v9.768H183.876z"/>
				<path fill="#F3F2F2" d="M188.134,201.894v-9.768h1.879v9.768H188.134z"/>
				<path fill="#F3F2F2" d="M198.702,201.894l-3.875-5.695c-0.062-0.096-0.133-0.213-0.207-0.35
					c-0.076-0.139-0.141-0.268-0.195-0.385c0.014,0.104,0.023,0.227,0.031,0.367s0.01,0.264,0.01,0.367v5.695h-1.873v-9.768h1.771
					l3.779,5.625c0.059,0.092,0.127,0.205,0.205,0.34c0.076,0.137,0.145,0.27,0.205,0.396c-0.014-0.133-0.025-0.264-0.031-0.398
					c-0.008-0.133-0.012-0.246-0.012-0.338v-5.625h1.867v9.768H198.702z"/>
				<path fill="#F3F2F2" d="M206.724,202.063c-0.504,0-0.959-0.066-1.369-0.197c-0.408-0.133-0.77-0.314-1.088-0.545
					c-0.318-0.232-0.594-0.508-0.824-0.828c-0.232-0.32-0.422-0.666-0.572-1.039s-0.262-0.766-0.334-1.182s-0.109-0.836-0.109-1.264
					c0-0.396,0.037-0.795,0.111-1.199c0.076-0.404,0.191-0.793,0.348-1.168c0.158-0.375,0.352-0.725,0.586-1.053
					c0.234-0.326,0.512-0.609,0.832-0.85s0.68-0.43,1.082-0.57c0.402-0.137,0.848-0.207,1.338-0.207c0.473,0,0.889,0.059,1.25,0.178
					c0.361,0.117,0.682,0.273,0.961,0.467s0.523,0.416,0.729,0.666c0.207,0.252,0.395,0.514,0.562,0.781l-1.662,0.945
					c-0.109-0.162-0.227-0.318-0.354-0.467c-0.127-0.146-0.266-0.277-0.414-0.391c-0.146-0.113-0.309-0.203-0.486-0.27
					c-0.176-0.064-0.371-0.098-0.586-0.098c-0.303,0-0.57,0.045-0.803,0.139s-0.436,0.221-0.609,0.381
					c-0.176,0.162-0.32,0.35-0.439,0.562c-0.117,0.213-0.213,0.441-0.287,0.682c-0.072,0.24-0.123,0.486-0.156,0.738
					c-0.031,0.252-0.047,0.496-0.047,0.732c0,0.412,0.043,0.814,0.129,1.203c0.088,0.389,0.225,0.732,0.412,1.035
					c0.188,0.301,0.432,0.543,0.729,0.725c0.299,0.182,0.656,0.273,1.072,0.273c0.236,0,0.459-0.043,0.666-0.127
					c0.205-0.084,0.387-0.197,0.541-0.34s0.275-0.312,0.363-0.508c0.09-0.195,0.133-0.404,0.133-0.627v-0.082h-1.662v-1.791h3.584
					v1.438c0,0.627-0.094,1.18-0.279,1.658c-0.188,0.48-0.441,0.881-0.768,1.205c-0.324,0.324-0.707,0.572-1.146,0.74
					C207.714,201.979,207.237,202.063,206.724,202.063z"/>
			</g>
			<g>
				<path fill="#F3F2F2" d="M143.367,186.925v-10.303h4.419c0.651,0,1.2,0.096,1.646,0.285c0.445,0.188,0.807,0.438,1.084,0.746
					c0.278,0.309,0.479,0.658,0.601,1.045c0.122,0.389,0.184,0.781,0.184,1.178c0,0.25-0.029,0.502-0.087,0.76
					c-0.057,0.256-0.146,0.506-0.266,0.746c-0.119,0.242-0.272,0.469-0.46,0.68c-0.186,0.211-0.41,0.396-0.671,0.557
					c-0.262,0.16-0.561,0.287-0.898,0.377c-0.338,0.092-0.715,0.137-1.132,0.137h-2.428v3.793H143.367z M147.873,181.241
					c0.254,0,0.467-0.041,0.64-0.121c0.172-0.082,0.312-0.188,0.42-0.316c0.107-0.129,0.186-0.275,0.232-0.438
					c0.048-0.164,0.073-0.326,0.073-0.49c0-0.148-0.021-0.301-0.062-0.463c-0.04-0.16-0.112-0.307-0.215-0.441
					c-0.103-0.133-0.243-0.244-0.421-0.33c-0.176-0.086-0.399-0.129-0.667-0.129h-2.515v2.729H147.873z"/>
				<path fill="#F3F2F2" d="M152.913,186.925v-10.303h7.034v1.891h-5.044v2.162h2.967v1.881h-2.967v2.488h5.353v1.881H152.913z"/>
				<path fill="#F3F2F2" d="M162.39,186.925v-10.303h4.785c0.651,0,1.196,0.09,1.634,0.27c0.438,0.18,0.792,0.418,1.06,0.715
					c0.269,0.297,0.461,0.641,0.575,1.027c0.115,0.389,0.172,0.793,0.172,1.215c0,0.293-0.042,0.588-0.125,0.887
					c-0.084,0.301-0.21,0.584-0.377,0.852c-0.168,0.27-0.376,0.512-0.625,0.729c-0.25,0.219-0.539,0.389-0.87,0.508l1.997,4.102
					h-2.233l-1.926-3.844h-2.076v3.844H162.39z M167.203,181.2c0.254,0,0.467-0.037,0.64-0.113c0.173-0.074,0.311-0.172,0.416-0.297
					s0.181-0.268,0.228-0.432c0.045-0.162,0.067-0.332,0.067-0.51c0-0.164-0.021-0.324-0.062-0.484
					c-0.04-0.162-0.11-0.305-0.211-0.432s-0.239-0.229-0.414-0.307c-0.175-0.076-0.396-0.113-0.664-0.113h-2.823v2.688H167.203z"/>
				<path fill="#F3F2F2" d="M177.925,179.425c-0.062-0.154-0.146-0.297-0.251-0.432c-0.105-0.133-0.231-0.25-0.378-0.348
					c-0.146-0.1-0.313-0.176-0.503-0.23c-0.188-0.055-0.398-0.082-0.629-0.082c-0.431,0-0.768,0.086-1.01,0.258
					c-0.241,0.172-0.362,0.414-0.362,0.727c0,0.205,0.076,0.377,0.229,0.516c0.153,0.141,0.355,0.266,0.604,0.379
					c0.249,0.111,0.532,0.219,0.851,0.318c0.319,0.102,0.646,0.213,0.981,0.334c0.335,0.123,0.662,0.266,0.98,0.432
					s0.603,0.369,0.852,0.611s0.45,0.529,0.604,0.861c0.153,0.334,0.229,0.732,0.229,1.197c0,0.502-0.096,0.947-0.286,1.336
					c-0.193,0.387-0.454,0.717-0.788,0.984c-0.333,0.268-0.727,0.471-1.182,0.611c-0.455,0.137-0.946,0.207-1.473,0.207
					c-0.484,0-0.937-0.064-1.358-0.197c-0.421-0.131-0.803-0.32-1.146-0.564c-0.342-0.244-0.641-0.541-0.895-0.891
					c-0.255-0.35-0.455-0.742-0.603-1.178l1.81-0.676c0.11,0.24,0.243,0.459,0.398,0.658c0.156,0.199,0.329,0.367,0.521,0.51
					c0.192,0.141,0.399,0.252,0.622,0.33c0.223,0.08,0.46,0.119,0.715,0.119c0.249,0,0.476-0.027,0.679-0.08
					c0.204-0.053,0.379-0.131,0.525-0.236c0.146-0.105,0.258-0.236,0.337-0.391c0.08-0.156,0.118-0.336,0.118-0.543
					c0-0.25-0.076-0.459-0.229-0.629c-0.154-0.17-0.355-0.318-0.604-0.445s-0.532-0.242-0.851-0.346
					c-0.319-0.104-0.646-0.211-0.978-0.326c-0.333-0.115-0.659-0.25-0.978-0.402s-0.603-0.344-0.851-0.568
					c-0.25-0.225-0.451-0.494-0.604-0.811s-0.229-0.701-0.229-1.15c0-0.389,0.078-0.754,0.234-1.096
					c0.155-0.342,0.381-0.643,0.678-0.9c0.298-0.26,0.662-0.465,1.093-0.615s0.924-0.227,1.479-0.227
					c0.465,0,0.886,0.061,1.262,0.18c0.375,0.119,0.707,0.287,0.994,0.498c0.288,0.215,0.529,0.467,0.726,0.756
					s0.346,0.607,0.445,0.951L177.925,179.425z"/>
				<path fill="#F3F2F2" d="M186.415,187.104c-0.555,0-1.055-0.072-1.494-0.219c-0.441-0.146-0.83-0.346-1.168-0.596
					c-0.338-0.252-0.625-0.549-0.865-0.891c-0.24-0.344-0.436-0.713-0.586-1.107s-0.262-0.807-0.33-1.236
					c-0.07-0.428-0.104-0.855-0.104-1.281c0-0.422,0.033-0.848,0.104-1.275c0.068-0.43,0.18-0.842,0.33-1.236
					s0.346-0.764,0.586-1.105s0.527-0.641,0.865-0.893s0.727-0.449,1.168-0.596c0.439-0.146,0.939-0.219,1.494-0.219
					c0.557,0,1.053,0.072,1.492,0.219c0.438,0.146,0.824,0.344,1.16,0.596s0.621,0.551,0.861,0.893s0.436,0.711,0.586,1.105
					s0.26,0.807,0.33,1.236c0.07,0.428,0.104,0.854,0.104,1.275c0,0.426-0.033,0.854-0.104,1.281c-0.07,0.43-0.18,0.842-0.33,1.236
					s-0.346,0.764-0.586,1.107c-0.24,0.342-0.525,0.639-0.861,0.891c-0.336,0.25-0.723,0.449-1.16,0.596
					C187.468,187.032,186.972,187.104,186.415,187.104z M186.415,185.187c0.461,0,0.848-0.107,1.16-0.322
					c0.314-0.217,0.568-0.492,0.762-0.828c0.195-0.334,0.336-0.701,0.42-1.102c0.086-0.4,0.129-0.787,0.129-1.16
					c0-0.264-0.018-0.531-0.053-0.803c-0.035-0.27-0.096-0.529-0.176-0.781c-0.082-0.252-0.188-0.49-0.316-0.711
					c-0.129-0.223-0.285-0.418-0.467-0.582c-0.184-0.166-0.395-0.297-0.637-0.393c-0.24-0.096-0.516-0.145-0.822-0.145
					c-0.311,0-0.588,0.051-0.828,0.152c-0.244,0.1-0.457,0.236-0.641,0.404c-0.184,0.172-0.342,0.369-0.471,0.594
					s-0.234,0.465-0.316,0.719s-0.139,0.512-0.176,0.775c-0.035,0.264-0.055,0.52-0.055,0.77c0,0.393,0.045,0.791,0.129,1.195
					c0.088,0.406,0.227,0.771,0.422,1.1c0.193,0.328,0.449,0.596,0.766,0.805C185.56,185.083,185.95,185.187,186.415,185.187z"/>
				<path fill="#F3F2F2" d="M199.671,186.925l-4.088-6.006c-0.066-0.1-0.141-0.225-0.219-0.371c-0.08-0.145-0.146-0.281-0.205-0.404
					c0.014,0.109,0.025,0.24,0.033,0.387c0.006,0.148,0.01,0.279,0.01,0.389v6.006h-1.977v-10.303h1.869l3.986,5.934
					c0.062,0.098,0.135,0.217,0.217,0.361c0.082,0.143,0.152,0.281,0.215,0.416c-0.014-0.139-0.025-0.279-0.033-0.42
					c-0.006-0.141-0.01-0.26-0.01-0.357v-5.934h1.969v10.303H199.671z"/>
				<path fill="#F3F2F2" d="M213.657,186.925v-10.303h1.99v8.393h4.971v1.91H213.657z"/>
			</g>
			<polygon fill="#F3F2F2" points="219.519,188.589 218.685,188.589 215.487,197.067 207.524,175.991 202.772,188.591 
				143.887,189.483 202.896,190.378 204.155,190.378 207.524,181.448 215.487,202.524 220.073,190.36 228.284,189.476 			"/>
		</g>
	</g>
</g>
</svg>
