<?xml version="1.0" encoding="utf-8"?>
<!-- Generator: Adobe Illustrator 16.0.4, SVG Export Plug-In . SVG Version: 6.00 Build 0)  -->
<!DOCTYPE svg PUBLIC "-//W3C//DTD SVG 1.1//EN" "http://www.w3.org/Graphics/SVG/1.1/DTD/svg11.dtd">
<svg version="1.1" id="Layer_1" xmlns="http://www.w3.org/2000/svg" xmlns:xlink="http://www.w3.org/1999/xlink" x="0px" y="0px"
	 width="336.962px" height="221px" viewBox="0 0 336.962 221" enable-background="new 0 0 336.962 221" xml:space="preserve">
<g>
	<path fill="#231F20" d="M36.986,177.366c0,0-16.699-7.298-16.371-24.636c0.307-16.428,2.732-80.946,2.732-80.946
		c3.726,2.788,28.169,9.634,56.785,9.634c28.614,0,53.061-6.846,56.785-9.634c0,0,2.427,64.519,2.736,80.946
		c0.326,17.338-16.374,24.636-16.374,24.636l-43.147,17.39L36.986,177.366z"/>
	<path fill="#231F20" d="M38.308,174.107c-1.013-0.461-14.522-6.87-14.251-21.308c0.256-13.467,1.957-60.151,2.541-75.704
		c10.033,3.572,31.168,7.852,53.535,7.852s43.504-4.279,53.539-7.852c0.581,15.553,2.285,62.237,2.539,75.704
		c0.277,14.786-14.137,21.255-14.283,21.319L80.133,190.96L38.308,174.107z"/>
	<path fill="#231F20" d="M136.918,71.784c-3.725,2.788-28.171,9.634-56.785,9.634c-28.616,0-53.06-6.846-56.785-9.634
		c0,0-2.426,64.519-2.732,80.946c-0.328,17.338,16.371,24.636,16.371,24.636l43.146,17.39l43.147-17.39
		c0,0,16.7-7.298,16.374-24.636C139.345,136.302,136.918,71.784,136.918,71.784z M121.928,174.119L80.133,190.96l-41.825-16.854
		c-1.013-0.461-14.522-6.87-14.251-21.308c0.256-13.467,1.957-60.151,2.541-75.704c10.033,3.572,31.168,7.852,53.535,7.852
		s43.504-4.279,53.539-7.852c0.581,15.553,2.285,62.237,2.539,75.704C136.488,167.585,122.074,174.054,121.928,174.119z"/>
	<path fill="#E5E5E5" d="M25.16,116.646c0.543-15.53,1.138-31.564,1.438-39.551c10.033,3.572,31.168,7.852,53.535,7.852
		s43.504-4.279,53.539-7.852c0.299,7.986,0.895,24.016,1.436,39.543C135.217,119.774,25.053,119.779,25.16,116.646z"/>
	<g>
		<path fill="#231F20" d="M113.038,68.51l-0.522-3.269c-1.791-10.281-3.668-10.428-4.914-10.521c-0.8-0.06-1.865-0.142-3.432,2.435
			c-0.429-5.058-2.373-10.174-5.236-13.398l-0.914-4.451c-3.125-13.165-4.811-13.162-6.298-13.162
			c-1.561,0-3.332,0.003-5.246,13.158l-0.694,4.763c-2.955,3.528-4.844,9.106-5.002,14.419c0,0-0.236,0.844-0.312,0.844
			c-0.093,0-0.37-0.844-0.37-0.844c-0.193-6.029-2.611-12.389-6.281-15.715l-0.805-3.916c-3.13-13.166-4.811-13.162-6.297-13.162
			c-1.562,0-3.338,0.002-5.25,13.162l-1.061,6.949c-2.357,3.67-3.783,8.711-3.779,13.451c0,0.168,0.016,0.324,0.016,0.492
			c-2.146-4.712-3.512-4.611-4.49-4.537c-1.237,0.092-3.109,0.238-4.976,10.35l-0.897,4.86c-2.707,3.714-4.377,9.188-4.376,14.312
			c0.013,10.152,6.299,13.771,11.713,13.79c3.415,0.424,6.112-0.115,4.077,3.094c-0.008,0.012-0.008,0.02-0.013,0.029
			c-2.53,3.335-4.479,7.551-3.366,12.01c1.086,4.295,5.418,8.076,10.548,9.189c4.164,0.901,7.83-0.184,10.071-2.987
			c3.209-4.011,3.556-4.001,5.021-3.98l0.701,0.01l0.707-0.011c1.459-0.027,1.809-0.034,5.021,3.973
			c1.373,1.711,4.512,4.064,9.67,3.059c5.165-1.006,9.771-4.752,10.898-9.286c1.316-5.278-1.666-10.218-4.828-13.744
			c0.027-1.317,2.402-1.005,5.148-1.401c0.002,0,0.006,0,0.01,0c5.427-0.004,11.756-3.623,11.744-13.815
			C119.021,78.601,116.674,72.054,113.038,68.51z"/>
		<path fill="#231F20" d="M67.652,127.362c-1.2,0-2.443-0.136-3.685-0.409c-6.73-1.457-12.246-6.391-13.732-12.27
			c-0.972-3.877-0.347-7.98,1.807-12.035c-7.362-0.71-14.335-6.337-14.345-17.914c-0.005-5.693,1.705-11.58,4.609-15.968
			l0.729-3.972c1.559-8.43,3.496-13.384,8.801-13.782c0.229-0.018,0.465-0.032,0.711-0.032c0.354,0,0.691,0.027,1.016,0.078
			c0.676-2.412,1.629-4.713,2.811-6.73l0.932-6.109c1.646-11.331,3.479-16.735,9.41-16.735c5.593,0,7.641,4.832,10.391,16.397
			l0.577,2.805c1.007,1.092,1.928,2.359,2.74,3.761c0.423-0.735,0.878-1.435,1.355-2.087l0.533-3.661
			c1.69-11.593,3.444-16.763,9.41-16.763c5.598,0,7.647,4.835,10.394,16.4l0.73,3.544c1.849,2.368,3.336,5.356,4.313,8.615
			c0.015,0,0.028,0,0.039,0c0.255,0,0.491,0.015,0.714,0.03c5.348,0.398,7.258,5.434,8.748,13.996l0.33,2.053
			c3.822,4.405,6.24,11.318,6.246,18.082c0.004,7.283-2.783,11.504-5.127,13.758c-2.402,2.324-5.521,3.766-8.92,4.158
			c2.182,4.061,2.818,8.152,1.846,12.062c-1.506,6.058-7.202,11.039-14.175,12.4c-1.087,0.21-2.169,0.32-3.214,0.32
			c-5.99,0-9.368-3.41-10.543-4.875c-1.05-1.305-1.663-2.016-2.023-2.395l-0.357,0.006l-0.486-0.006
			c-0.357,0.379-0.973,1.09-2.02,2.399C75.705,125.628,71.953,127.362,67.652,127.362z"/>
		<g>
			<path fill="#FFFFFF" d="M73.816,42.736l-0.805-3.918c-3.13-13.166-4.811-13.162-6.297-13.162c-1.562,0-3.338,0.002-5.25,13.162
				l-1.061,6.949c-2.357,3.67-3.783,8.713-3.779,13.451c0,0.169,0.016,0.324,0.016,0.494c-2.146-4.715-3.512-4.611-4.49-4.539
				c-1.237,0.094-3.109,0.237-4.976,10.35l-0.897,4.861c-2.707,3.715-4.377,9.19-4.376,14.311
				c0.013,10.191,6.347,13.803,11.771,13.795c5.421-0.002,11.753-3.626,11.743-13.818c-0.006-5.082-1.664-10.511-4.342-14.219
				c2.173,1.797,4.837,2.559,7.318,2.557c5.424-0.001,11.752-3.625,11.74-13.812C80.129,52.955,77.639,46.201,73.816,42.736z"/>
		</g>
		<g>
			<path fill="none" d="M106.536,65.871c-0.04-0.024-0.081-0.051-0.117-0.078c-0.058,0.035-0.136,0.076-0.232,0.127
				C106.305,65.9,106.419,65.884,106.536,65.871z"/>
			<path fill="#FFFFFF" d="M113.038,68.476l-0.522-3.268c-1.791-10.281-3.668-10.428-4.914-10.521
				c-0.8-0.062-1.865-0.144-3.432,2.433c-0.429-5.058-2.373-10.174-5.236-13.396l-0.914-4.453
				c-3.125-13.166-4.811-13.162-6.298-13.162c-1.561,0-3.332,0.004-5.246,13.16l-0.694,4.761c-3.092,3.694-5.038,9.637-5.033,15.167
				c0.01,10.191,6.346,13.793,11.769,13.792c2.483,0,5.143-0.772,7.313-2.572c-2.675,3.716-4.322,9.142-4.317,14.226
				c0.011,10.196,6.347,13.804,11.769,13.798c5.427-0.001,11.756-3.626,11.744-13.814C119.021,78.566,116.674,72.02,113.038,68.476z
				 M106.536,65.871c-0.117,0.014-0.231,0.029-0.35,0.049c0.097-0.051,0.175-0.092,0.232-0.127
				C106.455,65.82,106.496,65.846,106.536,65.871z"/>
		</g>
		<g>
			<path fill="#FFFFFF" d="M96.977,95.13c-0.863-0.645-1.809-4.262-2.492-6.906c-1.896-7.305-4.491-17.312-13.908-17.301
				C70.48,70.941,67.463,85.406,66.733,88.234c-0.678,2.643-1.61,6.257-2.474,6.906c-2.873,2.164-12.098,9.885-9.947,18.479
				c1.086,4.296,5.418,8.08,10.548,9.188c4.164,0.906,7.83-0.182,10.071-2.982c3.209-4.016,3.556-4.008,5.021-3.985l0.701,0.01
				l0.707-0.013c1.459-0.023,1.809-0.031,5.021,3.975c1.373,1.713,4.512,4.063,9.67,3.056c5.165-1.003,9.771-4.747,10.898-9.283
				C109.092,104.999,99.855,97.292,96.977,95.13z"/>
		</g>
		<g>
			<path fill="#E31837" d="M80.654,113.74c2.68-0.004,3.218-0.541,7.51,4.814c1.082,1.354,2.576,2.085,4.23,2.332L71.646,80.414
				c-2.787,6.271-3.396,14.745-6.023,16.717c-4.285,3.221-10.713,9.66-9.094,16.095c1.614,6.431,12.338,10.706,16.623,5.349
				C77.435,113.207,77.973,113.74,80.654,113.74"/>
			<path d="M92.354,120.907c4.896,0.722,11.188-2.894,12.386-7.705c1.6-6.437-4.834-12.866-9.129-16.075
				c-4.292-3.213-3.24-23.765-15.029-23.754c-4.578,0.004-7.211,3.093-8.972,7.061L92.354,120.907z"/>
		</g>
		<path d="M68.389,70.731c5.234-0.003,9.475-3.786,9.467-11.534c-0.006-7.744-4.26-16.521-9.488-16.518
			c-5.237,0.009-9.474,8.789-9.463,16.536C58.908,66.962,63.155,70.736,68.389,70.731"/>
		<path d="M53.672,96.209c5.232-0.007,9.468-3.786,9.465-11.534c-0.007-7.744-4.258-16.524-9.49-16.518
			c-5.236,0.006-9.475,8.789-9.465,16.535C44.191,92.441,48.433,96.214,53.672,96.209"/>
		<path d="M92.51,70.707c-5.229,0.007-9.475-3.764-9.481-11.514c-0.009-7.746,4.228-16.533,9.459-16.538
			c5.233-0.003,9.489,8.774,9.495,16.522C101.986,66.92,97.749,70.704,92.51,70.707"/>
		<path d="M107.281,96.162c-5.232,0.002-9.48-3.773-9.49-11.52c-0.004-7.742,4.229-16.527,9.465-16.533
			c5.232-0.006,9.483,8.771,9.491,16.518C116.754,92.374,112.514,96.157,107.281,96.162"/>
		<path d="M70.792,39.341l-4.068-2.934l-3.005,2.734c0,0,1.631-11.205,3-11.205C68.084,27.932,70.792,39.341,70.792,39.341"/>
		<path d="M95.804,39.798l-4.072-2.936l-3.001,2.731c0,0,1.629-11.202,2.991-11.202C93.092,28.388,95.804,39.798,95.804,39.798"/>
		<path d="M110.272,65.599l-3.736-2.457l-3.278,1.764c0,0,2.811-8.049,4.166-7.946C108.785,57.066,110.272,65.599,110.272,65.599"/>
		<path d="M56.453,65.552l-4.066-1.857l-2.971,2.239c0,0,1.55-8.383,2.911-8.487C53.688,57.342,56.453,65.552,56.453,65.552"/>
	</g>
	<g>
		<path fill="#E31837" d="M80.133,111.267c-22.895,0-48.874-3.35-69.496-8.96l-1.123-0.306l0.528-15.535l1.789,0.482
			c9.758,2.629,35.947,8.743,68.301,8.743c32.348,0,58.544-6.114,68.305-8.743l1.79-0.482l0.527,15.535l-1.123,0.306
			C129.009,107.917,103.028,111.267,80.133,111.267z"/>
		<path fill="#231F20" d="M148.82,88.369c0.135,3.992,0.279,8.205,0.425,12.519c-17.017,4.63-42.479,8.909-69.112,8.909
			c-26.633,0-52.094-4.279-69.109-8.909c0.145-4.313,0.289-8.526,0.426-12.519c17.01,4.582,42.27,8.793,68.684,8.793
			C106.549,97.162,131.805,92.951,148.82,88.369 M151.635,84.564l-3.58,0.964c-9.705,2.613-35.75,8.691-67.922,8.691
			c-32.178,0-58.217-6.078-67.918-8.691l-3.578-0.964l-0.127,3.704l-0.025,0.734c-0.129,3.774-0.265,7.736-0.401,11.786
			l-0.078,2.326l2.246,0.611c20.74,5.644,46.864,9.013,69.882,9.013c23.019,0,49.144-3.369,69.885-9.013l2.246-0.611l-0.079-2.327
			l-0.227-6.675l-0.198-5.844L151.635,84.564L151.635,84.564z"/>
	</g>
	<g>
		<g>
			<path fill="#F3F2F2" d="M17.497,98.3c0.018,0.004,0.03-0.003,0.036-0.029c0.324-1.376,0.648-2.751,0.972-4.127
				c-0.171-0.047-0.341-0.094-0.512-0.141c0.059-0.245,0.122-0.508,0.188-0.742c0.497,0.12,1.19,0.284,1.706,0.404
				c0.452,1.113,1.186,3.054,1.695,4.394c0.018,0.004,0.036,0.008,0.054,0.012c0.205-1.006,0.434-2.035,0.652-3.056
				c-0.216-0.054-0.432-0.109-0.648-0.164c0.053-0.237,0.125-0.516,0.186-0.742c0.347,0.078,0.765,0.171,1.157,0.258
				c0.312,0.069,0.679,0.14,0.947,0.197c-0.052,0.238-0.109,0.501-0.171,0.746c-0.133-0.02-0.267-0.039-0.399-0.059
				c-0.018-0.004-0.038,0.001-0.045,0.036c-0.363,1.604-0.726,3.208-1.089,4.812c-0.208,0.038-0.683,0.025-1.147-0.078
				c-0.447-0.829-1.175-2.331-1.854-4.08c-0.022-0.002-0.043-0.004-0.065-0.006c-0.209,0.894-0.417,1.742-0.629,2.608
				c0.222,0.058,0.444,0.116,0.667,0.173c-0.057,0.246-0.12,0.518-0.184,0.752c-0.382-0.088-0.873-0.203-1.299-0.304
				c-0.3-0.071-0.611-0.136-0.865-0.197c0.059-0.245,0.122-0.508,0.19-0.75C17.191,98.245,17.344,98.272,17.497,98.3z"/>
			<path fill="#F3F2F2" d="M24.344,99.974c-0.442-0.654-0.555-1.406-0.355-2.339c0.25-1.162,1.039-1.959,1.863-2.247
				c0.624-0.22,1.206-0.247,1.893-0.108c0.563,0.114,1.053,0.357,1.461,0.74c0.604,0.567,0.879,1.572,0.682,2.607
				c-0.163,0.857-0.645,1.71-1.377,2.165c-0.673,0.4-1.445,0.505-2.331,0.326C25.367,100.952,24.697,100.508,24.344,99.974z
				 M27.37,100.198c0.397-0.333,0.645-0.964,0.789-1.697c0.141-0.715,0.113-1.381-0.021-1.831c-0.111-0.38-0.364-0.605-0.696-0.672
				c-0.367-0.074-0.645,0.007-0.901,0.211c-0.325,0.264-0.653,0.849-0.826,1.687c-0.185,0.89-0.176,1.49,0.064,1.934
				c0.192,0.352,0.464,0.509,0.747,0.566C26.816,100.456,27.072,100.461,27.37,100.198z"/>
			<path fill="#F3F2F2" d="M31.116,96.814c0.048-0.256,0.094-0.504,0.149-0.75c0.61,0.106,1.374,0.236,2.072,0.362
				c0.511,0.091,0.789,0.14,1.296,0.356c0.75,0.305,1.137,1.081,1.042,1.649c-0.127,0.755-0.706,1.205-1.386,1.352
				c-0.003,0.018-0.006,0.036-0.009,0.053c0.367,0.256,0.498,0.799,0.769,1.693c0.063,0.239,0.112,0.339,0.22,0.366
				c0.144,0.042,0.287,0.084,0.43,0.127c-0.04,0.24-0.09,0.487-0.132,0.735c-0.165-0.027-0.497-0.074-0.671-0.104
				c-0.202-0.034-0.983-0.158-1.157-0.188c-0.169-0.441-0.427-1.546-0.535-1.995c-0.07-0.296-0.214-0.431-0.423-0.469
				c-0.109-0.019-0.184-0.023-0.212-0.02c-0.088,0.475-0.177,0.95-0.265,1.425c0.163,0.039,0.325,0.077,0.488,0.115
				c-0.053,0.246-0.095,0.486-0.14,0.734c-0.357-0.063-0.861-0.154-1.31-0.236c-0.384-0.07-0.814-0.15-1.162-0.215
				c0.055-0.246,0.1-0.485,0.146-0.732c0.151,0.019,0.302,0.038,0.453,0.057c0.018,0.003,0.03-0.012,0.032-0.021
				c0.262-1.395,0.524-2.79,0.786-4.185C31.437,96.887,31.276,96.851,31.116,96.814z M32.703,99.238
				c0.035,0.016,0.089,0.026,0.216,0.048c0.607,0.108,1.052-0.244,1.154-0.829c0.113-0.647-0.208-1.197-0.684-1.282
				c-0.153-0.027-0.235-0.033-0.292-0.025C32.965,97.847,32.834,98.542,32.703,99.238z"/>
			<path fill="#F3F2F2" d="M37.672,102.299c0.019,0.003,0.031-0.013,0.034-0.031c0.22-1.387,0.441-2.774,0.661-4.161
				c-0.343-0.054-0.5-0.053-0.629-0.055c-0.13,0.006-0.167,0.064-0.2,0.15c-0.1,0.275-0.201,0.551-0.301,0.827
				c-0.313-0.069-0.662-0.154-0.945-0.238c0.137-0.598,0.273-1.196,0.417-1.783c0.188,0.031,0.528,0.097,0.842,0.147
				c0.233,0.039,1.428,0.229,1.76,0.28c0.279,0.044,1.438,0.221,1.682,0.256c0.361,0.044,0.676,0.091,0.856,0.117
				c-0.051,0.602-0.104,1.213-0.172,1.813c-0.304-0.008-0.652-0.032-0.982-0.054c-0.006-0.292-0.012-0.584-0.017-0.876
				c-0.003-0.101-0.033-0.15-0.146-0.195s-0.219-0.079-0.615-0.139c-0.223,1.393-0.445,2.786-0.667,4.179
				c0.218,0.045,0.436,0.091,0.654,0.136c-0.036,0.241-0.076,0.507-0.124,0.764c-0.386-0.058-0.936-0.151-1.423-0.227
				c-0.441-0.069-0.984-0.146-1.443-0.22c0.042-0.257,0.092-0.514,0.132-0.762C37.254,102.25,37.463,102.275,37.672,102.299z"/>
			<path fill="#F3F2F2" d="M42.225,102.983c0.029-0.005,0.04-0.013,0.043-0.04c0.197-1.394,0.394-2.787,0.591-4.181
				c-0.164-0.032-0.329-0.065-0.493-0.097c0.035-0.241,0.074-0.517,0.118-0.756c0.36,0.052,0.891,0.127,1.296,0.183
				c0.433,0.06,0.937,0.128,1.289,0.175c-0.032,0.241-0.069,0.518-0.111,0.757c-0.176-0.014-0.352-0.029-0.527-0.044
				c-0.009-0.001-0.01,0.008-0.015,0.043c-0.074,0.52-0.147,1.04-0.221,1.56c-0.002,0.018,0.006,0.028,0.015,0.029
				c0.618,0.087,1.236,0.171,1.854,0.254c0.073-0.547,0.146-1.095,0.22-1.642c-0.183-0.033-0.366-0.065-0.548-0.098
				c0.033-0.25,0.068-0.518,0.108-0.757c0.37,0.048,0.893,0.115,1.352,0.172c0.388,0.049,0.866,0.107,1.217,0.15
				c-0.028,0.232-0.063,0.527-0.1,0.758c-0.149-0.009-0.298-0.018-0.447-0.027c-0.018-0.002-0.028,0.006-0.031,0.032
				c-0.18,1.396-0.36,2.792-0.54,4.188c0.167,0.032,0.334,0.065,0.501,0.097c-0.029,0.241-0.072,0.517-0.111,0.766
				c-0.359-0.043-0.875-0.115-1.252-0.163c-0.488-0.061-1.015-0.12-1.429-0.174c0.033-0.25,0.069-0.526,0.109-0.766
				c0.197,0.017,0.394,0.033,0.591,0.049c0.019,0.002,0.038-0.004,0.042-0.031c0.069-0.566,0.139-1.132,0.208-1.698
				c0.002-0.018-0.004-0.037-0.022-0.039c-0.621-0.074-1.242-0.15-1.863-0.228c-0.082,0.579-0.164,1.159-0.246,1.738
				c0.188,0.038,0.376,0.075,0.564,0.112c-0.032,0.241-0.059,0.51-0.103,0.768c-0.368-0.049-0.9-0.13-1.352-0.193
				c-0.396-0.055-0.903-0.117-1.289-0.173c0.036-0.25,0.074-0.517,0.11-0.766C41.911,102.957,42.067,102.97,42.225,102.983z"/>
			<path fill="#F3F2F2" d="M49.192,103.887c0.028,0.003,0.048-0.013,0.05-0.031c0.162-1.404,0.323-2.808,0.485-4.212
				c-0.174-0.026-0.349-0.052-0.522-0.079c0.03-0.259,0.07-0.526,0.108-0.766c0.334,0.039,0.803,0.093,1.182,0.135
				c0.28,0.033,1.896,0.208,2.113,0.229c0.379,0.04,0.696,0.062,0.895,0.083c-0.017,0.532-0.035,1.073-0.07,1.604
				c-0.267,0.009-0.589,0.013-0.901,0.007c-0.025-0.235-0.049-0.47-0.074-0.705c-0.01-0.083-0.04-0.14-0.165-0.171
				c-0.125-0.032-0.384-0.095-0.945-0.156c-0.028-0.003-0.063-0.007-0.091-0.01c-0.064,0.566-0.129,1.133-0.194,1.7
				c0.282,0.031,0.547,0.05,0.804,0.068c0.056-0.003,0.108-0.061,0.137-0.158c0.03-0.111,0.061-0.223,0.091-0.334
				c0.291,0.031,0.59,0.071,0.853,0.107c-0.028,0.278-0.071,0.608-0.104,0.931c-0.033,0.323-0.075,0.644-0.099,0.877
				c-0.268-0.009-0.571-0.032-0.864-0.063c-0.002-0.121-0.005-0.242-0.008-0.363c0.005-0.135-0.035-0.193-0.117-0.202
				c-0.255-0.036-0.51-0.073-0.775-0.102c-0.061,0.528-0.122,1.056-0.183,1.583c-0.019,0.17,0.042,0.204,0.457,0.249
				c0.377,0.041,0.61,0.038,0.742,0.024c0.095-0.017,0.146-0.057,0.193-0.151c0.114-0.229,0.227-0.459,0.34-0.689
				c0.307,0.077,0.622,0.172,0.883,0.252c-0.153,0.51-0.325,1.026-0.499,1.542c-0.462-0.046-1.744-0.187-3.026-0.332
				c-0.424-0.048-0.896-0.093-1.265-0.136c0.029-0.25,0.061-0.519,0.098-0.759C48.877,103.869,49.035,103.878,49.192,103.887z"/>
			<path fill="#F3F2F2" d="M53.958,104.394c0.018,0.002,0.048-0.014,0.059-0.039c0.705-1.397,1.706-3.446,2.378-4.859
				c0.165-0.003,0.58,0.034,1.24,0.09c0.395,1.552,0.941,3.755,1.336,5.24c0.156,0.024,0.312,0.048,0.467,0.072
				c-0.019,0.242-0.039,0.503-0.067,0.753c-0.306-0.023-0.758-0.059-1.11-0.088c-0.481-0.039-1.063-0.087-1.488-0.125
				c0.022-0.251,0.044-0.511,0.075-0.761c0.151,0.004,0.302,0.008,0.454,0.012c0.019,0.001,0.039-0.015,0.032-0.043
				c-0.035-0.138-0.093-0.432-0.137-0.572c-0.006-0.037-0.023-0.047-0.06-0.05c-0.568-0.042-1.135-0.087-1.703-0.133
				c-0.064,0.193-0.161,0.437-0.215,0.622c0.168,0.024,0.336,0.049,0.504,0.073c-0.022,0.242-0.045,0.502-0.078,0.752
				c-0.369-0.033-0.85-0.078-1.302-0.121c-0.305-0.029-0.628-0.061-0.905-0.088c0.024-0.25,0.06-0.51,0.093-0.75
				C53.674,104.384,53.816,104.389,53.958,104.394z M56.547,101.171c-0.268,0.646-0.551,1.334-0.799,1.926
				c-0.012,0.035-0.014,0.053,0.013,0.056c0.428,0.039,0.855,0.077,1.283,0.114c-0.141-0.608-0.296-1.363-0.452-2.091
				C56.578,101.174,56.562,101.173,56.547,101.171z"/>
			<path fill="#F3F2F2" d="M61.034,104.736c0.007,0.027,0.022,0.074,0.049,0.085c0.158,0.128,0.366,0.197,0.597,0.212
				c0.222,0.015,0.493-0.021,0.658-0.136c0.145-0.099,0.239-0.255,0.253-0.47c0.029-0.449-0.195-0.554-0.893-0.863
				c-0.903-0.405-1.576-1.007-1.509-1.887c0.042-0.556,0.341-1.003,0.717-1.292c0.425-0.33,1.101-0.499,1.969-0.441
				c0.516,0.034,0.991,0.135,1.194,0.237c0.021,0.552,0.033,1.103,0.037,1.653c-0.285,0.028-0.625,0.043-0.947,0.059
				c-0.052-0.283-0.104-0.566-0.155-0.849c-0.007-0.027-0.015-0.046-0.032-0.065c-0.104-0.097-0.272-0.162-0.445-0.173
				c-0.218-0.015-0.403,0.027-0.556,0.125c-0.125,0.082-0.263,0.244-0.281,0.495c-0.031,0.449,0.162,0.554,0.983,0.896
				c0.991,0.408,1.484,0.932,1.434,1.786c-0.034,0.566-0.305,1.082-0.77,1.396s-1.087,0.446-1.985,0.383
				c-0.389-0.027-1.042-0.119-1.412-0.282c-0.031-0.571-0.054-1.133-0.078-1.686c0.299-0.041,0.662-0.077,0.977-0.09
				C60.904,104.131,60.969,104.434,61.034,104.736z"/>
			<path fill="#F3F2F2" d="M66.479,105.311c0.019,0.001,0.029-0.017,0.03-0.035c0.071-1.402,0.142-2.805,0.213-4.208
				c-0.345-0.018-0.501,0.001-0.629,0.013c-0.129,0.02-0.159,0.082-0.183,0.17c-0.07,0.285-0.14,0.57-0.21,0.854
				c-0.318-0.036-0.672-0.083-0.962-0.135c0.072-0.609,0.143-1.218,0.223-1.818c0.19,0.011,0.534,0.04,0.851,0.057
				c0.235,0.014,1.44,0.076,1.775,0.09c0.281,0.014,1.45,0.066,1.695,0.075c0.363,0.006,0.68,0.018,0.861,0.025
				c0.014,0.604,0.027,1.217,0.022,1.821c-0.302,0.024-0.65,0.038-0.98,0.051c-0.037-0.29-0.074-0.58-0.11-0.87
				c-0.014-0.1-0.048-0.146-0.166-0.178c-0.117-0.033-0.225-0.055-0.625-0.073c-0.072,1.409-0.145,2.817-0.217,4.226
				c0.221,0.022,0.442,0.043,0.664,0.065c-0.01,0.243-0.021,0.513-0.042,0.773c-0.39-0.017-0.945-0.05-1.436-0.074
				c-0.444-0.021-0.991-0.04-1.454-0.064c0.014-0.26,0.037-0.521,0.05-0.772C66.06,105.308,66.269,105.31,66.479,105.311z"/>
			<path fill="#F3F2F2" d="M71.066,105.514c0.028,0.001,0.047-0.017,0.047-0.035c0.047-1.413,0.095-2.825,0.142-4.238
				c-0.175-0.012-0.351-0.024-0.526-0.036c0.009-0.261,0.028-0.531,0.045-0.773c0.335,0.012,0.807,0.028,1.188,0.04
				c0.281,0.01,1.904,0.054,2.122,0.057c0.38,0.009,0.698,0.006,0.897,0.01c0.026,0.532,0.052,1.072,0.06,1.604
				c-0.265,0.031-0.585,0.061-0.896,0.081c-0.043-0.232-0.087-0.464-0.13-0.697c-0.016-0.081-0.051-0.136-0.178-0.157
				c-0.127-0.021-0.39-0.063-0.954-0.079c-0.027-0.001-0.063-0.002-0.091-0.003c-0.019,0.57-0.038,1.14-0.056,1.71
				c0.283,0.008,0.549,0.006,0.806,0.003c0.055-0.007,0.103-0.069,0.123-0.168c0.021-0.114,0.042-0.227,0.063-0.341
				c0.292,0.007,0.593,0.023,0.858,0.038c-0.006,0.279-0.022,0.612-0.029,0.936s-0.022,0.647-0.027,0.882
				c-0.268,0.013-0.571,0.015-0.865,0.007c-0.013-0.121-0.025-0.241-0.037-0.361c-0.006-0.135-0.051-0.19-0.133-0.192
				c-0.257-0.015-0.513-0.031-0.78-0.039c-0.018,0.531-0.036,1.062-0.054,1.593c-0.005,0.171,0.06,0.2,0.475,0.211
				c0.379,0.01,0.61-0.012,0.74-0.036c0.093-0.025,0.141-0.069,0.179-0.167c0.095-0.238,0.189-0.476,0.284-0.714
				c0.312,0.052,0.633,0.121,0.899,0.18c-0.111,0.521-0.241,1.049-0.372,1.578c-0.463-0.009-1.751-0.045-3.039-0.085
				c-0.426-0.013-0.899-0.02-1.27-0.033c0.009-0.252,0.018-0.522,0.037-0.764C70.752,105.521,70.909,105.517,71.066,105.514z"/>
			<path fill="#F3F2F2" d="M76.047,101.341c0.004-0.261,0.008-0.513,0.021-0.765c0.617,0.001,1.388,0.001,2.095,0.006
				c0.517,0.004,0.798,0.005,1.333,0.133c0.788,0.173,1.299,0.874,1.3,1.45c0.002,0.765-0.491,1.307-1.134,1.567
				c0,0.018,0,0.036,0,0.054c0.404,0.19,0.624,0.703,1.04,1.54c0.102,0.225,0.167,0.315,0.278,0.323
				c0.148,0.018,0.296,0.035,0.444,0.053c0.001,0.243-0.007,0.495-0.006,0.747c-0.167,0.001-0.5,0.011-0.677,0.011
				c-0.204,0-0.992,0.01-1.167,0.009c-0.241-0.405-0.68-1.452-0.861-1.876c-0.118-0.28-0.283-0.389-0.494-0.39
				c-0.11-0.001-0.184,0.008-0.211,0.017c-0.007,0.483-0.014,0.966-0.021,1.449c0.166,0.011,0.333,0.021,0.499,0.031
				c-0.011,0.252-0.012,0.495-0.014,0.747c-0.361-0.002-0.871-0.007-1.326-0.012c-0.389-0.004-0.825-0.01-1.177-0.016
				c0.013-0.252,0.017-0.495,0.021-0.747c0.151-0.007,0.302-0.014,0.453-0.021c0.019,0,0.028-0.017,0.028-0.027
				c0.022-1.419,0.045-2.838,0.067-4.257C76.375,101.358,76.211,101.349,76.047,101.341z M78.013,103.462
				c0.037,0.009,0.091,0.01,0.22,0.011c0.614,0.004,0.992-0.418,0.994-1.012c0.002-0.657-0.406-1.145-0.887-1.147
				c-0.154-0.001-0.236,0.007-0.291,0.024C78.037,102.045,78.025,102.754,78.013,103.462z"/>
			<path fill="#F3F2F2" d="M82.207,105.651c0.019,0,0.028-0.009,0.028-0.036c-0.014-1.414-0.028-2.827-0.042-4.24
				c-0.176-0.004-0.352-0.009-0.527-0.015c-0.001-0.252-0.003-0.522,0.004-0.765c0.508-0.002,1.215-0.009,1.741-0.015
				c0.7,0.973,1.869,2.682,2.679,3.862c0.019,0,0.037,0,0.056-0.001c-0.041-1.025-0.064-2.079-0.096-3.123
				c-0.222-0.001-0.443-0.003-0.665-0.004c-0.004-0.243-0.001-0.531,0.003-0.765c0.354-0.007,0.78-0.016,1.179-0.026
				c0.317-0.008,0.689-0.026,0.961-0.034c0.006,0.243,0.014,0.513,0.012,0.765c-0.133,0.013-0.267,0.025-0.4,0.038
				c-0.018,0-0.036,0.01-0.035,0.046c0.031,1.644,0.061,3.289,0.091,4.933c-0.192,0.086-0.654,0.188-1.127,0.197
				c-0.627-0.698-1.688-1.983-2.757-3.52c-0.021,0.003-0.043,0.007-0.064,0.01c0.01,0.918,0.011,1.792,0.012,2.683
				c0.229,0.003,0.457,0.006,0.685,0.009c0.003,0.252,0.007,0.531,0.001,0.775c-0.389,0.005-0.89,0.011-1.325,0.015
				c-0.306,0.003-0.622,0.014-0.881,0.016c-0.001-0.252-0.003-0.522,0.005-0.774C81.899,105.671,82.053,105.661,82.207,105.651z"/>
			<path fill="#F3F2F2" d="M92.325,103.827c0.031,0.684,0.164,0.984,0.387,1.217c0.194,0.189,0.438,0.268,0.752,0.252
				c0.342-0.017,0.538-0.162,0.686-0.351c0.2-0.245,0.275-0.753,0.243-1.347c-0.038-0.728-0.096-1.825-0.153-2.561
				c-0.001-0.018-0.02-0.026-0.038-0.025c-0.212,0.002-0.425,0.004-0.638,0.005c-0.012-0.243-0.016-0.513-0.028-0.755
				c0.335-0.017,0.806-0.042,1.205-0.063c0.38-0.021,0.752-0.042,1.078-0.061c0.014,0.242,0.029,0.503,0.035,0.755
				c-0.142,0.018-0.284,0.035-0.425,0.052c0.038,0.818,0.076,1.637,0.113,2.455c0.062,1.079-0.231,1.771-0.565,2.124
				c-0.323,0.369-0.772,0.655-1.633,0.697c-0.815,0.04-1.397-0.088-1.876-0.474c-0.546-0.446-0.703-1.161-0.729-1.827
				c-0.036-0.899-0.071-1.799-0.106-2.698c-0.001-0.027-0.011-0.054-0.047-0.053c-0.134,0-0.267-0.001-0.401-0.002
				c-0.009-0.252-0.019-0.513-0.02-0.756c0.354-0.013,0.861-0.033,1.251-0.05c0.48-0.021,0.997-0.043,1.404-0.063
				c0.011,0.233,0.024,0.512,0.028,0.765c-0.206,0.016-0.412,0.031-0.617,0.046C92.261,102.016,92.293,102.921,92.325,103.827z"/>
			<path fill="#F3F2F2" d="M97.137,105.127c0.019-0.001,0.028-0.011,0.026-0.038c-0.092-1.411-0.184-2.821-0.275-4.231
				c-0.176,0.005-0.352,0.01-0.527,0.015c-0.016-0.251-0.032-0.521-0.038-0.764c0.507-0.031,1.213-0.076,1.738-0.112
				c0.753,0.933,2.015,2.575,2.89,3.708c0.018-0.001,0.037-0.003,0.055-0.004c-0.098-1.021-0.179-2.072-0.269-3.112
				c-0.221,0.011-0.442,0.021-0.664,0.032c-0.018-0.243-0.031-0.53-0.039-0.764c0.353-0.026,0.778-0.059,1.176-0.091
				c0.316-0.025,0.687-0.064,0.958-0.087c0.02,0.243,0.042,0.512,0.055,0.764c-0.133,0.02-0.265,0.04-0.397,0.06
				c-0.018,0.001-0.036,0.012-0.033,0.047c0.121,1.64,0.242,3.28,0.363,4.92c-0.188,0.097-0.643,0.224-1.115,0.26
				c-0.666-0.662-1.796-1.887-2.949-3.362c-0.021,0.004-0.042,0.009-0.063,0.013c0.061,0.916,0.11,1.788,0.16,2.678
				c0.228-0.009,0.456-0.019,0.684-0.029c0.018,0.252,0.037,0.53,0.044,0.773c-0.388,0.027-0.888,0.061-1.323,0.088
				c-0.306,0.02-0.62,0.048-0.879,0.064c-0.016-0.251-0.032-0.521-0.038-0.773C96.831,105.165,96.984,105.146,97.137,105.127z"/>
			<path fill="#F3F2F2" d="M102.938,100.391c-0.021-0.251-0.044-0.521-0.056-0.763c0.38-0.032,0.94-0.082,1.366-0.121
				c0.443-0.04,0.958-0.088,1.338-0.125c0.022,0.233,0.041,0.521,0.063,0.763c-0.189,0.027-0.378,0.054-0.568,0.081
				c-0.019,0.002-0.018,0.011-0.014,0.047c0.122,1.399,0.244,2.798,0.365,4.197c0.207-0.007,0.414-0.015,0.621-0.022
				c0.023,0.242,0.049,0.511,0.064,0.771c-0.379,0.036-0.925,0.079-1.386,0.121c-0.426,0.039-0.942,0.093-1.367,0.129
				c-0.021-0.251-0.037-0.53-0.058-0.781c0.178-0.021,0.355-0.042,0.533-0.064c0.018-0.001,0.035-0.021,0.034-0.039
				c-0.124-1.405-0.247-2.81-0.371-4.215C103.315,100.376,103.127,100.384,102.938,100.391z"/>
			<path fill="#F3F2F2" d="M111.547,99.54c-0.167,0.682-0.375,1.567-0.594,2.326c-0.248,0.899-0.545,2.047-0.84,3.004
				c-0.091,0.027-0.589,0.083-1.291,0.157c-0.46-0.902-0.976-1.943-1.372-2.844c-0.29-0.667-0.622-1.412-0.898-2.072
				c-0.001-0.018-0.021-0.034-0.049-0.031c-0.149,0.009-0.297,0.018-0.446,0.026c-0.024-0.251-0.042-0.521-0.065-0.762
				c0.334-0.033,0.831-0.083,1.22-0.122c0.542-0.055,1.183-0.123,1.661-0.175c0.025,0.233,0.057,0.519,0.074,0.762
				c-0.205,0.031-0.409,0.062-0.613,0.093c0.131,0.375,0.426,1.24,0.541,1.536c0.229,0.591,0.465,1.227,0.754,1.919
				c0.021-0.002,0.043-0.004,0.064-0.007c0.123-0.575,0.209-1.047,0.29-1.481c0.091-0.508,0.327-1.686,0.357-2.142
				c-0.002-0.018-0.015-0.044-0.033-0.042c-0.175,0.014-0.351,0.027-0.527,0.041c-0.037-0.25-0.06-0.537-0.086-0.769
				c0.388-0.043,0.885-0.1,1.354-0.155c0.289-0.034,0.613-0.072,0.884-0.105c0.029,0.241,0.061,0.51,0.083,0.761
				C111.859,99.484,111.703,99.512,111.547,99.54z"/>
			<path fill="#F3F2F2" d="M113.473,103.614c0.028-0.003,0.043-0.023,0.042-0.042c-0.174-1.403-0.348-2.806-0.522-4.208
				c-0.176,0.016-0.351,0.031-0.527,0.046c-0.032-0.259-0.056-0.528-0.076-0.771c0.333-0.041,0.803-0.099,1.181-0.147
				c0.28-0.034,1.893-0.245,2.109-0.275c0.378-0.051,0.692-0.104,0.89-0.131c0.109,0.521,0.219,1.051,0.31,1.575
				c-0.258,0.072-0.57,0.152-0.875,0.22c-0.079-0.222-0.158-0.445-0.237-0.667c-0.029-0.078-0.072-0.126-0.201-0.127
				c-0.129-0.001-0.396-0.001-0.956,0.071c-0.028,0.003-0.063,0.008-0.091,0.012c0.07,0.566,0.141,1.132,0.211,1.698
				c0.282-0.037,0.544-0.08,0.798-0.123c0.054-0.016,0.091-0.084,0.096-0.186c0.003-0.115,0.006-0.231,0.009-0.346
				c0.291-0.039,0.591-0.07,0.855-0.098c0.038,0.277,0.074,0.608,0.118,0.929s0.079,0.643,0.111,0.875
				c-0.263,0.054-0.563,0.104-0.855,0.143c-0.031-0.117-0.062-0.234-0.093-0.351c-0.027-0.132-0.08-0.18-0.162-0.169
				c-0.256,0.025-0.513,0.049-0.777,0.084c0.065,0.527,0.13,1.054,0.196,1.582c0.022,0.169,0.09,0.188,0.503,0.134
				c0.377-0.05,0.603-0.108,0.728-0.152c0.088-0.039,0.128-0.09,0.152-0.193c0.056-0.25,0.112-0.5,0.168-0.75
				c0.317,0.002,0.646,0.021,0.918,0.037c-0.029,0.531-0.074,1.074-0.122,1.617c-0.46,0.064-1.741,0.229-3.021,0.392
				c-0.424,0.054-0.893,0.121-1.261,0.166c-0.031-0.25-0.063-0.518-0.083-0.761C113.163,103.67,113.318,103.642,113.473,103.614z"/>
			<path fill="#F3F2F2" d="M117.75,98.712c-0.037-0.258-0.072-0.508-0.099-0.759c0.611-0.096,1.374-0.216,2.076-0.322
				c0.513-0.077,0.791-0.12,1.341-0.078c0.808,0.047,1.423,0.659,1.515,1.228c0.122,0.755-0.282,1.368-0.878,1.725
				c0.003,0.018,0.005,0.036,0.008,0.053c0.43,0.125,0.728,0.597,1.271,1.357c0.136,0.206,0.215,0.285,0.326,0.276
				c0.149-0.006,0.299-0.012,0.448-0.018c0.039,0.24,0.07,0.49,0.111,0.739c-0.165,0.027-0.494,0.089-0.668,0.117
				c-0.202,0.033-0.981,0.166-1.156,0.192c-0.301-0.363-0.9-1.328-1.146-1.718c-0.161-0.258-0.341-0.34-0.551-0.308
				c-0.109,0.016-0.181,0.037-0.207,0.049c0.069,0.478,0.138,0.956,0.206,1.435c0.167-0.016,0.333-0.032,0.499-0.048
				c0.029,0.25,0.065,0.491,0.104,0.74c-0.358,0.054-0.864,0.13-1.315,0.196c-0.386,0.057-0.818,0.119-1.167,0.169
				c-0.026-0.251-0.061-0.492-0.096-0.741c0.148-0.03,0.297-0.061,0.446-0.091c0.018-0.003,0.025-0.021,0.023-0.031
				c-0.2-1.405-0.399-2.811-0.599-4.216C118.077,98.678,117.914,98.695,117.75,98.712z M120.028,100.499
				c0.038,0.004,0.093-0.004,0.22-0.024c0.609-0.092,0.917-0.568,0.826-1.155c-0.101-0.649-0.581-1.067-1.058-0.995
				c-0.153,0.023-0.233,0.044-0.285,0.07C119.831,99.097,119.93,99.798,120.028,100.499z"/>
			<path fill="#F3F2F2" d="M125.181,101.647c0.013,0.025,0.039,0.066,0.068,0.07c0.184,0.087,0.403,0.105,0.632,0.066
				c0.22-0.037,0.475-0.137,0.609-0.288c0.118-0.13,0.172-0.304,0.135-0.517c-0.077-0.444-0.321-0.492-1.074-0.628
				c-0.976-0.18-1.773-0.606-1.916-1.477c-0.09-0.551,0.095-1.055,0.394-1.425c0.336-0.421,0.955-0.744,1.815-0.894
				c0.511-0.089,0.999-0.103,1.22-0.051c0.151,0.531,0.293,1.063,0.426,1.597c-0.272,0.095-0.599,0.189-0.909,0.281
				c-0.118-0.263-0.235-0.525-0.353-0.788c-0.013-0.025-0.025-0.042-0.046-0.056c-0.124-0.069-0.304-0.093-0.475-0.063
				c-0.216,0.038-0.386,0.122-0.512,0.253c-0.102,0.109-0.199,0.299-0.157,0.547c0.075,0.443,0.289,0.5,1.17,0.639
				c1.062,0.162,1.667,0.555,1.819,1.396c0.101,0.558-0.042,1.124-0.421,1.539s-0.955,0.69-1.845,0.842
				c-0.385,0.065-1.044,0.13-1.442,0.059c-0.166-0.548-0.32-1.088-0.473-1.619c0.281-0.11,0.626-0.231,0.93-0.319
				C124.912,101.09,125.046,101.369,125.181,101.647z"/>
			<path fill="#F3F2F2" d="M128.245,96.995c-0.045-0.248-0.094-0.514-0.128-0.754c0.376-0.069,0.931-0.172,1.352-0.252
				c0.438-0.083,0.949-0.18,1.324-0.253c0.045,0.23,0.09,0.514,0.137,0.753c-0.187,0.045-0.373,0.091-0.56,0.136
				c-0.018,0.003-0.017,0.012-0.01,0.047c0.255,1.381,0.51,2.762,0.766,4.144c0.206-0.027,0.412-0.055,0.618-0.083
				c0.046,0.239,0.098,0.504,0.138,0.762c-0.375,0.073-0.916,0.167-1.373,0.253c-0.421,0.08-0.932,0.184-1.353,0.261
				c-0.045-0.248-0.087-0.524-0.132-0.772c0.176-0.038,0.351-0.077,0.526-0.115c0.018-0.003,0.033-0.024,0.03-0.042
				c-0.257-1.387-0.515-2.774-0.772-4.161C128.62,96.944,128.433,96.969,128.245,96.995z"/>
			<path fill="#F3F2F2" d="M134.096,100.237c0.018-0.004,0.024-0.023,0.02-0.041c-0.28-1.376-0.56-2.752-0.839-4.129
				c-0.34,0.069-0.487,0.126-0.61,0.169c-0.12,0.052-0.134,0.119-0.135,0.211c0.003,0.293,0.005,0.586,0.008,0.88
				c-0.318,0.045-0.675,0.088-0.97,0.109c-0.082-0.608-0.164-1.216-0.235-1.816c0.188-0.037,0.529-0.095,0.843-0.157
				c0.232-0.045,1.42-0.286,1.75-0.355c0.277-0.056,1.428-0.298,1.669-0.35c0.355-0.085,0.667-0.152,0.845-0.191
				c0.163,0.582,0.329,1.172,0.475,1.758c-0.289,0.099-0.624,0.199-0.942,0.294c-0.108-0.271-0.216-0.543-0.323-0.814
				c-0.039-0.093-0.083-0.129-0.206-0.131s-0.233,0.003-0.627,0.086c0.28,1.382,0.561,2.765,0.84,4.147
				c0.221-0.034,0.441-0.068,0.662-0.103c0.05,0.238,0.106,0.502,0.151,0.759c-0.383,0.081-0.932,0.188-1.416,0.287
				c-0.438,0.09-0.975,0.208-1.432,0.3c-0.051-0.256-0.094-0.514-0.144-0.761C133.687,100.338,133.892,100.288,134.096,100.237z"/>
			<path fill="#F3F2F2" d="M139.665,99.045c0.027-0.006,0.032-0.026,0.026-0.053c-0.098-0.436-0.197-0.872-0.295-1.309
				c-0.538-0.571-1.57-1.779-2.125-2.433c-0.004-0.018-0.038-0.046-0.056-0.043c-0.12,0.021-0.241,0.041-0.361,0.061
				c-0.054-0.246-0.113-0.519-0.154-0.75c0.294-0.064,0.775-0.169,1.123-0.247c0.525-0.117,1.14-0.255,1.575-0.355
				c0.052,0.228,0.106,0.502,0.153,0.75c-0.177,0.049-0.353,0.099-0.53,0.148c0.415,0.589,0.901,1.235,1.302,1.744
				c0.015-0.003,0.03-0.007,0.045-0.01c0.186-0.671,0.355-1.367,0.465-2.104c0.004-0.02-0.018-0.033-0.038-0.038
				c-0.162,0.032-0.323,0.063-0.485,0.094c-0.057-0.245-0.109-0.511-0.157-0.758c0.365-0.084,0.827-0.192,1.253-0.293
				c0.285-0.067,0.578-0.137,0.8-0.19c0.057,0.236,0.122,0.507,0.163,0.757c-0.129,0.037-0.259,0.074-0.388,0.111
				c-0.242,0.798-0.714,2.288-1.048,3.187c0.099,0.455,0.198,0.909,0.296,1.364c0.226-0.04,0.453-0.081,0.679-0.121
				c0.055,0.237,0.117,0.5,0.167,0.756c-0.391,0.091-0.947,0.211-1.42,0.319c-0.436,0.1-0.962,0.228-1.398,0.325
				c-0.055-0.246-0.114-0.509-0.16-0.757C139.287,99.148,139.476,99.096,139.665,99.045z"/>
		</g>
	</g>
	<path fill="#E31837" d="M84.098,169.265l-2.803,7.895l-4.868-14.199l-2.681,6.294c-19.727,0.132-47.206-7.892-48.482-8.978
		c3.283,9.209,12.236,13.457,13.053,13.83l41.827,16.854l41.794-16.842c0.118-0.053,9.635-4.324,13.067-13.838
		C133.628,161.38,104.841,169.4,84.098,169.265z"/>
	<path fill="#E5E5E5" d="M133.5,160.869c-0.515,0.166-1.032,0.32-1.551,0.469c-1.039,0.297-2.084,0.577-3.133,0.842
		c-2.094,0.531-4.199,1.021-6.311,1.481c-4.225,0.915-8.471,1.724-12.734,2.403c-8.524,1.336-12.486,2.152-25.654,2.447
		l-0.438-0.008l-0.211,0.543c-0.717,1.834-1.434,3.668-2.129,5.511l-4.119-11.869l-0.773-2.126l-0.811,2.062l-2.409,6.117
		c-8.01-0.15-16.052-1.162-23.99-2.528c-4.06-0.707-8.097-1.542-12.111-2.483c-2.009-0.473-4.009-0.977-5.997-1.52
		c-0.996-0.271-1.986-0.555-2.972-0.86c-0.493-0.149-0.983-0.308-1.472-0.476c-0.484-0.172-0.98-0.332-1.422-0.598
		c0.435,0.28,0.927,0.455,1.406,0.643c0.482,0.184,0.969,0.355,1.457,0.523c0.977,0.334,1.963,0.648,2.949,0.951
		c1.973,0.605,3.961,1.17,5.955,1.705c3.992,1.066,8.013,2.029,12.062,2.863c4.051,0.838,8.127,1.557,12.236,2.1
		c4.107,0.545,8.252,0.91,12.422,0.961l0.477,0.006l0.213-0.479l1.857-4.162c0.639,1.902,4.346,12.568,4.969,14.475l0.83-2.406
		c0.852-2.475,1.637-5.288,2.523-7.748c0,0,8.119-0.354,12.43-0.871c4.312-0.514,8.596-1.205,12.852-2.016
		c4.259-0.806,8.488-1.744,12.691-2.786c2.1-0.524,4.191-1.075,6.273-1.672c1.041-0.296,2.078-0.605,3.109-0.934
		c0.515-0.165,1.029-0.335,1.539-0.517c0.507-0.187,1.025-0.357,1.489-0.637C134.533,160.541,134.011,160.698,133.5,160.869z"/>
	<g>
		<g>
			<path fill="#F3F2F2" stroke="#F3F2F2" stroke-width="0.75" stroke-miterlimit="10" d="M41.605,135.608
				c-0.056,1.272-0.112,2.545-0.169,3.818c-0.726-0.032-1.451-0.065-2.177-0.099c0.171-3.668,0.343-7.337,0.515-11.005
				c1.41,0.066,2.82,0.128,4.231,0.187c2.199,0.092,3.608,1.4,3.521,3.749c-0.086,2.331-1.602,3.533-3.821,3.44
				C43.004,135.669,42.305,135.639,41.605,135.608z M43.788,130.458c-0.65-0.027-1.301-0.055-1.951-0.084
				c-0.048,1.093-0.097,2.187-0.145,3.28c0.653,0.029,1.306,0.057,1.958,0.084c1.124,0.047,1.696-0.613,1.734-1.563
				C45.423,131.189,44.907,130.505,43.788,130.458z"/>
			<path fill="#F3F2F2" stroke="#F3F2F2" stroke-width="0.75" stroke-miterlimit="10" d="M56.874,128.952
				c-0.018,0.669-0.036,1.339-0.054,2.009c-1.646-0.044-3.292-0.093-4.938-0.147c-0.026,0.801-0.052,1.602-0.079,2.403
				c1.498,0.049,2.996,0.094,4.493,0.135c-0.018,0.652-0.036,1.303-0.054,1.955c-1.501-0.041-3.002-0.086-4.503-0.135
				c-0.029,0.873-0.057,1.745-0.085,2.618c1.659,0.054,3.319,0.104,4.979,0.148c-0.018,0.676-0.037,1.351-0.055,2.027
				c-2.383-0.064-4.767-0.138-7.15-0.221c0.128-3.67,0.257-7.341,0.386-11.011C52.167,128.815,54.52,128.888,56.874,128.952z"/>
			<path fill="#F3F2F2" stroke="#F3F2F2" stroke-width="0.75" stroke-miterlimit="10" d="M61.247,135.968
				c-0.03,1.37-0.06,2.739-0.089,4.108c-0.726-0.016-1.452-0.032-2.178-0.05c0.089-3.671,0.177-7.343,0.266-11.015
				c1.428,0.035,2.856,0.065,4.284,0.093c2.183,0.042,3.622,1.3,3.589,3.561c-0.025,1.758-0.963,2.858-2.438,3.208
				c0.896,1.44,1.797,2.878,2.703,4.315c-0.823-0.012-1.646-0.025-2.469-0.04c-0.846-1.385-1.687-2.771-2.524-4.158
				C62.009,135.984,61.628,135.976,61.247,135.968z M61.287,134.084c0.67,0.015,1.34,0.028,2.01,0.041
				c1.09,0.021,1.663-0.58,1.679-1.495c0.016-0.933-0.533-1.553-1.619-1.574c-0.668-0.013-1.335-0.026-2.003-0.041
				C61.332,132.039,61.31,133.062,61.287,134.084z"/>
			<path fill="#F3F2F2" stroke="#F3F2F2" stroke-width="0.75" stroke-miterlimit="10" d="M70.917,137.093
				c0.28,0.972,1.046,1.428,2.074,1.437c1.062,0.009,1.767-0.49,1.771-1.369c0.004-0.664-0.369-1.024-1.272-1.247
				c-0.625-0.154-1.249-0.309-1.873-0.464c-1.498-0.374-2.646-1.232-2.623-3.044c0.027-1.992,1.603-3.37,3.786-3.352
				c2.37,0.02,3.735,1.352,4.069,3.219c-0.72-0.002-1.439-0.006-2.159-0.011c-0.234-0.737-0.824-1.315-1.91-1.324
				c-0.984-0.008-1.651,0.487-1.659,1.277c-0.007,0.627,0.381,1.009,1.162,1.213c0.634,0.161,1.268,0.321,1.903,0.481
				c1.7,0.425,2.736,1.45,2.73,3.119c-0.006,2.135-1.692,3.423-3.924,3.405c-2.351-0.02-4.001-1.263-4.331-3.366
				C69.414,137.076,70.166,137.085,70.917,137.093z"/>
			<path fill="#F3F2F2" stroke="#F3F2F2" stroke-width="0.75" stroke-miterlimit="10" d="M83.598,140.454
				c-2.937,0.012-4.974-2.399-4.966-5.683c0.009-3.302,2.028-5.683,4.92-5.694c2.893-0.012,4.948,2.353,4.983,5.655
				C88.57,138.014,86.535,140.442,83.598,140.454z M83.561,131.123c-1.645,0.007-2.713,1.496-2.713,3.649
				c0.001,2.153,1.081,3.643,2.742,3.636c1.679-0.007,2.764-1.505,2.747-3.658C86.32,132.597,85.223,131.116,83.561,131.123z"/>
			<path fill="#F3F2F2" stroke="#F3F2F2" stroke-width="0.75" stroke-miterlimit="10" d="M99.637,140.062
				c-0.577,0.013-1.155,0.025-1.732,0.037c-1.708-2.412-3.402-4.829-5.082-7.251c0.036,2.446,0.072,4.893,0.107,7.339
				c-0.703,0.01-1.406,0.02-2.109,0.028c-0.045-3.672-0.09-7.345-0.135-11.017c0.677-0.008,1.354-0.017,2.032-0.027
				c1.564,2.298,3.14,4.592,4.729,6.881c-0.046-2.32-0.093-4.64-0.139-6.96c0.694-0.014,1.389-0.028,2.083-0.044
				C99.473,132.719,99.555,136.391,99.637,140.062z"/>
			<path fill="#F3F2F2" stroke="#F3F2F2" stroke-width="0.75" stroke-miterlimit="10" d="M107.47,128.83
				c1.442,3.628,2.902,7.253,4.379,10.875c-0.743,0.027-1.486,0.053-2.229,0.079c-0.344-0.875-0.688-1.749-1.03-2.623
				c-1.311,0.042-2.621,0.083-3.932,0.12c-0.283,0.894-0.566,1.787-0.851,2.68c-0.731,0.02-1.463,0.039-2.195,0.057
				c1.253-3.704,2.489-7.412,3.708-11.121C106.036,128.874,106.753,128.852,107.47,128.83z M105.286,135.322
				c0.853-0.024,1.706-0.05,2.558-0.078c-0.465-1.206-0.929-2.413-1.391-3.619C106.066,132.858,105.677,134.09,105.286,135.322z"/>
			<path fill="#F3F2F2" stroke="#F3F2F2" stroke-width="0.75" stroke-miterlimit="10" d="M113.397,128.621
				c0.722-0.028,1.444-0.057,2.167-0.086c0.124,2.994,0.247,5.988,0.37,8.982c1.63-0.067,3.26-0.138,4.891-0.214
				c0.031,0.675,0.063,1.35,0.095,2.025c-2.365,0.111-4.731,0.211-7.097,0.303C113.68,135.96,113.539,132.291,113.397,128.621z"/>
		</g>
	</g>
	<g>
		<g>
			<path fill="#F3F2F2" stroke="#F3F2F2" stroke-width="0.75" stroke-miterlimit="10" d="M42.832,144.349
				c2.956,0.138,5.913,0.259,8.87,0.364c-0.024,0.669-0.048,1.339-0.071,2.009c-1.12-0.04-2.241-0.082-3.361-0.126
				c-0.119,3-0.238,6-0.357,9c-0.738-0.029-1.476-0.06-2.214-0.091c0.127-3,0.255-6,0.382-9c-1.115-0.047-2.229-0.097-3.343-0.149
				C42.769,145.687,42.8,145.018,42.832,144.349z"/>
			<path fill="#F3F2F2" stroke="#F3F2F2" stroke-width="0.75" stroke-miterlimit="10" d="M55.762,151.758
				c-0.041,1.369-0.083,2.739-0.124,4.108c-0.727-0.022-1.454-0.045-2.18-0.069c0.121-3.67,0.241-7.341,0.361-11.012
				c1.428,0.047,2.856,0.09,4.284,0.129c2.183,0.06,3.611,1.329,3.561,3.59c-0.04,1.758-0.986,2.85-2.465,3.189
				c0.885,1.447,1.776,2.892,2.671,4.336c-0.824-0.018-1.648-0.038-2.472-0.059c-0.835-1.391-1.666-2.784-2.492-4.178
				C56.525,151.781,56.144,151.77,55.762,151.758z M55.819,149.875c0.67,0.02,1.34,0.04,2.011,0.058
				c1.091,0.03,1.669-0.566,1.692-1.481c0.023-0.933-0.521-1.557-1.607-1.587c-0.667-0.018-1.335-0.038-2.003-0.058
				C55.88,147.83,55.85,148.853,55.819,149.875z"/>
			<path fill="#F3F2F2" stroke="#F3F2F2" stroke-width="0.75" stroke-miterlimit="10" d="M69.436,145.144
				c1.278,3.689,2.576,7.376,3.891,11.059c-0.744-0.006-1.488-0.013-2.233-0.021c-0.305-0.889-0.609-1.777-0.912-2.667
				c-1.312-0.016-2.625-0.035-3.937-0.057c-0.323,0.88-0.647,1.76-0.972,2.639c-0.733-0.013-1.465-0.027-2.198-0.043
				c1.422-3.644,2.825-7.291,4.21-10.942C68.001,145.124,68.718,145.134,69.436,145.144z M66.961,151.532
				c0.854,0.014,1.708,0.026,2.561,0.037c-0.411-1.226-0.82-2.452-1.228-3.678C67.852,149.105,67.408,150.319,66.961,151.532z"/>
			<path fill="#F3F2F2" stroke="#F3F2F2" stroke-width="0.75" stroke-miterlimit="10" d="M77.502,156.227
				c-0.732-0.002-1.465-0.005-2.198-0.01c0.021-3.672,0.042-7.345,0.062-11.017c0.723,0.004,1.445,0.007,2.168,0.009
				C77.523,148.881,77.513,152.554,77.502,156.227z"/>
			<path fill="#F3F2F2" stroke="#F3F2F2" stroke-width="0.75" stroke-miterlimit="10" d="M89.043,156.177
				c-0.578,0.007-1.156,0.013-1.734,0.018c-1.683-2.431-3.35-4.867-5.003-7.309c0.007,2.446,0.015,4.893,0.022,7.339
				c-0.704,0.002-1.408,0.003-2.112,0.004c-0.002-3.673-0.003-7.345-0.005-11.018c0.677,0,1.354-0.001,2.032-0.004
				c1.537,2.316,3.087,4.628,4.651,6.935c-0.021-2.32-0.041-4.641-0.061-6.961c0.694-0.006,1.389-0.013,2.083-0.021
				C88.959,148.833,89.001,152.505,89.043,156.177z"/>
			<path fill="#F3F2F2" stroke="#F3F2F2" stroke-width="0.75" stroke-miterlimit="10" d="M93.974,156.106
				c-0.733,0.013-1.465,0.025-2.198,0.036c-0.054-3.672-0.109-7.344-0.163-11.017c0.723-0.011,1.445-0.022,2.168-0.035
				C93.845,148.762,93.91,152.434,93.974,156.106z"/>
			<path fill="#F3F2F2" stroke="#F3F2F2" stroke-width="0.75" stroke-miterlimit="10" d="M105.512,155.821
				c-0.578,0.019-1.156,0.036-1.734,0.053c-1.732-2.396-3.45-4.797-5.152-7.205c0.058,2.446,0.115,4.892,0.173,7.337
				c-0.704,0.017-1.408,0.032-2.112,0.047c-0.077-3.671-0.153-7.343-0.23-11.015c0.677-0.014,1.355-0.029,2.032-0.045
				c1.584,2.284,3.182,4.563,4.792,6.838c-0.068-2.32-0.136-4.639-0.204-6.959c0.694-0.021,1.389-0.042,2.083-0.064
				C105.278,148.479,105.396,152.15,105.512,155.821z"/>
			<path fill="#F3F2F2" stroke="#F3F2F2" stroke-width="0.75" stroke-miterlimit="10" d="M113.075,151.593
				c-0.025-0.609-0.051-1.219-0.076-1.829c1.375-0.057,2.749-0.117,4.123-0.182c0.015,0.323,0.03,0.646,0.045,0.968
				c0.145,3.046-1.687,5.075-4.35,5.184c-2.939,0.121-5.166-2.122-5.279-5.493c-0.113-3.372,1.939-5.757,4.762-5.873
				c2.503-0.103,4.079,1.349,4.573,3.536c-0.731,0.034-1.462,0.067-2.193,0.099c-0.419-1.024-1.092-1.641-2.296-1.591
				c-1.712,0.07-2.708,1.632-2.629,3.748c0.079,2.133,1.215,3.619,2.979,3.547c1.353-0.056,2.156-0.936,2.339-2.201
				C114.407,151.537,113.741,151.565,113.075,151.593z"/>
		</g>
	</g>
	<path fill="#202020" d="M213.834,177.367c0,0-16.699-7.299-16.371-24.637c0.307-16.428,2.732-80.945,2.732-80.945
		c3.726,2.787,28.169,9.633,56.785,9.633c28.614,0,53.061-6.846,56.785-9.633c0,0,2.427,64.518,2.736,80.945
		c0.326,17.338-16.374,24.637-16.374,24.637l-43.147,17.389L213.834,177.367z"/>
	<path d="M215.155,174.107c-1.013-0.461-14.522-6.869-14.251-21.307c0.256-13.467,1.957-60.152,2.541-75.705
		c10.033,3.572,31.168,7.852,53.535,7.852s43.504-4.279,53.539-7.852c0.581,15.553,2.285,62.238,2.539,75.705
		c0.277,14.785-14.137,21.254-14.283,21.318L256.98,190.96L215.155,174.107z"/>
	<path d="M313.766,71.785c-3.725,2.787-28.171,9.633-56.785,9.633c-28.616,0-53.06-6.846-56.785-9.633
		c0,0-2.426,64.518-2.732,80.945c-0.328,17.338,16.371,24.637,16.371,24.637l43.146,17.389l43.147-17.389
		c0,0,16.7-7.299,16.374-24.637C316.192,136.302,313.766,71.785,313.766,71.785z M298.775,174.119L256.98,190.96l-41.825-16.854
		c-1.013-0.461-14.522-6.869-14.251-21.307c0.256-13.467,1.957-60.152,2.541-75.705c10.033,3.572,31.168,7.852,53.535,7.852
		s43.504-4.279,53.539-7.852c0.581,15.553,2.285,62.238,2.539,75.705C313.336,167.585,298.922,174.054,298.775,174.119z"/>
	<path fill="#F3F2F2" d="M202.008,116.646c0.543-15.529,1.138-31.564,1.438-39.551c10.033,3.572,31.168,7.852,53.535,7.852
		s43.504-4.279,53.539-7.852c0.299,7.986,0.895,24.016,1.436,39.543C312.064,119.775,201.9,119.779,202.008,116.646z"/>
	<path fill="#202020" d="M289.886,68.511l-0.522-3.27c-1.791-10.281-3.668-10.428-4.914-10.52c-0.8-0.061-1.865-0.143-3.432,2.434
		c-0.429-5.057-2.373-10.174-5.236-13.398l-0.914-4.451c-3.125-13.164-4.811-13.162-6.298-13.162c-1.561,0-3.332,0.004-5.246,13.158
		l-0.694,4.764c-2.955,3.527-4.844,9.105-5.002,14.418c0,0-0.236,0.844-0.312,0.844c-0.093,0-0.37-0.844-0.37-0.844
		c-0.193-6.029-2.611-12.389-6.281-15.715l-0.805-3.916c-3.13-13.166-4.811-13.162-6.297-13.162c-1.562,0-3.338,0.002-5.25,13.162
		l-1.061,6.949c-2.357,3.67-3.783,8.711-3.779,13.451c0,0.168,0.016,0.324,0.016,0.492c-2.146-4.711-3.512-4.611-4.49-4.537
		c-1.237,0.092-3.109,0.238-4.976,10.35l-0.897,4.861c-2.707,3.713-4.377,9.188-4.376,14.312
		c0.013,10.152,6.299,13.77,11.713,13.789c3.415,0.424,6.112-0.115,4.077,3.094c-0.008,0.012-0.008,0.02-0.013,0.029
		c-2.53,3.336-4.479,7.551-3.366,12.01c1.086,4.295,5.418,8.076,10.548,9.189c4.164,0.902,7.83-0.184,10.071-2.986
		c3.209-4.012,3.556-4.002,5.021-3.98l0.701,0.01l0.707-0.012c1.459-0.027,1.809-0.033,5.021,3.973
		c1.373,1.711,4.512,4.064,9.67,3.059c5.165-1.006,9.771-4.752,10.898-9.285c1.316-5.279-1.666-10.219-4.828-13.744
		c0.027-1.318,2.402-1.006,5.148-1.402c0.002,0,0.006,0,0.01,0c5.427-0.004,11.756-3.623,11.744-13.814
		C295.869,78.601,293.521,72.054,289.886,68.511z"/>
	<path d="M244.5,127.363c-1.2,0-2.443-0.137-3.685-0.41c-6.73-1.457-12.246-6.391-13.732-12.27
		c-0.972-3.877-0.347-7.98,1.807-12.035c-7.362-0.709-14.335-6.336-14.345-17.914c-0.005-5.693,1.705-11.58,4.609-15.967
		l0.729-3.973c1.559-8.43,3.496-13.383,8.801-13.781c0.229-0.018,0.465-0.033,0.711-0.033c0.354,0,0.691,0.027,1.016,0.078
		c0.676-2.412,1.629-4.713,2.811-6.73l0.932-6.109c1.646-11.33,3.479-16.734,9.41-16.734c5.593,0,7.641,4.832,10.391,16.396
		l0.577,2.805c1.007,1.092,1.928,2.359,2.74,3.762c0.423-0.736,0.878-1.436,1.355-2.088l0.533-3.66
		c1.69-11.594,3.444-16.764,9.41-16.764c5.598,0,7.647,4.836,10.394,16.4l0.73,3.545c1.849,2.367,3.336,5.355,4.313,8.615
		c0.015,0,0.028,0,0.039,0c0.255,0,0.491,0.014,0.714,0.029c5.348,0.398,7.258,5.434,8.748,13.996l0.33,2.053
		c3.822,4.406,6.24,11.318,6.246,18.082c0.004,7.283-2.783,11.504-5.127,13.758c-2.402,2.324-5.521,3.766-8.92,4.158
		c2.182,4.061,2.818,8.152,1.846,12.062c-1.506,6.059-7.202,11.039-14.175,12.4c-1.087,0.211-2.169,0.32-3.214,0.32
		c-5.99,0-9.368-3.41-10.543-4.875c-1.05-1.305-1.663-2.016-2.023-2.395l-0.357,0.006l-0.486-0.006
		c-0.357,0.379-0.973,1.09-2.02,2.4C252.553,125.628,248.801,127.363,244.5,127.363z"/>
	<g>
		<path fill="#FFFFFF" d="M250.664,42.736l-0.805-3.918c-3.13-13.166-4.811-13.162-6.297-13.162c-1.562,0-3.338,0.002-5.25,13.162
			l-1.061,6.949c-2.357,3.67-3.783,8.713-3.779,13.451c0,0.17,0.016,0.324,0.016,0.494c-2.146-4.715-3.512-4.611-4.49-4.539
			c-1.237,0.094-3.109,0.238-4.976,10.35l-0.897,4.861c-2.707,3.715-4.377,9.191-4.376,14.311
			c0.013,10.191,6.347,13.803,11.771,13.795c5.421-0.002,11.753-3.625,11.743-13.818c-0.006-5.082-1.664-10.51-4.342-14.219
			c2.173,1.797,4.837,2.559,7.318,2.557c5.424,0,11.752-3.625,11.74-13.812C256.977,52.955,254.486,46.201,250.664,42.736z"/>
	</g>
	<g>
		<path fill="none" d="M283.384,65.871c-0.04-0.023-0.081-0.051-0.117-0.078c-0.058,0.035-0.136,0.076-0.232,0.127
			C283.152,65.9,283.267,65.884,283.384,65.871z"/>
		<path fill="#FFFFFF" d="M289.886,68.476l-0.522-3.268c-1.791-10.281-3.668-10.428-4.914-10.52c-0.8-0.062-1.865-0.145-3.432,2.432
			c-0.429-5.057-2.373-10.174-5.236-13.396l-0.914-4.453c-3.125-13.166-4.811-13.162-6.298-13.162c-1.561,0-3.332,0.004-5.246,13.16
			l-0.694,4.762c-3.092,3.693-5.038,9.637-5.033,15.166c0.01,10.191,6.346,13.793,11.769,13.793c2.483,0,5.143-0.773,7.313-2.572
			c-2.675,3.715-4.322,9.141-4.317,14.225c0.011,10.197,6.347,13.805,11.769,13.799c5.427-0.002,11.756-3.627,11.744-13.814
			C295.869,78.566,293.521,72.021,289.886,68.476z M283.384,65.871c-0.117,0.014-0.231,0.029-0.35,0.049
			c0.097-0.051,0.175-0.092,0.232-0.127C283.303,65.82,283.344,65.847,283.384,65.871z"/>
	</g>
	<g>
		<path fill="#FFFFFF" d="M273.824,95.13c-0.863-0.645-1.809-4.262-2.492-6.906c-1.896-7.305-4.491-17.312-13.908-17.301
			c-10.096,0.018-13.113,14.482-13.843,17.311c-0.678,2.643-1.61,6.258-2.474,6.906c-2.873,2.164-12.098,9.885-9.947,18.48
			c1.086,4.295,5.418,8.08,10.548,9.188c4.164,0.906,7.83-0.182,10.071-2.982c3.209-4.016,3.556-4.008,5.021-3.984l0.701,0.01
			l0.707-0.014c1.459-0.023,1.809-0.031,5.021,3.975c1.373,1.713,4.512,4.064,9.67,3.057c5.165-1.004,9.771-4.748,10.898-9.283
			C285.939,105,276.703,97.292,273.824,95.13z"/>
	</g>
	<path fill="#545454" d="M257.502,113.74c2.68-0.004,3.218-0.541,7.51,4.814c1.082,1.354,2.576,2.086,4.23,2.332l-20.748-40.473
		c-2.787,6.271-3.396,14.746-6.023,16.717c-4.285,3.221-10.713,9.66-9.094,16.096c1.614,6.43,12.338,10.705,16.623,5.348
		C254.282,113.207,254.82,113.74,257.502,113.74"/>
	<path d="M269.202,120.908c4.896,0.721,11.188-2.895,12.386-7.705c1.6-6.438-4.834-12.867-9.129-16.076
		c-4.292-3.213-3.24-23.764-15.029-23.754c-4.578,0.004-7.211,3.094-8.972,7.061L269.202,120.908z"/>
	<path d="M245.236,70.732c5.234-0.004,9.475-3.787,9.467-11.535c-0.006-7.744-4.26-16.521-9.488-16.518
		c-5.237,0.01-9.474,8.789-9.463,16.537C235.756,66.962,240.003,70.736,245.236,70.732"/>
	<path d="M230.52,96.21c5.232-0.008,9.468-3.787,9.465-11.535c-0.007-7.744-4.258-16.523-9.49-16.518
		c-5.236,0.006-9.475,8.789-9.465,16.535C221.039,92.441,225.28,96.214,230.52,96.21"/>
	<path d="M269.357,70.707c-5.229,0.008-9.475-3.764-9.481-11.514c-0.009-7.746,4.228-16.533,9.459-16.537
		c5.233-0.004,9.489,8.773,9.495,16.521C278.834,66.921,274.597,70.705,269.357,70.707"/>
	<path d="M284.129,96.162c-5.232,0.002-9.48-3.773-9.49-11.52c-0.004-7.742,4.229-16.527,9.465-16.533
		c5.232-0.006,9.483,8.771,9.491,16.518C293.602,92.375,289.361,96.158,284.129,96.162"/>
	<path d="M247.64,39.341l-4.068-2.934l-3.005,2.734c0,0,1.631-11.205,3-11.205C244.932,27.933,247.64,39.341,247.64,39.341"/>
	<path d="M272.651,39.798l-4.072-2.936l-3.001,2.732c0,0,1.629-11.203,2.991-11.203C269.939,28.388,272.651,39.798,272.651,39.798"
		/>
	<path d="M287.12,65.599l-3.736-2.457l-3.278,1.764c0,0,2.811-8.049,4.166-7.945C285.633,57.066,287.12,65.599,287.12,65.599"/>
	<path d="M233.301,65.552l-4.066-1.857l-2.971,2.24c0,0,1.55-8.383,2.911-8.488C230.535,57.343,233.301,65.552,233.301,65.552"/>
	<g>
		<path fill="#545454" d="M256.98,111.267c-22.893,0-48.872-3.349-69.496-8.959l-1.123-0.306l0.528-15.536l1.789,0.482
			c9.758,2.629,35.947,8.743,68.301,8.743c32.348,0,58.544-6.114,68.305-8.743l1.79-0.482l0.527,15.536l-1.123,0.306
			C305.854,107.918,279.874,111.267,256.98,111.267z"/>
		<path d="M325.668,88.369c0.135,3.992,0.279,8.205,0.425,12.52c-17.017,4.629-42.479,8.908-69.112,8.908
			c-26.633,0-52.094-4.279-69.109-8.908c0.145-4.314,0.289-8.527,0.426-12.52c17.01,4.582,42.27,8.793,68.684,8.793
			C283.396,97.162,308.652,92.951,325.668,88.369 M328.483,84.564l-3.58,0.964c-9.705,2.613-35.75,8.691-67.922,8.691
			c-32.178,0-58.217-6.078-67.918-8.691l-3.578-0.964l-0.127,3.704l-0.025,0.728c-0.129,3.775-0.265,7.74-0.401,11.793l-0.078,2.326
			l2.246,0.611c9.959,2.709,36.707,9.012,69.881,9.012c33.176,0,59.924-6.302,69.884-9.012l2.247-0.611l-0.079-2.327l-0.228-6.717
			l-0.197-5.802L328.483,84.564L328.483,84.564z"/>
	</g>
	<g>
		<g>
			<path fill="#F3F2F2" d="M194.345,98.301c0.019,0.004,0.03-0.003,0.036-0.029c0.324-1.376,0.648-2.751,0.972-4.127
				c-0.171-0.047-0.341-0.094-0.512-0.141c0.059-0.245,0.122-0.508,0.188-0.742c0.498,0.12,1.19,0.284,1.706,0.404
				c0.452,1.113,1.186,3.054,1.695,4.394c0.018,0.004,0.036,0.008,0.054,0.012c0.205-1.006,0.434-2.035,0.652-3.056
				c-0.216-0.054-0.432-0.109-0.648-0.164c0.053-0.237,0.125-0.516,0.186-0.742c0.347,0.078,0.765,0.171,1.157,0.258
				c0.312,0.069,0.679,0.14,0.947,0.197c-0.052,0.238-0.109,0.501-0.171,0.746c-0.133-0.02-0.267-0.039-0.399-0.059
				c-0.018-0.004-0.038,0.001-0.045,0.036c-0.363,1.604-0.726,3.208-1.089,4.812c-0.208,0.038-0.683,0.025-1.147-0.078
				c-0.446-0.829-1.175-2.331-1.854-4.08c-0.022-0.002-0.043-0.004-0.065-0.006c-0.209,0.894-0.417,1.742-0.629,2.608
				c0.222,0.058,0.444,0.115,0.667,0.173c-0.057,0.246-0.12,0.518-0.184,0.752c-0.382-0.088-0.873-0.203-1.299-0.304
				c-0.3-0.071-0.611-0.136-0.865-0.197c0.059-0.245,0.122-0.508,0.19-0.75C194.039,98.246,194.192,98.273,194.345,98.301z"/>
			<path fill="#F3F2F2" d="M201.192,99.975c-0.442-0.655-0.555-1.406-0.355-2.339c0.25-1.162,1.039-1.959,1.863-2.247
				c0.624-0.22,1.206-0.247,1.893-0.108c0.563,0.114,1.053,0.357,1.461,0.74c0.604,0.567,0.879,1.572,0.682,2.607
				c-0.163,0.857-0.645,1.71-1.377,2.165c-0.673,0.4-1.445,0.505-2.331,0.326C202.215,100.952,201.545,100.509,201.192,99.975z
				 M204.217,100.199c0.397-0.333,0.645-0.964,0.789-1.697c0.141-0.716,0.113-1.381-0.021-1.831
				c-0.111-0.38-0.364-0.605-0.696-0.672c-0.367-0.074-0.645,0.007-0.901,0.211c-0.325,0.264-0.652,0.849-0.826,1.687
				c-0.185,0.89-0.176,1.49,0.064,1.934c0.192,0.353,0.464,0.509,0.747,0.566C203.664,100.457,203.919,100.462,204.217,100.199z"/>
			<path fill="#F3F2F2" d="M207.963,96.815c0.048-0.256,0.094-0.504,0.149-0.75c0.61,0.106,1.374,0.236,2.072,0.362
				c0.511,0.091,0.789,0.14,1.296,0.356c0.75,0.305,1.137,1.081,1.042,1.649c-0.127,0.755-0.706,1.205-1.386,1.352
				c-0.003,0.018-0.006,0.036-0.009,0.053c0.367,0.256,0.498,0.799,0.769,1.693c0.063,0.239,0.112,0.339,0.22,0.366
				c0.144,0.042,0.287,0.084,0.43,0.127c-0.04,0.24-0.09,0.487-0.132,0.735c-0.165-0.027-0.497-0.074-0.671-0.104
				c-0.202-0.034-0.983-0.158-1.157-0.188c-0.169-0.441-0.427-1.546-0.535-1.995c-0.07-0.296-0.214-0.431-0.423-0.469
				c-0.109-0.019-0.183-0.023-0.212-0.02c-0.088,0.475-0.177,0.95-0.265,1.425c0.163,0.039,0.325,0.077,0.488,0.115
				c-0.053,0.247-0.096,0.486-0.14,0.734c-0.357-0.063-0.861-0.154-1.31-0.236c-0.384-0.07-0.814-0.15-1.162-0.215
				c0.056-0.246,0.1-0.485,0.146-0.732c0.151,0.019,0.302,0.038,0.453,0.057c0.018,0.003,0.03-0.012,0.032-0.021
				c0.262-1.395,0.524-2.79,0.786-4.185C208.284,96.888,208.124,96.852,207.963,96.815z M209.55,99.239
				c0.035,0.016,0.089,0.025,0.216,0.048c0.607,0.108,1.052-0.244,1.154-0.829c0.113-0.647-0.208-1.197-0.684-1.282
				c-0.153-0.027-0.235-0.033-0.292-0.025C209.812,97.848,209.682,98.543,209.55,99.239z"/>
			<path fill="#F3F2F2" d="M214.52,102.3c0.019,0.003,0.031-0.013,0.034-0.031c0.22-1.387,0.441-2.774,0.661-4.161
				c-0.343-0.054-0.5-0.053-0.629-0.055c-0.13,0.006-0.167,0.064-0.2,0.15c-0.1,0.275-0.201,0.551-0.301,0.827
				c-0.313-0.069-0.662-0.154-0.945-0.238c0.137-0.598,0.273-1.196,0.417-1.783c0.188,0.031,0.528,0.097,0.842,0.147
				c0.233,0.039,1.428,0.229,1.76,0.28c0.279,0.044,1.438,0.221,1.682,0.256c0.361,0.045,0.676,0.091,0.856,0.117
				c-0.051,0.602-0.104,1.213-0.172,1.813c-0.304-0.008-0.652-0.032-0.982-0.054c-0.006-0.292-0.012-0.584-0.017-0.876
				c-0.003-0.101-0.033-0.15-0.146-0.195s-0.219-0.079-0.615-0.139c-0.223,1.393-0.445,2.786-0.667,4.179
				c0.218,0.045,0.436,0.091,0.654,0.136c-0.036,0.241-0.076,0.507-0.124,0.764c-0.386-0.058-0.936-0.151-1.423-0.227
				c-0.441-0.069-0.984-0.146-1.443-0.22c0.042-0.257,0.092-0.514,0.133-0.762C214.102,102.251,214.311,102.276,214.52,102.3z"/>
			<path fill="#F3F2F2" d="M219.072,102.984c0.029-0.005,0.04-0.013,0.043-0.04c0.197-1.394,0.394-2.787,0.591-4.181
				c-0.164-0.032-0.329-0.065-0.493-0.097c0.035-0.241,0.074-0.517,0.118-0.756c0.36,0.052,0.891,0.127,1.296,0.183
				c0.433,0.06,0.937,0.128,1.288,0.175c-0.032,0.241-0.069,0.518-0.11,0.757c-0.176-0.014-0.352-0.029-0.527-0.044
				c-0.009-0.001-0.01,0.008-0.015,0.043c-0.074,0.52-0.147,1.04-0.221,1.56c-0.002,0.018,0.006,0.028,0.015,0.029
				c0.618,0.087,1.236,0.171,1.854,0.254c0.073-0.547,0.146-1.095,0.22-1.642c-0.183-0.033-0.366-0.065-0.548-0.098
				c0.033-0.25,0.067-0.518,0.108-0.757c0.369,0.048,0.893,0.115,1.352,0.172c0.388,0.049,0.866,0.107,1.217,0.15
				c-0.028,0.232-0.063,0.527-0.1,0.758c-0.149-0.009-0.298-0.018-0.447-0.027c-0.018-0.002-0.028,0.006-0.031,0.032
				c-0.18,1.396-0.36,2.792-0.54,4.188c0.167,0.032,0.334,0.065,0.501,0.097c-0.029,0.241-0.072,0.517-0.111,0.766
				c-0.359-0.043-0.875-0.115-1.252-0.163c-0.488-0.061-1.015-0.12-1.429-0.174c0.033-0.25,0.069-0.526,0.109-0.766
				c0.197,0.017,0.394,0.033,0.591,0.049c0.019,0.002,0.038-0.004,0.042-0.031c0.069-0.566,0.139-1.132,0.208-1.698
				c0.002-0.018-0.004-0.037-0.022-0.039c-0.621-0.074-1.242-0.15-1.863-0.228c-0.082,0.579-0.164,1.159-0.246,1.738
				c0.188,0.038,0.376,0.075,0.564,0.112c-0.032,0.241-0.058,0.51-0.103,0.768c-0.368-0.049-0.9-0.13-1.352-0.193
				c-0.396-0.055-0.903-0.118-1.289-0.173c0.036-0.25,0.074-0.517,0.11-0.766C218.758,102.958,218.915,102.971,219.072,102.984z"/>
			<path fill="#F3F2F2" d="M226.04,103.888c0.028,0.003,0.048-0.013,0.05-0.031c0.162-1.404,0.323-2.808,0.485-4.212
				c-0.174-0.026-0.349-0.052-0.522-0.079c0.03-0.259,0.071-0.526,0.108-0.766c0.333,0.039,0.803,0.093,1.182,0.135
				c0.28,0.033,1.896,0.208,2.113,0.229c0.379,0.04,0.696,0.062,0.895,0.083c-0.017,0.532-0.035,1.073-0.07,1.604
				c-0.267,0.009-0.589,0.013-0.901,0.007c-0.025-0.235-0.049-0.47-0.074-0.705c-0.009-0.083-0.04-0.14-0.165-0.171
				c-0.125-0.032-0.384-0.095-0.945-0.156c-0.028-0.003-0.063-0.007-0.091-0.01c-0.064,0.566-0.129,1.133-0.194,1.7
				c0.282,0.031,0.548,0.05,0.804,0.068c0.056-0.003,0.108-0.061,0.137-0.158c0.03-0.111,0.061-0.223,0.091-0.334
				c0.291,0.031,0.59,0.071,0.853,0.107c-0.028,0.278-0.072,0.608-0.104,0.931c-0.033,0.323-0.075,0.644-0.099,0.877
				c-0.268-0.009-0.571-0.032-0.864-0.063c-0.002-0.121-0.005-0.242-0.008-0.363c0.005-0.135-0.035-0.193-0.117-0.202
				c-0.255-0.036-0.51-0.073-0.775-0.102c-0.061,0.528-0.122,1.056-0.183,1.583c-0.019,0.17,0.042,0.204,0.457,0.249
				c0.377,0.041,0.61,0.038,0.742,0.024c0.095-0.017,0.146-0.057,0.193-0.151c0.114-0.229,0.227-0.459,0.34-0.689
				c0.307,0.077,0.622,0.172,0.883,0.252c-0.153,0.51-0.325,1.026-0.499,1.542c-0.462-0.046-1.744-0.187-3.026-0.332
				c-0.424-0.048-0.896-0.093-1.265-0.136c0.029-0.25,0.061-0.519,0.098-0.759C225.725,103.87,225.883,103.879,226.04,103.888z"/>
			<path fill="#F3F2F2" d="M230.806,104.395c0.018,0.002,0.048-0.014,0.059-0.039c0.705-1.397,1.706-3.446,2.378-4.859
				c0.165-0.003,0.58,0.034,1.24,0.09c0.395,1.552,0.941,3.755,1.336,5.24c0.156,0.024,0.312,0.048,0.467,0.072
				c-0.019,0.243-0.039,0.503-0.067,0.753c-0.306-0.023-0.758-0.059-1.11-0.088c-0.481-0.039-1.063-0.087-1.488-0.125
				c0.021-0.251,0.044-0.511,0.075-0.761c0.151,0.004,0.302,0.008,0.454,0.012c0.018,0.001,0.039-0.015,0.032-0.043
				c-0.035-0.138-0.093-0.432-0.137-0.572c-0.006-0.037-0.023-0.047-0.06-0.05c-0.568-0.042-1.135-0.087-1.703-0.133
				c-0.064,0.192-0.161,0.437-0.215,0.622c0.168,0.024,0.336,0.049,0.504,0.073c-0.022,0.242-0.046,0.502-0.078,0.752
				c-0.369-0.033-0.85-0.078-1.302-0.121c-0.305-0.029-0.628-0.061-0.905-0.088c0.024-0.25,0.06-0.51,0.093-0.75
				C230.521,104.385,230.664,104.39,230.806,104.395z M233.395,101.172c-0.268,0.646-0.551,1.334-0.799,1.926
				c-0.012,0.036-0.014,0.053,0.013,0.056c0.428,0.039,0.855,0.077,1.283,0.114c-0.141-0.608-0.296-1.363-0.452-2.091
				C233.425,101.175,233.41,101.174,233.395,101.172z"/>
			<path fill="#F3F2F2" d="M237.882,104.737c0.007,0.027,0.022,0.073,0.049,0.085c0.158,0.128,0.367,0.197,0.597,0.212
				c0.222,0.016,0.493-0.021,0.658-0.136c0.145-0.099,0.239-0.255,0.253-0.47c0.029-0.449-0.195-0.554-0.893-0.863
				c-0.904-0.405-1.576-1.007-1.509-1.887c0.042-0.557,0.341-1.003,0.717-1.292c0.425-0.33,1.101-0.499,1.969-0.441
				c0.516,0.034,0.991,0.135,1.194,0.237c0.021,0.552,0.033,1.103,0.037,1.653c-0.286,0.028-0.625,0.043-0.946,0.059
				c-0.052-0.283-0.104-0.566-0.156-0.849c-0.007-0.027-0.015-0.046-0.032-0.065c-0.104-0.097-0.272-0.162-0.445-0.173
				c-0.218-0.015-0.403,0.027-0.556,0.125c-0.125,0.082-0.263,0.244-0.281,0.495c-0.031,0.449,0.162,0.554,0.983,0.896
				c0.991,0.408,1.484,0.932,1.434,1.786c-0.034,0.566-0.305,1.083-0.77,1.396c-0.465,0.314-1.087,0.446-1.985,0.383
				c-0.389-0.027-1.042-0.119-1.412-0.282c-0.031-0.571-0.054-1.133-0.078-1.686c0.299-0.041,0.662-0.077,0.977-0.09
				C237.752,104.132,237.816,104.435,237.882,104.737z"/>
			<path fill="#F3F2F2" d="M243.326,105.312c0.019,0.001,0.029-0.017,0.03-0.035c0.071-1.402,0.142-2.805,0.213-4.208
				c-0.345-0.018-0.501,0.001-0.629,0.013c-0.129,0.02-0.159,0.082-0.183,0.17c-0.07,0.285-0.14,0.57-0.21,0.854
				c-0.318-0.036-0.672-0.083-0.962-0.135c0.072-0.609,0.143-1.218,0.223-1.818c0.19,0.011,0.534,0.04,0.851,0.057
				c0.235,0.014,1.44,0.076,1.775,0.09c0.281,0.014,1.45,0.066,1.695,0.075c0.363,0.006,0.68,0.018,0.861,0.025
				c0.014,0.604,0.027,1.217,0.022,1.821c-0.302,0.024-0.65,0.038-0.98,0.051c-0.037-0.29-0.074-0.58-0.11-0.87
				c-0.014-0.1-0.048-0.146-0.166-0.178c-0.117-0.032-0.225-0.055-0.625-0.073c-0.072,1.409-0.145,2.817-0.217,4.226
				c0.221,0.022,0.442,0.043,0.664,0.065c-0.01,0.243-0.021,0.513-0.042,0.773c-0.39-0.017-0.945-0.05-1.436-0.074
				c-0.444-0.021-0.991-0.04-1.454-0.064c0.014-0.26,0.037-0.521,0.05-0.772C242.907,105.309,243.117,105.311,243.326,105.312z"/>
			<path fill="#F3F2F2" d="M247.914,105.515c0.027,0.001,0.047-0.017,0.047-0.035c0.047-1.413,0.095-2.825,0.142-4.238
				c-0.175-0.012-0.351-0.024-0.526-0.036c0.009-0.261,0.028-0.531,0.045-0.773c0.335,0.012,0.807,0.028,1.188,0.04
				c0.281,0.01,1.904,0.054,2.122,0.057c0.38,0.009,0.698,0.006,0.897,0.01c0.026,0.532,0.051,1.073,0.06,1.604
				c-0.265,0.031-0.585,0.061-0.896,0.081c-0.043-0.232-0.087-0.464-0.13-0.697c-0.016-0.082-0.051-0.136-0.178-0.157
				c-0.127-0.021-0.39-0.063-0.954-0.079c-0.028-0.001-0.063-0.002-0.091-0.003c-0.019,0.57-0.038,1.14-0.056,1.71
				c0.283,0.008,0.549,0.006,0.806,0.003c0.055-0.007,0.103-0.069,0.123-0.168c0.021-0.114,0.042-0.227,0.063-0.341
				c0.292,0.007,0.593,0.023,0.858,0.038c-0.006,0.279-0.022,0.612-0.029,0.936s-0.022,0.647-0.027,0.882
				c-0.268,0.013-0.571,0.014-0.865,0.007c-0.013-0.121-0.025-0.241-0.037-0.361c-0.006-0.135-0.051-0.19-0.133-0.192
				c-0.257-0.015-0.513-0.031-0.78-0.039c-0.018,0.531-0.036,1.062-0.054,1.593c-0.005,0.171,0.06,0.2,0.475,0.211
				c0.379,0.01,0.61-0.012,0.74-0.036c0.093-0.024,0.141-0.069,0.179-0.167c0.095-0.238,0.189-0.476,0.284-0.714
				c0.312,0.052,0.633,0.121,0.899,0.18c-0.111,0.521-0.241,1.049-0.372,1.578c-0.463-0.009-1.751-0.045-3.039-0.085
				c-0.426-0.013-0.899-0.02-1.27-0.033c0.009-0.252,0.019-0.521,0.037-0.764C247.6,105.522,247.757,105.518,247.914,105.515z"/>
			<path fill="#F3F2F2" d="M252.895,101.342c0.004-0.261,0.008-0.513,0.021-0.765c0.617,0.001,1.388,0.001,2.095,0.006
				c0.517,0.004,0.798,0.005,1.333,0.133c0.789,0.173,1.299,0.874,1.3,1.45c0.002,0.765-0.491,1.307-1.134,1.567
				c0,0.018,0,0.036,0,0.054c0.404,0.19,0.624,0.703,1.04,1.54c0.102,0.225,0.167,0.315,0.278,0.323
				c0.148,0.018,0.296,0.035,0.444,0.053c0.001,0.243-0.007,0.495-0.006,0.747c-0.167,0.001-0.5,0.011-0.677,0.011
				c-0.204,0-0.992,0.01-1.167,0.009c-0.241-0.405-0.68-1.452-0.861-1.876c-0.118-0.28-0.283-0.389-0.494-0.39
				c-0.11-0.001-0.184,0.008-0.211,0.017c-0.007,0.483-0.014,0.966-0.021,1.449c0.166,0.011,0.333,0.021,0.499,0.031
				c-0.01,0.252-0.012,0.495-0.014,0.747c-0.361-0.002-0.871-0.007-1.326-0.012c-0.389-0.004-0.825-0.01-1.177-0.016
				c0.013-0.252,0.017-0.495,0.021-0.747c0.151-0.007,0.302-0.014,0.453-0.021c0.019,0,0.028-0.018,0.028-0.027
				c0.022-1.419,0.045-2.838,0.067-4.257C253.222,101.359,253.059,101.35,252.895,101.342z M254.86,103.463
				c0.037,0.009,0.091,0.01,0.22,0.011c0.614,0.004,0.992-0.418,0.994-1.012c0.002-0.657-0.406-1.144-0.887-1.147
				c-0.154-0.001-0.236,0.007-0.291,0.024C254.884,102.046,254.873,102.755,254.86,103.463z"/>
			<path fill="#F3F2F2" d="M259.055,105.652c0.019,0,0.028-0.009,0.028-0.036c-0.014-1.414-0.028-2.827-0.042-4.24
				c-0.176-0.004-0.352-0.009-0.527-0.015c-0.001-0.251-0.003-0.522,0.004-0.765c0.508-0.002,1.215-0.009,1.741-0.015
				c0.7,0.973,1.869,2.682,2.679,3.862c0.019,0,0.037,0,0.056-0.001c-0.041-1.026-0.064-2.079-0.096-3.123
				c-0.222-0.001-0.443-0.003-0.665-0.004c-0.005-0.243-0.001-0.531,0.003-0.765c0.354-0.007,0.78-0.016,1.179-0.026
				c0.317-0.008,0.689-0.026,0.961-0.034c0.006,0.243,0.014,0.513,0.012,0.765c-0.133,0.013-0.267,0.025-0.4,0.038
				c-0.018,0-0.036,0.01-0.035,0.046c0.031,1.644,0.061,3.289,0.091,4.933c-0.192,0.086-0.654,0.188-1.127,0.197
				c-0.627-0.698-1.688-1.983-2.757-3.52c-0.021,0.003-0.043,0.007-0.064,0.01c0.01,0.918,0.011,1.792,0.012,2.683
				c0.229,0.003,0.457,0.006,0.685,0.009c0.003,0.252,0.007,0.531,0.001,0.775c-0.389,0.005-0.89,0.011-1.325,0.015
				c-0.306,0.003-0.621,0.014-0.881,0.016c-0.001-0.252-0.003-0.522,0.005-0.774C258.747,105.672,258.901,105.662,259.055,105.652z"
				/>
			<path fill="#F3F2F2" d="M269.172,103.828c0.031,0.684,0.164,0.984,0.387,1.217c0.194,0.189,0.438,0.268,0.752,0.252
				c0.342-0.017,0.538-0.163,0.686-0.351c0.2-0.245,0.275-0.753,0.243-1.347c-0.038-0.728-0.096-1.825-0.153-2.561
				c-0.001-0.018-0.02-0.026-0.038-0.025c-0.212,0.002-0.425,0.004-0.638,0.005c-0.012-0.243-0.016-0.513-0.028-0.755
				c0.335-0.017,0.806-0.042,1.205-0.063c0.38-0.021,0.752-0.042,1.078-0.061c0.014,0.242,0.029,0.503,0.036,0.755
				c-0.142,0.018-0.284,0.035-0.426,0.052c0.038,0.818,0.076,1.637,0.113,2.455c0.062,1.079-0.231,1.771-0.565,2.124
				c-0.322,0.369-0.772,0.655-1.633,0.697c-0.815,0.04-1.397-0.088-1.876-0.474c-0.546-0.446-0.703-1.161-0.729-1.827
				c-0.036-0.899-0.071-1.799-0.106-2.698c-0.001-0.027-0.011-0.054-0.047-0.053c-0.134,0-0.267-0.001-0.401-0.002
				c-0.009-0.252-0.019-0.513-0.02-0.756c0.354-0.013,0.861-0.033,1.251-0.05c0.48-0.021,0.997-0.044,1.404-0.063
				c0.011,0.233,0.025,0.512,0.028,0.765c-0.206,0.016-0.412,0.031-0.617,0.046C269.109,102.017,269.141,102.922,269.172,103.828z"
				/>
			<path fill="#F3F2F2" d="M273.985,105.128c0.019-0.001,0.028-0.011,0.026-0.038c-0.092-1.411-0.184-2.821-0.275-4.231
				c-0.176,0.005-0.352,0.01-0.527,0.015c-0.015-0.251-0.032-0.521-0.038-0.764c0.507-0.031,1.213-0.076,1.738-0.112
				c0.752,0.933,2.015,2.575,2.89,3.708c0.018-0.001,0.037-0.003,0.055-0.004c-0.098-1.022-0.179-2.072-0.269-3.112
				c-0.221,0.011-0.442,0.021-0.664,0.032c-0.019-0.243-0.031-0.53-0.039-0.764c0.353-0.027,0.778-0.059,1.176-0.091
				c0.316-0.025,0.687-0.065,0.958-0.087c0.02,0.243,0.042,0.512,0.055,0.764c-0.133,0.02-0.265,0.04-0.397,0.06
				c-0.019,0.001-0.036,0.012-0.033,0.047c0.121,1.64,0.242,3.28,0.363,4.92c-0.188,0.097-0.643,0.224-1.115,0.26
				c-0.666-0.662-1.796-1.887-2.949-3.362c-0.021,0.004-0.042,0.009-0.063,0.013c0.061,0.916,0.11,1.788,0.16,2.678
				c0.228-0.009,0.456-0.019,0.684-0.029c0.018,0.252,0.037,0.53,0.044,0.773c-0.389,0.027-0.888,0.061-1.323,0.088
				c-0.306,0.02-0.62,0.048-0.879,0.064c-0.016-0.251-0.032-0.521-0.038-0.773C273.679,105.166,273.832,105.147,273.985,105.128z"/>
			<path fill="#F3F2F2" d="M279.786,100.392c-0.021-0.251-0.044-0.521-0.056-0.763c0.38-0.032,0.94-0.082,1.366-0.121
				c0.443-0.04,0.958-0.088,1.338-0.125c0.022,0.233,0.041,0.521,0.063,0.763c-0.189,0.027-0.378,0.054-0.568,0.081
				c-0.019,0.002-0.018,0.011-0.014,0.047c0.122,1.399,0.244,2.798,0.365,4.197c0.207-0.007,0.414-0.015,0.621-0.022
				c0.023,0.242,0.049,0.511,0.064,0.771c-0.379,0.036-0.925,0.079-1.386,0.121c-0.426,0.039-0.942,0.093-1.367,0.129
				c-0.021-0.251-0.037-0.53-0.058-0.781c0.178-0.021,0.355-0.042,0.533-0.064c0.018-0.001,0.035-0.021,0.034-0.039
				c-0.124-1.405-0.247-2.81-0.371-4.215C280.163,100.377,279.975,100.385,279.786,100.392z"/>
			<path fill="#F3F2F2" d="M288.395,99.541c-0.167,0.682-0.375,1.567-0.594,2.326c-0.248,0.899-0.545,2.047-0.84,3.004
				c-0.091,0.027-0.589,0.083-1.291,0.157c-0.46-0.901-0.976-1.943-1.372-2.844c-0.29-0.667-0.622-1.412-0.898-2.072
				c-0.001-0.018-0.021-0.034-0.049-0.031c-0.149,0.009-0.297,0.018-0.446,0.026c-0.024-0.25-0.042-0.521-0.065-0.762
				c0.334-0.033,0.831-0.082,1.22-0.122c0.542-0.055,1.183-0.123,1.662-0.175c0.025,0.232,0.056,0.519,0.074,0.762
				c-0.205,0.031-0.409,0.062-0.613,0.093c0.131,0.375,0.426,1.24,0.541,1.536c0.229,0.591,0.465,1.227,0.754,1.919
				c0.021-0.002,0.043-0.004,0.064-0.007c0.122-0.575,0.208-1.047,0.29-1.481c0.091-0.508,0.327-1.686,0.357-2.142
				c-0.002-0.018-0.015-0.044-0.033-0.042c-0.175,0.014-0.351,0.027-0.527,0.041c-0.037-0.249-0.06-0.537-0.086-0.769
				c0.388-0.043,0.885-0.1,1.354-0.155c0.289-0.034,0.613-0.072,0.884-0.105c0.029,0.241,0.061,0.51,0.083,0.761
				C288.707,99.485,288.551,99.513,288.395,99.541z"/>
			<path fill="#F3F2F2" d="M290.321,103.615c0.028-0.003,0.043-0.024,0.042-0.042c-0.174-1.403-0.348-2.806-0.522-4.208
				c-0.176,0.016-0.351,0.031-0.527,0.046c-0.032-0.259-0.056-0.528-0.076-0.771c0.334-0.041,0.803-0.099,1.181-0.147
				c0.28-0.034,1.893-0.245,2.109-0.275c0.378-0.051,0.692-0.104,0.89-0.131c0.109,0.521,0.219,1.051,0.31,1.575
				c-0.258,0.072-0.57,0.151-0.875,0.22c-0.079-0.222-0.158-0.445-0.237-0.667c-0.029-0.078-0.072-0.126-0.201-0.127
				c-0.129-0.001-0.396-0.002-0.956,0.071c-0.028,0.004-0.063,0.008-0.091,0.012c0.07,0.566,0.141,1.132,0.211,1.698
				c0.282-0.037,0.544-0.081,0.798-0.123c0.054-0.016,0.09-0.084,0.096-0.186c0.003-0.115,0.006-0.231,0.009-0.346
				c0.291-0.039,0.591-0.07,0.855-0.098c0.038,0.277,0.074,0.608,0.118,0.929s0.079,0.643,0.111,0.875
				c-0.263,0.054-0.563,0.104-0.855,0.143c-0.031-0.117-0.062-0.234-0.093-0.351c-0.027-0.132-0.08-0.18-0.162-0.169
				c-0.256,0.025-0.513,0.049-0.777,0.084c0.065,0.527,0.13,1.054,0.196,1.582c0.022,0.169,0.09,0.188,0.503,0.134
				c0.376-0.05,0.603-0.108,0.728-0.152c0.088-0.039,0.128-0.09,0.152-0.193c0.056-0.25,0.112-0.5,0.168-0.75
				c0.317,0.002,0.646,0.021,0.918,0.037c-0.029,0.531-0.074,1.074-0.122,1.617c-0.46,0.064-1.741,0.229-3.021,0.392
				c-0.424,0.054-0.893,0.121-1.261,0.166c-0.031-0.25-0.063-0.518-0.083-0.761C290.011,103.671,290.166,103.643,290.321,103.615z"
				/>
			<path fill="#F3F2F2" d="M294.598,98.713c-0.037-0.258-0.072-0.508-0.099-0.759c0.611-0.096,1.374-0.216,2.076-0.322
				c0.512-0.077,0.791-0.12,1.341-0.078c0.808,0.048,1.423,0.659,1.515,1.228c0.122,0.755-0.282,1.368-0.878,1.725
				c0.003,0.018,0.005,0.036,0.008,0.053c0.43,0.125,0.728,0.597,1.271,1.357c0.136,0.206,0.214,0.285,0.326,0.276
				c0.149-0.006,0.299-0.012,0.448-0.018c0.039,0.24,0.07,0.49,0.111,0.739c-0.165,0.027-0.494,0.089-0.668,0.117
				c-0.202,0.033-0.981,0.166-1.156,0.192c-0.301-0.363-0.9-1.328-1.146-1.718c-0.161-0.258-0.341-0.34-0.551-0.308
				c-0.109,0.016-0.181,0.037-0.207,0.049c0.069,0.478,0.138,0.956,0.206,1.435c0.167-0.016,0.333-0.032,0.499-0.048
				c0.029,0.25,0.066,0.491,0.104,0.74c-0.358,0.054-0.864,0.13-1.315,0.196c-0.386,0.057-0.818,0.119-1.167,0.169
				c-0.026-0.251-0.061-0.492-0.096-0.741c0.148-0.03,0.297-0.061,0.446-0.091c0.018-0.002,0.025-0.021,0.023-0.031
				c-0.2-1.405-0.399-2.811-0.599-4.216C294.924,98.679,294.761,98.696,294.598,98.713z M296.876,100.5
				c0.038,0.004,0.093-0.004,0.22-0.024c0.609-0.092,0.917-0.568,0.826-1.155c-0.101-0.649-0.581-1.067-1.058-0.995
				c-0.153,0.023-0.233,0.044-0.285,0.07C296.678,99.098,296.777,99.799,296.876,100.5z"/>
			<path fill="#F3F2F2" d="M302.029,101.648c0.013,0.025,0.039,0.066,0.068,0.07c0.184,0.087,0.403,0.105,0.632,0.066
				c0.22-0.038,0.476-0.137,0.609-0.288c0.118-0.13,0.172-0.304,0.135-0.517c-0.077-0.444-0.321-0.492-1.074-0.628
				c-0.976-0.18-1.773-0.606-1.916-1.477c-0.09-0.551,0.095-1.056,0.394-1.425c0.336-0.421,0.955-0.744,1.815-0.894
				c0.511-0.089,0.998-0.103,1.22-0.051c0.151,0.531,0.293,1.063,0.426,1.597c-0.272,0.095-0.599,0.189-0.909,0.281
				c-0.118-0.263-0.235-0.525-0.353-0.788c-0.014-0.025-0.026-0.042-0.047-0.056c-0.124-0.069-0.304-0.093-0.475-0.063
				c-0.216,0.038-0.386,0.122-0.512,0.253c-0.102,0.108-0.199,0.299-0.157,0.547c0.076,0.443,0.289,0.5,1.17,0.639
				c1.062,0.162,1.667,0.555,1.819,1.396c0.101,0.558-0.042,1.124-0.421,1.539c-0.379,0.415-0.955,0.69-1.845,0.842
				c-0.385,0.066-1.044,0.13-1.442,0.059c-0.166-0.548-0.32-1.088-0.473-1.619c0.282-0.11,0.626-0.231,0.93-0.319
				C301.759,101.091,301.894,101.37,302.029,101.648z"/>
			<path fill="#F3F2F2" d="M305.093,96.996c-0.045-0.248-0.094-0.514-0.128-0.754c0.376-0.069,0.931-0.172,1.352-0.252
				c0.438-0.083,0.949-0.18,1.324-0.253c0.045,0.23,0.09,0.515,0.137,0.753c-0.187,0.045-0.373,0.091-0.56,0.136
				c-0.018,0.003-0.017,0.012-0.01,0.047c0.255,1.381,0.51,2.762,0.766,4.144c0.206-0.027,0.412-0.055,0.618-0.083
				c0.046,0.239,0.098,0.504,0.138,0.762c-0.375,0.073-0.916,0.167-1.373,0.253c-0.421,0.08-0.932,0.184-1.353,0.261
				c-0.045-0.248-0.087-0.524-0.132-0.772c0.176-0.038,0.351-0.077,0.526-0.115c0.018-0.003,0.033-0.024,0.03-0.042
				c-0.257-1.387-0.515-2.774-0.772-4.161C305.467,96.945,305.28,96.97,305.093,96.996z"/>
			<path fill="#F3F2F2" d="M310.943,100.238c0.019-0.003,0.024-0.023,0.021-0.041c-0.28-1.376-0.56-2.752-0.839-4.129
				c-0.34,0.069-0.487,0.126-0.61,0.169c-0.12,0.051-0.134,0.119-0.135,0.211c0.003,0.293,0.005,0.586,0.008,0.88
				c-0.318,0.045-0.675,0.088-0.97,0.109c-0.082-0.608-0.164-1.216-0.235-1.816c0.188-0.037,0.529-0.095,0.843-0.157
				c0.232-0.045,1.42-0.286,1.75-0.355c0.277-0.056,1.428-0.298,1.669-0.35c0.355-0.085,0.667-0.152,0.845-0.191
				c0.163,0.582,0.329,1.172,0.475,1.758c-0.289,0.099-0.624,0.199-0.942,0.294c-0.108-0.271-0.216-0.543-0.323-0.814
				c-0.039-0.093-0.083-0.13-0.206-0.131c-0.123-0.002-0.233,0.003-0.627,0.086c0.28,1.382,0.561,2.765,0.84,4.147
				c0.221-0.034,0.441-0.068,0.662-0.103c0.05,0.238,0.106,0.502,0.151,0.759c-0.383,0.081-0.932,0.188-1.416,0.287
				c-0.438,0.09-0.975,0.208-1.432,0.3c-0.051-0.256-0.094-0.514-0.144-0.761C310.535,100.339,310.739,100.289,310.943,100.238z"/>
			<path fill="#F3F2F2" d="M316.512,99.046c0.027-0.006,0.032-0.026,0.026-0.053c-0.098-0.436-0.197-0.872-0.295-1.309
				c-0.538-0.571-1.57-1.78-2.125-2.433c-0.004-0.018-0.038-0.047-0.056-0.043c-0.12,0.021-0.241,0.041-0.361,0.061
				c-0.054-0.246-0.113-0.519-0.154-0.75c0.294-0.064,0.775-0.169,1.123-0.247c0.525-0.117,1.14-0.255,1.575-0.355
				c0.052,0.228,0.106,0.502,0.153,0.75c-0.177,0.049-0.353,0.099-0.53,0.148c0.415,0.589,0.901,1.235,1.302,1.744
				c0.015-0.003,0.03-0.007,0.045-0.01c0.186-0.671,0.355-1.367,0.465-2.104c0.004-0.02-0.018-0.033-0.038-0.038
				c-0.162,0.032-0.323,0.063-0.485,0.094c-0.057-0.246-0.109-0.511-0.157-0.758c0.365-0.084,0.827-0.192,1.253-0.293
				c0.285-0.067,0.578-0.137,0.8-0.19c0.057,0.236,0.122,0.507,0.163,0.757c-0.129,0.037-0.259,0.074-0.388,0.111
				c-0.242,0.798-0.714,2.288-1.048,3.187c0.099,0.455,0.198,0.909,0.296,1.364c0.226-0.04,0.453-0.081,0.679-0.121
				c0.055,0.237,0.117,0.5,0.167,0.756c-0.391,0.091-0.947,0.211-1.42,0.319c-0.437,0.1-0.962,0.228-1.399,0.325
				c-0.055-0.246-0.113-0.509-0.159-0.757C316.135,99.149,316.324,99.097,316.512,99.046z"/>
		</g>
	</g>
	<path fill="#545454" d="M260.945,169.265l-2.803,7.895l-4.868-14.199l-2.681,6.295c-19.727,0.131-47.206-7.893-48.482-8.979
		c3.283,9.209,12.236,13.457,13.053,13.83l41.827,16.854l41.794-16.842c0.118-0.053,9.635-4.324,13.067-13.838
		C310.476,161.38,281.688,169.4,260.945,169.265z"/>
	<path fill="#FFFFFF" d="M310.348,160.869c-0.515,0.166-1.032,0.32-1.551,0.469c-1.039,0.297-2.084,0.578-3.133,0.842
		c-2.094,0.531-4.199,1.021-6.311,1.482c-4.225,0.914-8.471,1.723-12.734,2.402c-8.524,1.336-12.486,2.152-25.654,2.447
		l-0.438-0.008l-0.211,0.543c-0.717,1.834-1.434,3.668-2.129,5.512l-4.119-11.869l-0.773-2.127l-0.811,2.062l-2.409,6.117
		c-8.01-0.15-16.052-1.162-23.99-2.527c-4.06-0.707-8.097-1.543-12.111-2.484c-2.009-0.473-4.009-0.977-5.997-1.52
		c-0.996-0.271-1.986-0.555-2.972-0.859c-0.493-0.15-0.983-0.309-1.472-0.477c-0.484-0.172-0.98-0.332-1.422-0.598
		c0.435,0.281,0.927,0.455,1.406,0.643c0.482,0.184,0.969,0.355,1.457,0.523c0.977,0.334,1.963,0.648,2.949,0.951
		c1.973,0.605,3.961,1.17,5.955,1.705c3.992,1.066,8.013,2.029,12.062,2.863c4.051,0.838,8.127,1.557,12.236,2.1
		c4.107,0.545,8.252,0.91,12.422,0.961l0.477,0.006l0.213-0.479l1.857-4.162c0.639,1.902,4.346,12.568,4.969,14.475l0.83-2.406
		c0.852-2.475,1.637-5.287,2.523-7.748c0,0,8.119-0.354,12.43-0.871c4.312-0.514,8.596-1.205,12.852-2.016
		c4.259-0.805,8.488-1.744,12.691-2.785c2.1-0.525,4.191-1.076,6.273-1.672c1.041-0.297,2.078-0.605,3.109-0.934
		c0.515-0.166,1.029-0.336,1.539-0.518c0.507-0.186,1.025-0.357,1.489-0.637C311.381,160.541,310.858,160.699,310.348,160.869z"/>
	<g>
		<g>
			<path fill="#F3F2F2" stroke="#F3F2F2" stroke-width="0.75" stroke-miterlimit="10" d="M218.453,134.609
				c-0.056,1.272-0.113,2.545-0.169,3.818c-0.726-0.032-1.451-0.065-2.177-0.099c0.171-3.668,0.343-7.337,0.515-11.005
				c1.41,0.066,2.82,0.128,4.231,0.187c2.199,0.092,3.608,1.4,3.521,3.749c-0.086,2.331-1.602,3.533-3.821,3.44
				C219.852,134.67,219.152,134.64,218.453,134.609z M220.635,129.458c-0.65-0.027-1.301-0.055-1.951-0.084
				c-0.048,1.094-0.097,2.187-0.145,3.28c0.653,0.029,1.306,0.057,1.958,0.084c1.124,0.047,1.696-0.613,1.734-1.563
				C222.271,130.19,221.754,129.505,220.635,129.458z"/>
			<path fill="#F3F2F2" stroke="#F3F2F2" stroke-width="0.75" stroke-miterlimit="10" d="M233.721,127.953
				c-0.018,0.669-0.036,1.339-0.054,2.009c-1.646-0.044-3.292-0.093-4.938-0.147c-0.026,0.801-0.052,1.602-0.079,2.403
				c1.498,0.049,2.996,0.094,4.493,0.135c-0.018,0.652-0.036,1.303-0.054,1.955c-1.501-0.041-3.002-0.086-4.503-0.135
				c-0.029,0.873-0.057,1.745-0.085,2.618c1.659,0.054,3.319,0.104,4.979,0.148c-0.018,0.676-0.037,1.352-0.055,2.027
				c-2.384-0.064-4.767-0.138-7.15-0.221c0.128-3.67,0.257-7.341,0.386-11.011C229.014,127.816,231.367,127.889,233.721,127.953z"/>
			<path fill="#F3F2F2" stroke="#F3F2F2" stroke-width="0.75" stroke-miterlimit="10" d="M238.094,134.969
				c-0.03,1.37-0.06,2.739-0.089,4.108c-0.726-0.016-1.452-0.032-2.178-0.05c0.089-3.671,0.177-7.343,0.266-11.015
				c1.428,0.035,2.856,0.065,4.284,0.093c2.183,0.042,3.622,1.299,3.589,3.561c-0.025,1.758-0.963,2.858-2.438,3.208
				c0.896,1.44,1.797,2.878,2.703,4.315c-0.823-0.012-1.646-0.025-2.469-0.04c-0.846-1.385-1.687-2.771-2.524-4.158
				C238.856,134.985,238.476,134.977,238.094,134.969z M238.135,133.085c0.67,0.015,1.34,0.028,2.01,0.041
				c1.09,0.021,1.663-0.58,1.679-1.495c0.016-0.933-0.533-1.553-1.619-1.574c-0.668-0.013-1.335-0.026-2.003-0.041
				C238.179,131.04,238.157,132.062,238.135,133.085z"/>
			<path fill="#F3F2F2" stroke="#F3F2F2" stroke-width="0.75" stroke-miterlimit="10" d="M247.765,136.094
				c0.28,0.972,1.046,1.429,2.074,1.437c1.062,0.009,1.766-0.49,1.771-1.369c0.004-0.664-0.37-1.024-1.272-1.247
				c-0.625-0.154-1.249-0.309-1.873-0.464c-1.498-0.374-2.646-1.232-2.622-3.044c0.027-1.992,1.602-3.37,3.785-3.352
				c2.37,0.02,3.735,1.352,4.069,3.219c-0.72-0.002-1.439-0.006-2.159-0.011c-0.234-0.737-0.824-1.315-1.91-1.324
				c-0.984-0.008-1.651,0.487-1.659,1.277c-0.007,0.627,0.38,1.009,1.162,1.213c0.634,0.161,1.268,0.321,1.903,0.481
				c1.7,0.425,2.736,1.45,2.73,3.119c-0.006,2.135-1.692,3.423-3.924,3.405c-2.351-0.02-4.001-1.263-4.331-3.366
				C246.261,136.077,247.013,136.086,247.765,136.094z"/>
			<path fill="#F3F2F2" stroke="#F3F2F2" stroke-width="0.75" stroke-miterlimit="10" d="M260.445,139.455
				c-2.937,0.012-4.974-2.399-4.966-5.683c0.009-3.302,2.028-5.683,4.92-5.694c2.893-0.011,4.948,2.353,4.983,5.655
				C265.418,137.015,263.383,139.443,260.445,139.455z M260.408,130.124c-1.645,0.007-2.713,1.496-2.713,3.649
				c0.001,2.153,1.081,3.643,2.742,3.636c1.679-0.007,2.764-1.505,2.747-3.658C263.168,131.597,262.071,130.117,260.408,130.124z"/>
			<path fill="#F3F2F2" stroke="#F3F2F2" stroke-width="0.75" stroke-miterlimit="10" d="M276.484,139.063
				c-0.577,0.013-1.155,0.025-1.732,0.037c-1.708-2.412-3.402-4.829-5.082-7.251c0.036,2.446,0.072,4.893,0.107,7.339
				c-0.703,0.01-1.406,0.02-2.109,0.028c-0.045-3.672-0.09-7.345-0.135-11.017c0.677-0.008,1.354-0.017,2.032-0.027
				c1.564,2.298,3.14,4.592,4.729,6.881c-0.046-2.32-0.093-4.64-0.139-6.96c0.694-0.014,1.389-0.028,2.083-0.044
				C276.32,131.72,276.402,135.392,276.484,139.063z"/>
			<path fill="#F3F2F2" stroke="#F3F2F2" stroke-width="0.75" stroke-miterlimit="10" d="M284.317,127.831
				c1.442,3.628,2.902,7.253,4.379,10.875c-0.743,0.027-1.486,0.053-2.229,0.079c-0.344-0.875-0.688-1.749-1.03-2.623
				c-1.311,0.042-2.621,0.083-3.932,0.12c-0.283,0.894-0.566,1.787-0.851,2.68c-0.731,0.02-1.463,0.039-2.195,0.057
				c1.253-3.704,2.489-7.412,3.708-11.121C282.884,127.875,283.601,127.853,284.317,127.831z M282.133,134.323
				c0.853-0.024,1.706-0.05,2.558-0.078c-0.465-1.206-0.929-2.413-1.391-3.619C282.914,131.859,282.524,133.091,282.133,134.323z"/>
			<path fill="#F3F2F2" stroke="#F3F2F2" stroke-width="0.75" stroke-miterlimit="10" d="M290.245,127.622
				c0.722-0.028,1.444-0.057,2.167-0.086c0.124,2.994,0.247,5.988,0.37,8.982c1.63-0.067,3.26-0.138,4.891-0.214
				c0.031,0.675,0.063,1.35,0.095,2.025c-2.365,0.111-4.731,0.211-7.097,0.303C290.528,134.961,290.386,131.292,290.245,127.622z"/>
		</g>
	</g>
	<g>
		<g>
			<path fill="#F3F2F2" stroke="#F3F2F2" stroke-width="0.75" stroke-miterlimit="10" d="M219.679,144.35
				c2.956,0.138,5.913,0.259,8.87,0.364c-0.024,0.669-0.048,1.339-0.071,2.009c-1.12-0.04-2.241-0.082-3.361-0.126
				c-0.119,3-0.238,6-0.357,9c-0.738-0.029-1.476-0.06-2.214-0.091c0.127-3,0.255-6,0.382-9c-1.114-0.047-2.229-0.097-3.342-0.149
				C219.617,145.688,219.648,145.019,219.679,144.35z"/>
			<path fill="#F3F2F2" stroke="#F3F2F2" stroke-width="0.75" stroke-miterlimit="10" d="M232.61,151.759
				c-0.041,1.369-0.083,2.739-0.124,4.108c-0.727-0.022-1.454-0.045-2.18-0.069c0.121-3.67,0.241-7.341,0.361-11.012
				c1.428,0.047,2.856,0.09,4.284,0.129c2.183,0.06,3.611,1.329,3.561,3.59c-0.04,1.758-0.986,2.85-2.465,3.189
				c0.885,1.447,1.776,2.892,2.671,4.336c-0.824-0.018-1.648-0.038-2.472-0.059c-0.835-1.391-1.666-2.784-2.492-4.178
				C233.373,151.782,232.991,151.771,232.61,151.759z M232.667,149.876c0.67,0.02,1.34,0.04,2.011,0.058
				c1.091,0.03,1.669-0.566,1.692-1.481c0.024-0.933-0.521-1.557-1.607-1.587c-0.667-0.018-1.335-0.038-2.003-0.058
				C232.728,147.831,232.697,148.854,232.667,149.876z"/>
			<path fill="#F3F2F2" stroke="#F3F2F2" stroke-width="0.75" stroke-miterlimit="10" d="M246.283,145.145
				c1.278,3.689,2.576,7.376,3.891,11.059c-0.744-0.006-1.488-0.013-2.233-0.021c-0.305-0.889-0.609-1.777-0.912-2.667
				c-1.312-0.016-2.625-0.035-3.937-0.057c-0.323,0.88-0.647,1.76-0.972,2.639c-0.733-0.013-1.465-0.027-2.198-0.043
				c1.422-3.644,2.825-7.291,4.21-10.942C244.849,145.125,245.566,145.135,246.283,145.145z M243.809,151.533
				c0.854,0.014,1.708,0.026,2.561,0.037c-0.411-1.226-0.82-2.452-1.228-3.678C244.7,149.106,244.255,150.32,243.809,151.533z"/>
			<path fill="#F3F2F2" stroke="#F3F2F2" stroke-width="0.75" stroke-miterlimit="10" d="M254.35,156.228
				c-0.732-0.002-1.465-0.005-2.198-0.01c0.021-3.672,0.042-7.345,0.062-11.017c0.723,0.004,1.445,0.007,2.168,0.009
				C254.371,148.882,254.36,152.555,254.35,156.228z"/>
			<path fill="#F3F2F2" stroke="#F3F2F2" stroke-width="0.75" stroke-miterlimit="10" d="M265.891,156.178
				c-0.578,0.007-1.156,0.013-1.734,0.018c-1.683-2.431-3.35-4.867-5.003-7.309c0.007,2.446,0.015,4.893,0.022,7.339
				c-0.704,0.002-1.408,0.003-2.112,0.004c-0.002-3.673-0.003-7.345-0.005-11.018c0.677,0,1.354-0.001,2.032-0.004
				c1.537,2.316,3.087,4.628,4.651,6.935c-0.021-2.32-0.041-4.641-0.061-6.961c0.694-0.006,1.389-0.013,2.083-0.021
				C265.807,148.834,265.849,152.506,265.891,156.178z"/>
			<path fill="#F3F2F2" stroke="#F3F2F2" stroke-width="0.75" stroke-miterlimit="10" d="M270.822,156.107
				c-0.733,0.013-1.465,0.025-2.198,0.036c-0.054-3.672-0.109-7.344-0.163-11.017c0.723-0.011,1.445-0.022,2.168-0.035
				C270.693,148.763,270.757,152.435,270.822,156.107z"/>
			<path fill="#F3F2F2" stroke="#F3F2F2" stroke-width="0.75" stroke-miterlimit="10" d="M282.36,155.822
				c-0.578,0.019-1.156,0.036-1.734,0.053c-1.732-2.396-3.45-4.797-5.152-7.205c0.058,2.446,0.115,4.892,0.173,7.337
				c-0.704,0.017-1.408,0.032-2.112,0.047c-0.077-3.671-0.153-7.343-0.23-11.015c0.677-0.014,1.355-0.029,2.032-0.045
				c1.584,2.284,3.182,4.563,4.792,6.838c-0.068-2.32-0.136-4.639-0.204-6.959c0.694-0.021,1.389-0.042,2.083-0.064
				C282.126,148.48,282.243,152.151,282.36,155.822z"/>
			<path fill="#F3F2F2" stroke="#F3F2F2" stroke-width="0.75" stroke-miterlimit="10" d="M289.923,151.594
				c-0.025-0.609-0.051-1.219-0.076-1.829c1.375-0.057,2.749-0.117,4.123-0.182c0.015,0.323,0.03,0.646,0.045,0.968
				c0.145,3.046-1.687,5.075-4.35,5.184c-2.938,0.121-5.166-2.122-5.279-5.493c-0.113-3.372,1.939-5.757,4.762-5.873
				c2.503-0.103,4.079,1.349,4.573,3.536c-0.731,0.034-1.462,0.067-2.193,0.099c-0.419-1.024-1.092-1.641-2.296-1.591
				c-1.712,0.07-2.708,1.632-2.629,3.748c0.079,2.134,1.215,3.619,2.979,3.547c1.353-0.056,2.156-0.936,2.339-2.201
				C291.254,151.538,290.589,151.566,289.923,151.594z"/>
		</g>
	</g>
</g>
</svg>
