<?xml version="1.0" encoding="utf-8"?>
<!-- Generator: Adobe Illustrator 16.0.4, SVG Export Plug-In . SVG Version: 6.00 Build 0)  -->
<!DOCTYPE svg PUBLIC "-//W3C//DTD SVG 1.1//EN" "http://www.w3.org/Graphics/SVG/1.1/DTD/svg11.dtd">
<svg version="1.1" id="Layer_1" xmlns="http://www.w3.org/2000/svg" xmlns:xlink="http://www.w3.org/1999/xlink" x="0px" y="0px"
	 width="227.957px" height="109.678px" viewBox="0 0 227.957 109.678" enable-background="new 0 0 227.957 109.678"
	 xml:space="preserve">
<g>
	<g>
		<path fill="#231F20" d="M215.894,28.139l-0.162-1.017c-0.557-3.198-1.141-3.243-1.529-3.272c-0.248-0.018-0.58-0.044-1.066,0.758
			c-0.133-1.573-0.738-3.165-1.629-4.168l-0.285-1.385c-0.971-4.094-1.496-4.094-1.957-4.094c-0.486,0-1.037,0.002-1.633,4.094
			l-0.217,1.481c-0.918,1.097-1.506,2.832-1.555,4.483c0,0-0.074,0.264-0.098,0.264c-0.029,0-0.115-0.264-0.115-0.264
			c-0.061-1.875-0.812-3.853-1.953-4.887l-0.25-1.219c-0.973-4.094-1.496-4.093-1.959-4.093c-0.486,0-1.037,0-1.633,4.093
			l-0.33,2.161c-0.732,1.142-1.176,2.71-1.174,4.185c0,0.052,0.004,0.101,0.004,0.153c-0.668-1.467-1.092-1.435-1.396-1.412
			c-0.385,0.029-0.967,0.074-1.549,3.22l-0.277,1.511c-0.844,1.155-1.361,2.858-1.361,4.452c0.004,3.158,1.959,4.283,3.643,4.289
			c1.062,0.132,1.9-0.036,1.268,0.962c-0.002,0.004-0.002,0.007-0.004,0.01c-0.787,1.037-1.393,2.348-1.047,3.734
			c0.338,1.336,1.686,2.512,3.281,2.858c1.295,0.281,2.436-0.058,3.133-0.929c0.998-1.248,1.105-1.245,1.561-1.238l0.219,0.003
			l0.219-0.004c0.455-0.008,0.564-0.01,1.562,1.235c0.428,0.533,1.404,1.266,3.008,0.951c1.605-0.312,3.039-1.477,3.391-2.888
			c0.408-1.641-0.52-3.177-1.502-4.274c0.008-0.409,0.748-0.312,1.6-0.436c0,0,0.002,0,0.004,0c1.688-0.001,3.656-1.128,3.652-4.297
			C217.755,31.277,217.024,29.241,215.894,28.139z"/>
		<path fill="#231F20" d="M201.776,46.442c-0.373,0-0.76-0.042-1.145-0.127c-2.094-0.453-3.809-1.988-4.271-3.816
			c-0.303-1.205-0.107-2.48,0.562-3.742c-2.291-0.222-4.459-1.972-4.463-5.572c-0.002-1.771,0.531-3.603,1.434-4.967l0.229-1.234
			c0.482-2.622,1.086-4.163,2.736-4.287c0.07-0.005,0.145-0.01,0.221-0.01c0.111,0,0.215,0.009,0.316,0.023
			c0.209-0.749,0.506-1.465,0.873-2.093l0.291-1.9c0.512-3.524,1.08-5.205,2.926-5.205c1.74,0,2.377,1.504,3.232,5.1l0.18,0.873
			c0.312,0.339,0.598,0.733,0.852,1.17c0.131-0.229,0.273-0.446,0.422-0.65l0.164-1.138c0.525-3.605,1.072-5.214,2.93-5.214
			c1.74,0,2.377,1.504,3.232,5.101l0.227,1.103c0.574,0.736,1.037,1.667,1.342,2.68c0.004,0,0.008,0,0.012,0
			c0.078,0,0.152,0.005,0.223,0.01c1.662,0.124,2.258,1.689,2.721,4.353l0.102,0.639c1.189,1.37,1.941,3.521,1.941,5.625
			c0.002,2.265-0.865,3.577-1.592,4.278c-0.748,0.723-1.719,1.171-2.777,1.293c0.68,1.263,0.879,2.536,0.576,3.752
			c-0.469,1.884-2.24,3.433-4.408,3.856c-0.34,0.065-0.676,0.1-1,0.1c-1.863,0-2.914-1.061-3.279-1.517
			c-0.326-0.405-0.518-0.627-0.629-0.744l-0.111,0.002l-0.152-0.002c-0.109,0.117-0.303,0.339-0.627,0.746
			C204.282,45.903,203.114,46.442,201.776,46.442z"/>
		<g>
			<path fill="#FFFFFF" d="M203.694,20.122l-0.25-1.22c-0.973-4.094-1.496-4.093-1.959-4.093c-0.486,0-1.037,0.001-1.633,4.093
				l-0.33,2.162c-0.732,1.143-1.176,2.71-1.174,4.185c0,0.051,0.004,0.101,0.004,0.153c-0.668-1.467-1.092-1.435-1.396-1.411
				c-0.385,0.028-0.967,0.073-1.549,3.218l-0.277,1.512c-0.844,1.156-1.361,2.858-1.361,4.452c0.004,3.17,1.973,4.292,3.66,4.291
				c1.688-0.002,3.656-1.129,3.652-4.299c0-1.58-0.516-3.269-1.35-4.422c0.676,0.559,1.504,0.796,2.275,0.795
				c1.688,0,3.656-1.128,3.652-4.296C205.657,23.3,204.884,21.199,203.694,20.122z"/>
		</g>
		<g>
			<path fill="none" d="M213.87,27.318c-0.012-0.009-0.023-0.017-0.035-0.024c-0.02,0.01-0.043,0.023-0.072,0.038
				C213.798,27.327,213.835,27.321,213.87,27.318z"/>
			<path fill="#FFFFFF" d="M215.894,28.128l-0.162-1.017c-0.557-3.197-1.141-3.243-1.529-3.272c-0.248-0.019-0.58-0.044-1.066,0.757
				c-0.133-1.573-0.738-3.164-1.629-4.167l-0.285-1.384c-0.971-4.095-1.496-4.095-1.957-4.095c-0.486,0-1.037,0.002-1.633,4.094
				l-0.217,1.48c-0.961,1.149-1.566,2.997-1.566,4.718c0.006,3.169,1.975,4.29,3.662,4.289c0.771,0,1.6-0.24,2.273-0.801
				c-0.83,1.156-1.344,2.845-1.34,4.426c0.002,3.171,1.973,4.293,3.658,4.292c1.688-0.002,3.656-1.128,3.652-4.297
				C217.755,31.267,217.024,29.23,215.894,28.128z M213.87,27.318c-0.035,0.003-0.072,0.009-0.107,0.014
				c0.029-0.015,0.053-0.028,0.072-0.038C213.847,27.302,213.858,27.31,213.87,27.318z"/>
		</g>
		<g>
			<path fill="#FFFFFF" d="M210.897,36.418c-0.268-0.2-0.562-1.324-0.775-2.148c-0.588-2.271-1.396-5.384-4.326-5.381
				c-3.139,0.007-4.078,4.505-4.305,5.384c-0.211,0.822-0.5,1.946-0.77,2.148c-0.895,0.673-3.762,3.074-3.094,5.747
				c0.338,1.336,1.686,2.514,3.281,2.858c1.295,0.281,2.436-0.058,3.133-0.929c0.998-1.248,1.105-1.246,1.561-1.238l0.219,0.002
				l0.219-0.003c0.455-0.008,0.564-0.01,1.562,1.236c0.428,0.532,1.404,1.264,3.008,0.95c1.605-0.312,3.039-1.477,3.391-2.888
				C214.665,39.487,211.792,37.09,210.897,36.418z"/>
		</g>
		<path d="M202.005,28.83c1.629-0.002,2.947-1.178,2.945-3.588c-0.002-2.409-1.324-5.139-2.951-5.138
			c-1.629,0.003-2.947,2.733-2.943,5.144C199.058,27.657,200.378,28.831,202.005,28.83"/>
		<path d="M197.429,36.753c1.627-0.001,2.945-1.177,2.943-3.587c-0.002-2.408-1.324-5.139-2.951-5.138
			c-1.629,0.002-2.947,2.734-2.943,5.144C194.479,35.582,195.8,36.755,197.429,36.753"/>
		<path d="M209.509,28.821c-1.627,0.002-2.947-1.17-2.949-3.581c-0.002-2.408,1.314-5.142,2.941-5.144
			c1.629-0.001,2.951,2.729,2.953,5.139S211.138,28.82,209.509,28.821"/>
		<path d="M214.103,36.739c-1.629,0-2.949-1.174-2.951-3.583c-0.002-2.408,1.314-5.141,2.943-5.143
			c1.627-0.002,2.949,2.729,2.953,5.138C217.05,35.561,215.729,36.737,214.103,36.739"/>
		<path d="M202.753,19.066l-1.264-0.913l-0.936,0.851c0,0,0.506-3.484,0.932-3.484C201.911,15.519,202.753,19.066,202.753,19.066"/>
		<path d="M210.534,19.209l-1.268-0.913l-0.934,0.849c0,0,0.508-3.484,0.932-3.484C209.69,15.659,210.534,19.209,210.534,19.209"/>
		<path d="M215.032,27.232l-1.162-0.764l-1.018,0.549c0,0,0.873-2.504,1.295-2.471C214.569,24.579,215.032,27.232,215.032,27.232"/>
		<path d="M198.294,27.219l-1.266-0.578l-0.924,0.696c0,0,0.482-2.606,0.906-2.639C197.433,24.666,198.294,27.219,198.294,27.219"/>
	</g>
	<path d="M205.847,40.618c0,0,6.951-1.301,5.916-2.532c-0.338-0.402-1.352-1.186-1.352-1.186c-1.223-1.234-1.004-7.305-4.576-7.301
		c-1.424,0.001-2.244,0.961-2.791,2.195l0.004,0.009c-0.822,1.866-1.033,4.347-1.764,5.094c0,0-0.621,0.43-1.613,1.47
		C198.489,39.608,205.704,40.909,205.847,40.618z"/>
	<g>
		<path fill="#E31837" d="M201.805,44.743c-1.498,0-3.372-1.072-3.772-2.668c-0.428-1.703,0.746-3.312,1.807-4.362
			c0.104-0.103,0.231-0.229,4.349-0.45l0.935-2.854l1.505,5.085l0.673-2.253l0.261,0.014c4.062,0.225,4.192,0.354,4.297,0.457
			c1.06,1.046,2.233,2.65,1.812,4.353c-0.399,1.602-2.272,2.677-3.772,2.677l0,0c-0.152,0-0.302-0.01-0.447-0.032l-0.163-0.024
			l-0.01-0.018c-0.548-0.119-1.009-0.397-1.342-0.811c-1.104-1.379-1.318-1.379-1.705-1.379l-0.373,0.005l-0.367-0.004
			c-0.39,0-0.604,0-1.709,1.384C203.32,44.438,202.637,44.743,201.805,44.743z"/>
		<path fill="#FFFFFF" d="M205.106,35.518l1.52,5.135l0.916-3.067c0,0,3.938,0.218,4.084,0.362c1.088,1.074,2.09,2.557,1.723,4.039
			c-0.341,1.369-2.007,2.426-3.452,2.426c-0.136,0-0.27-0.009-0.399-0.028l-0.006-0.011c-0.506-0.078-0.965-0.306-1.299-0.722
			c-1.109-1.385-1.412-1.503-1.963-1.503c-0.111,0-0.232,0.005-0.373,0.005c-0.138,0-0.257-0.004-0.367-0.004
			c-0.554,0-0.854,0.115-1.967,1.508c-0.423,0.528-1.046,0.755-1.718,0.755c-1.445,0-3.109-1.053-3.452-2.418
			c-0.373-1.484,0.631-2.97,1.719-4.047c0.146-0.145,4.359-0.367,4.359-0.367L205.106,35.518 M205.139,33.3l-0.659,2.012
			l-0.535,1.633c-4.021,0.22-4.141,0.339-4.337,0.532c-1.608,1.593-2.264,3.21-1.895,4.677c0.438,1.746,2.469,2.918,4.092,2.918
			c0.923,0,1.716-0.356,2.233-1.003c1.006-1.261,1.174-1.261,1.451-1.261l0.15,0.002l0.217,0.003l0.219-0.003l0.154-0.002
			c0.275,0,0.441,0,1.448,1.256c0.35,0.436,0.822,0.74,1.379,0.891l0.013,0.023l0.332,0.059c0.159,0.024,0.326,0.036,0.495,0.036
			c1.624,0,3.656-1.176,4.093-2.926c0.459-1.855-0.779-3.562-1.899-4.668c-0.202-0.2-0.324-0.32-4.512-0.552l-0.52-0.028
			l-0.149,0.499l-0.28,0.94l-0.89-3.006L205.139,33.3L205.139,33.3z"/>
	</g>
	<path fill="#202020" d="M216.69,79.477l-0.162-1.017c-0.557-3.197-1.141-3.243-1.529-3.272c-0.248-0.018-0.58-0.044-1.066,0.758
		c-0.133-1.573-0.738-3.165-1.629-4.168l-0.285-1.385c-0.971-4.094-1.496-4.093-1.957-4.093c-0.486,0-1.037,0.001-1.633,4.093
		l-0.217,1.481c-0.918,1.097-1.506,2.832-1.555,4.483c0,0-0.074,0.264-0.098,0.264c-0.029,0-0.115-0.264-0.115-0.264
		c-0.061-1.875-0.812-3.853-1.953-4.887l-0.25-1.219c-0.973-4.094-1.496-4.093-1.959-4.093c-0.486,0-1.037,0.001-1.633,4.093
		l-0.33,2.161c-0.732,1.143-1.178,2.711-1.174,4.185c0,0.052,0.004,0.101,0.004,0.153c-0.668-1.467-1.092-1.435-1.396-1.412
		c-0.385,0.029-0.967,0.074-1.549,3.22l-0.277,1.512c-0.844,1.155-1.361,2.857-1.361,4.451c0.002,3.158,1.959,4.284,3.643,4.289
		c1.062,0.132,1.9-0.036,1.268,0.963c-0.002,0.003-0.002,0.006-0.004,0.009c-0.787,1.037-1.395,2.348-1.047,3.734
		c0.338,1.337,1.686,2.513,3.281,2.858c1.295,0.281,2.436-0.057,3.133-0.929c0.998-1.248,1.105-1.245,1.561-1.238l0.219,0.003
		l0.219-0.004c0.455-0.008,0.564-0.01,1.562,1.236c0.428,0.532,1.404,1.265,3.008,0.95c1.605-0.312,3.039-1.477,3.391-2.888
		c0.408-1.641-0.52-3.177-1.502-4.274c0.008-0.409,0.748-0.312,1.6-0.436c0,0,0.002,0,0.004,0c1.688,0,3.656-1.127,3.652-4.296
		C218.55,82.615,217.821,80.579,216.69,79.477z"/>
	<path fill="#202020" d="M202.573,97.78c-0.373,0-0.76-0.042-1.145-0.127c-2.094-0.453-3.809-1.987-4.271-3.816
		c-0.303-1.205-0.107-2.48,0.562-3.742c-2.291-0.221-4.459-1.972-4.463-5.571c-0.002-1.771,0.531-3.603,1.434-4.968l0.227-1.234
		c0.484-2.622,1.088-4.163,2.738-4.286c0.07-0.006,0.145-0.011,0.221-0.011c0.109,0,0.215,0.009,0.316,0.023
		c0.209-0.749,0.506-1.465,0.873-2.093l0.289-1.9c0.514-3.523,1.082-5.204,2.928-5.204c1.74,0,2.377,1.503,3.232,5.099l0.178,0.873
		c0.314,0.34,0.6,0.733,0.854,1.17c0.131-0.229,0.271-0.446,0.422-0.649l0.164-1.138c0.525-3.606,1.072-5.214,2.93-5.214
		c1.738,0,2.377,1.503,3.232,5.1l0.227,1.104c0.574,0.735,1.037,1.666,1.342,2.679c0.004,0,0.008,0,0.012,0
		c0.078,0,0.152,0.005,0.223,0.01c1.662,0.124,2.258,1.689,2.721,4.354l0.102,0.638c1.189,1.371,1.941,3.521,1.941,5.625
		c0.002,2.265-0.865,3.577-1.592,4.278c-0.748,0.724-1.719,1.171-2.777,1.293c0.68,1.263,0.879,2.536,0.576,3.752
		c-0.469,1.884-2.24,3.434-4.408,3.856c-0.34,0.065-0.676,0.1-1,0.1c-1.863,0-2.914-1.061-3.279-1.517
		c-0.326-0.405-0.518-0.627-0.629-0.744l-0.111,0.002l-0.152-0.002c-0.109,0.117-0.303,0.339-0.627,0.746
		C205.079,97.242,203.911,97.78,202.573,97.78z"/>
	<g>
		<path fill="#FFFFFF" d="M204.491,71.46l-0.25-1.219c-0.973-4.095-1.496-4.094-1.959-4.094c-0.486,0-1.037,0.001-1.633,4.094
			l-0.33,2.162c-0.732,1.142-1.178,2.709-1.174,4.184c0,0.052,0.004,0.101,0.004,0.153c-0.668-1.467-1.092-1.434-1.396-1.411
			c-0.385,0.028-0.967,0.073-1.549,3.219l-0.277,1.512c-0.844,1.155-1.361,2.857-1.361,4.451c0.002,3.17,1.973,4.293,3.66,4.291
			c1.688-0.001,3.656-1.129,3.652-4.299c-0.002-1.58-0.518-3.269-1.35-4.422c0.676,0.559,1.504,0.796,2.275,0.795
			c1.688,0,3.656-1.127,3.652-4.296C206.454,74.638,205.681,72.537,204.491,71.46z"/>
	</g>
	<g>
		<path fill="none" d="M214.667,78.656c-0.012-0.008-0.025-0.017-0.035-0.024c-0.02,0.011-0.043,0.023-0.072,0.038
			C214.595,78.665,214.632,78.659,214.667,78.656z"/>
		<path fill="#FFFFFF" d="M216.69,79.466l-0.162-1.017c-0.557-3.197-1.141-3.242-1.529-3.272c-0.248-0.019-0.58-0.044-1.066,0.758
			c-0.133-1.573-0.738-3.164-1.629-4.168l-0.285-1.384c-0.971-4.095-1.496-4.094-1.957-4.094c-0.486,0-1.037,0.001-1.633,4.093
			l-0.217,1.481c-0.961,1.148-1.566,2.997-1.566,4.717c0.004,3.17,1.975,4.29,3.662,4.29c0.771,0,1.6-0.241,2.273-0.801
			c-0.83,1.156-1.344,2.844-1.342,4.425c0.004,3.171,1.975,4.293,3.66,4.292c1.688-0.002,3.656-1.128,3.652-4.297
			C218.55,82.604,217.821,80.568,216.69,79.466z M214.667,78.656c-0.035,0.003-0.072,0.009-0.107,0.014
			c0.029-0.015,0.053-0.027,0.072-0.038C214.642,78.64,214.655,78.648,214.667,78.656z"/>
	</g>
	<g>
		<path fill="#FFFFFF" d="M211.694,87.756c-0.268-0.2-0.562-1.324-0.775-2.148c-0.588-2.271-1.396-5.384-4.326-5.381
			c-3.139,0.007-4.078,4.505-4.305,5.385c-0.211,0.821-0.502,1.946-0.77,2.147c-0.895,0.673-3.762,3.074-3.094,5.747
			c0.338,1.336,1.686,2.514,3.281,2.858c1.295,0.282,2.436-0.057,3.133-0.929c0.998-1.247,1.105-1.245,1.561-1.238l0.219,0.002
			l0.219-0.003c0.455-0.007,0.564-0.01,1.562,1.236c0.428,0.532,1.404,1.264,3.008,0.95c1.605-0.312,3.039-1.477,3.391-2.887
			C215.462,90.825,212.589,88.428,211.694,87.756z"/>
	</g>
	<path d="M202.802,80.168c1.629-0.002,2.947-1.178,2.945-3.588c-0.002-2.409-1.324-5.139-2.951-5.138
		c-1.629,0.003-2.947,2.733-2.943,5.144C199.854,78.995,201.175,80.169,202.802,80.168"/>
	<path d="M198.226,88.092c1.627-0.002,2.945-1.178,2.943-3.587s-1.324-5.14-2.951-5.138c-1.629,0.002-2.947,2.733-2.943,5.143
		C195.276,86.92,196.597,88.094,198.226,88.092"/>
	<path d="M210.306,80.159c-1.627,0.002-2.947-1.17-2.949-3.581c-0.002-2.408,1.314-5.141,2.941-5.144
		c1.629-0.001,2.951,2.729,2.953,5.139S211.935,80.158,210.306,80.159"/>
	<path d="M214.899,88.077c-1.629,0.001-2.949-1.173-2.951-3.583c-0.002-2.407,1.314-5.141,2.943-5.143
		c1.627-0.001,2.949,2.729,2.953,5.138C217.847,86.898,216.526,88.075,214.899,88.077"/>
	<path d="M203.55,70.404l-1.264-0.912l-0.936,0.85c0,0,0.506-3.484,0.932-3.484C202.708,66.856,203.55,70.404,203.55,70.404"/>
	<path d="M211.329,70.547l-1.266-0.913l-0.934,0.85c0,0,0.508-3.485,0.932-3.485C210.487,66.997,211.329,70.547,211.329,70.547"/>
	<path d="M215.829,78.57l-1.162-0.764l-1.018,0.549c0,0,0.871-2.503,1.295-2.471C215.366,75.917,215.829,78.57,215.829,78.57"/>
	<path d="M199.091,78.557l-1.266-0.578l-0.924,0.696c0,0,0.482-2.606,0.906-2.639C198.229,76.004,199.091,78.557,199.091,78.557"/>
	<path d="M206.644,91.957c0,0,6.951-1.301,5.916-2.533c-0.338-0.402-1.352-1.186-1.352-1.186c-1.223-1.233-1.004-7.305-4.576-7.301
		c-1.426,0.001-2.244,0.962-2.791,2.195l0.004,0.01c-0.822,1.865-1.033,4.347-1.764,5.093c0,0-0.621,0.43-1.613,1.471
		C199.286,90.946,206.501,92.247,206.644,91.957z"/>
	<g>
		<path fill="#535353" d="M202.602,96.081c-1.498,0-3.371-1.072-3.772-2.668c-0.428-1.703,0.746-3.312,1.807-4.362
			c0.104-0.103,0.231-0.229,4.349-0.45l0.935-2.853l1.505,5.084l0.673-2.253l0.261,0.015c4.062,0.225,4.192,0.354,4.297,0.456
			c1.06,1.047,2.233,2.651,1.812,4.354c-0.399,1.602-2.272,2.677-3.771,2.677l0,0c-0.152,0-0.302-0.011-0.448-0.032l-0.154-0.022
			l-0.01-0.017c-0.553-0.118-1.018-0.397-1.351-0.813c-1.104-1.379-1.316-1.379-1.701-1.379l-0.376,0.006l-0.369-0.005
			c-0.39,0-0.604,0-1.708,1.384C204.117,95.776,203.434,96.081,202.602,96.081z"/>
		<path fill="#FFFFFF" d="M205.903,86.856l1.52,5.134l0.916-3.067c0,0,3.938,0.218,4.084,0.362c1.088,1.075,2.09,2.557,1.723,4.039
			c-0.341,1.368-2.006,2.426-3.451,2.426c-0.136,0-0.27-0.009-0.4-0.028l-0.006-0.01c-0.508-0.079-0.965-0.306-1.299-0.723
			c-1.107-1.382-1.411-1.503-1.959-1.503c-0.112,0-0.235,0.006-0.377,0.006c-0.139,0-0.259-0.005-0.368-0.005
			c-0.554,0-0.854,0.116-1.966,1.508c-0.423,0.528-1.047,0.756-1.718,0.756c-1.445,0-3.109-1.053-3.452-2.418
			c-0.373-1.485,0.631-2.971,1.719-4.048c0.146-0.145,4.359-0.367,4.359-0.367L205.903,86.856 M205.936,84.64l-0.659,2.011
			l-0.535,1.633c-4.021,0.22-4.141,0.339-4.337,0.532c-1.608,1.593-2.264,3.21-1.895,4.679c0.438,1.744,2.469,2.917,4.092,2.917
			c0.923,0,1.716-0.356,2.233-1.004c1.005-1.26,1.173-1.26,1.45-1.26l0.15,0.002l0.218,0.003l0.219-0.003l0.158-0.003
			c0.273,0,0.438,0,1.444,1.256c0.352,0.439,0.83,0.745,1.396,0.896l0.013,0.021l0.314,0.056c0.161,0.023,0.328,0.035,0.497,0.035
			c1.624,0,3.655-1.176,4.092-2.927c0.363-1.467-0.294-3.081-1.899-4.668c-0.202-0.199-0.324-0.32-4.512-0.552l-0.52-0.028
			l-0.149,0.499l-0.28,0.939l-0.89-3.005L205.936,84.64L205.936,84.64z"/>
	</g>
	<g>
		<path fill="#231F20" d="M73.147,50.606l-0.443-2.786c-1.527-8.767-3.127-8.892-4.191-8.972c-0.682-0.049-1.59-0.119-2.926,2.077
			c-0.363-4.312-2.023-8.675-4.465-11.423l-0.779-3.797c-2.662-11.221-4.1-11.221-5.367-11.221c-1.334,0-2.842,0.003-4.475,11.221
			l-0.59,4.06c-2.52,3.007-4.131,7.764-4.266,12.292c0,0-0.201,0.722-0.27,0.722c-0.076,0-0.312-0.722-0.312-0.722
			c-0.164-5.14-2.227-10.561-5.355-13.397l-0.686-3.34c-2.666-11.223-4.1-11.221-5.367-11.221c-1.334,0-2.848,0.002-4.479,11.221
			l-0.902,5.925c-2.012,3.13-3.227,7.429-3.221,11.47c0,0.142,0.01,0.276,0.01,0.421c-1.828-4.021-2.992-3.934-3.826-3.872
			c-1.053,0.08-2.65,0.204-4.244,8.825l-0.762,4.144c-2.311,3.166-3.732,7.835-3.73,12.202c0.008,8.657,5.369,11.743,9.984,11.758
			c2.912,0.362,5.211-0.1,3.475,2.637c-0.004,0.01-0.004,0.018-0.012,0.026c-2.154,2.844-3.818,6.437-2.867,10.237
			c0.926,3.663,4.619,6.886,8.992,7.835c3.551,0.771,6.678-0.156,8.586-2.546c2.738-3.42,3.031-3.412,4.281-3.395l0.598,0.008
			l0.604-0.008c1.244-0.022,1.543-0.03,4.281,3.385c1.172,1.46,3.846,3.469,8.242,2.606c4.404-0.857,8.332-4.047,9.295-7.914
			c1.119-4.499-1.424-8.709-4.117-11.719c0.021-1.12,2.049-0.854,4.389-1.193c0,0,0.004,0,0.008,0
			c4.625-0.002,10.023-3.091,10.014-11.778C78.249,59.21,76.247,53.628,73.147,50.606z"/>
		<path fill="#231F20" d="M34.454,100.78c-1.025,0-2.084-0.116-3.143-0.349c-5.738-1.241-10.439-5.448-11.709-10.46
			c-0.824-3.305-0.291-6.802,1.543-10.259c-6.279-0.606-12.223-5.404-12.23-15.273c-0.006-4.855,1.455-9.875,3.928-13.615
			l0.623-3.385c1.328-7.186,2.98-11.411,7.504-11.75c0.195-0.016,0.395-0.028,0.605-0.028c0.303,0,0.59,0.023,0.867,0.065
			c0.574-2.056,1.387-4.016,2.393-5.738l0.797-5.209c1.402-9.66,2.965-14.268,8.023-14.268c4.768,0,6.512,4.122,8.859,13.979
			l0.49,2.393c0.857,0.93,1.643,2.011,2.338,3.206c0.359-0.628,0.746-1.223,1.156-1.782l0.451-3.118
			c1.439-9.883,2.938-14.292,8.025-14.292c4.77,0,6.518,4.121,8.861,13.981l0.621,3.023c1.576,2.019,2.844,4.566,3.678,7.346
			c0.012,0,0.025,0,0.035,0c0.215,0,0.416,0.011,0.607,0.024c4.559,0.34,6.189,4.633,7.457,11.933l0.279,1.75
			c3.26,3.755,5.32,9.65,5.326,15.419c0.004,6.207-2.373,9.806-4.367,11.727c-2.049,1.982-4.709,3.21-7.609,3.546
			c1.861,3.461,2.406,6.951,1.576,10.284c-1.285,5.163-6.141,9.41-12.084,10.57c-0.93,0.18-1.85,0.274-2.738,0.274
			c-5.109,0-7.99-2.908-8.99-4.159c-0.896-1.11-1.42-1.717-1.725-2.039l-0.307,0.006l-0.416-0.006
			c-0.301,0.322-0.828,0.929-1.719,2.046C41.319,99.304,38.122,100.78,34.454,100.78z"/>
		<g>
			<path fill="#FFFFFF" d="M39.708,28.632l-0.686-3.342c-2.666-11.224-4.1-11.221-5.367-11.221c-1.334,0-2.848,0.003-4.479,11.221
				l-0.902,5.925c-2.012,3.131-3.227,7.429-3.221,11.47c0,0.142,0.01,0.276,0.01,0.421c-1.828-4.02-2.992-3.932-3.826-3.868
				c-1.053,0.079-2.65,0.2-4.244,8.822l-0.762,4.144c-2.311,3.169-3.732,7.834-3.73,12.203c0.008,8.688,5.408,11.766,10.035,11.761
				c4.621-0.004,10.018-3.092,10.01-11.782c-0.004-4.332-1.416-8.961-3.699-12.122c1.85,1.532,4.123,2.183,6.236,2.18
				c4.625,0,10.021-3.091,10.012-11.775C45.089,37.342,42.968,31.585,39.708,28.632z"/>
		</g>
		<g>
			<path fill="none" d="M67.603,48.357c-0.031-0.023-0.068-0.046-0.1-0.066c-0.049,0.028-0.115,0.063-0.195,0.104
				C67.405,48.382,67.503,48.365,67.603,48.357z"/>
			<path fill="#FFFFFF" d="M73.147,50.578l-0.443-2.787c-1.527-8.765-3.127-8.89-4.191-8.971c-0.682-0.052-1.59-0.121-2.926,2.075
				c-0.363-4.312-2.023-8.674-4.465-11.423l-0.779-3.794c-2.662-11.225-4.1-11.224-5.367-11.224c-1.334,0-2.842,0.005-4.475,11.221
				l-0.59,4.06c-2.639,3.15-4.297,8.216-4.295,12.932c0.012,8.688,5.412,11.759,10.037,11.758c2.115,0,4.385-0.66,6.232-2.195
				c-2.277,3.169-3.684,7.797-3.676,12.131c0.006,8.693,5.408,11.768,10.029,11.765c4.625-0.005,10.023-3.091,10.014-11.778
				C78.249,59.181,76.247,53.599,73.147,50.578z M67.603,48.357c-0.1,0.008-0.197,0.024-0.295,0.038
				c0.08-0.041,0.146-0.076,0.195-0.104C67.534,48.312,67.571,48.334,67.603,48.357z"/>
		</g>
		<g>
			<path fill="#FFFFFF" d="M59.454,73.303c-0.736-0.551-1.543-3.632-2.125-5.89c-1.615-6.229-3.828-14.757-11.857-14.749
				C36.864,52.681,34.29,65.01,33.671,67.421c-0.578,2.252-1.375,5.335-2.109,5.89c-2.453,1.845-10.312,8.428-8.48,15.754
				c0.926,3.661,4.619,6.888,8.992,7.835c3.551,0.771,6.678-0.157,8.586-2.547c2.738-3.42,3.031-3.415,4.281-3.396l0.598,0.008
				l0.604-0.011c1.244-0.02,1.543-0.025,4.281,3.39c1.172,1.46,3.846,3.465,8.242,2.606c4.404-0.855,8.332-4.049,9.295-7.916
				C69.782,81.716,61.909,75.145,59.454,73.303z"/>
		</g>
		<path d="M35.079,52.501c4.463-0.003,8.08-3.229,8.072-9.834c-0.006-6.605-3.629-14.086-8.092-14.083
			c-4.463,0.007-8.074,7.494-8.064,14.098C26.999,49.287,30.62,52.503,35.079,52.501"/>
		<path d="M22.534,74.22c4.461-0.004,8.074-3.226,8.068-9.831c-0.006-6.603-3.629-14.088-8.09-14.084
			c-4.465,0.005-8.08,7.493-8.07,14.099C14.45,71.009,18.067,74.226,22.534,74.22"/>
		<path d="M55.647,52.479c-4.461,0.005-8.08-3.208-8.086-9.816c-0.006-6.603,3.604-14.094,8.064-14.1
			c4.463-0.003,8.092,7.481,8.094,14.086C63.726,49.251,60.112,52.476,55.647,52.479"/>
		<path d="M68.239,74.181c-4.463,0.002-8.082-3.216-8.09-9.82c-0.004-6.601,3.605-14.092,8.068-14.098
			c4.463-0.004,8.084,7.48,8.094,14.084C76.317,70.951,72.698,74.176,68.239,74.181"/>
		<path d="M37.13,25.739l-3.467-2.503l-2.564,2.331c0,0,1.391-9.554,2.557-9.554C34.821,16.011,37.13,25.739,37.13,25.739"/>
		<path d="M58.456,26.129l-3.475-2.503l-2.559,2.327c0,0,1.391-9.552,2.553-9.552C56.144,16.398,58.456,26.129,58.456,26.129"/>
		<path d="M70.79,48.122l-3.188-2.094l-2.791,1.505c0,0,2.393-6.863,3.549-6.773C69.521,40.849,70.79,48.122,70.79,48.122"/>
		<path d="M24.905,48.083l-3.469-1.582l-2.533,1.909c0,0,1.322-7.146,2.484-7.235C22.546,41.086,24.905,48.083,24.905,48.083"/>
	</g>
	<path d="M45.61,84.815c0,0,19.053-3.565,16.217-6.943c-0.928-1.102-3.707-3.25-3.707-3.25C54.769,71.241,55.37,54.6,45.575,54.61
		c-3.904,0.003-6.148,2.637-7.648,6.019l0.012,0.025c-2.258,5.113-2.834,11.915-4.838,13.962c0,0-1.703,1.177-4.42,4.029
		C25.442,82.048,45.218,85.612,45.61,84.815z"/>
	<g>
		<path fill="#E31837" d="M34.53,96.046c-4.078,0-9.176-2.916-10.267-7.257c-1.165-4.634,2.038-9.02,4.93-11.884
			c0.259-0.257,0.612-0.607,11.925-1.216l2.498-7.643l4.132,13.956l1.901-6.367l0.653,0.036c11.104,0.615,11.466,0.972,11.729,1.232
			c2.89,2.854,6.093,7.229,4.945,11.862c-1.089,4.354-6.188,7.276-10.267,7.276c0,0,0,0,0,0c-0.415,0-0.824-0.029-1.216-0.087
			l-0.435-0.063l-0.022-0.046c-1.489-0.32-2.743-1.074-3.645-2.198c-3.054-3.81-3.648-3.81-4.728-3.81c0,0-0.819,0.014-1.025,0.014
			c-0.207,0-1.01-0.012-1.01-0.012c-1.09,0-1.691,0-4.742,3.822C38.64,95.222,36.788,96.046,34.53,96.046z"/>
		<path fill="#FFFFFF" d="M43.577,70.833l4.168,14.077l2.512-8.411c0,0,10.791,0.598,11.193,0.995
			c2.982,2.945,5.73,7.007,4.723,11.073c-0.938,3.749-5.501,6.647-9.463,6.647c-0.371,0-0.738-0.025-1.095-0.078l-0.014-0.028
			c-1.391-0.214-2.646-0.838-3.562-1.979c-3.04-3.793-3.87-4.12-5.374-4.12c-0.306,0-0.64,0.014-1.026,0.015
			c-0.379,0-0.707-0.013-1.009-0.013c-1.518,0-2.342,0.316-5.39,4.135c-1.159,1.448-2.869,2.07-4.709,2.07
			c-3.961,0-8.522-2.886-9.463-6.63c-1.023-4.069,1.729-8.142,4.709-11.093c0.4-0.397,11.953-1.008,11.953-1.008L43.577,70.833
			 M43.655,65.26l-1.653,5.059l-1.495,4.574c-11.071,0.604-11.403,0.935-11.898,1.426c-3.043,3.014-6.409,7.66-5.148,12.673
			c1.184,4.715,6.68,7.883,11.07,7.883c2.482,0,4.614-0.956,6.003-2.692c2.804-3.513,3.29-3.513,4.096-3.513
			c0.132,0,0.27,0.003,0.416,0.006c0.185,0.003,0.381,0.007,0.593,0.007c0.214-0.001,0.41-0.005,0.596-0.009
			c0.151-0.003,0.294-0.006,0.431-0.006c0.796,0,1.277,0,4.081,3.499c0.942,1.173,2.214,1.989,3.716,2.394l0.029,0.061l0.882,0.156
			c0.432,0.063,0.882,0.096,1.337,0.096c4.392,0,9.889-3.176,11.071-7.902c1.243-5.016-2.123-9.649-5.166-12.654
			c-0.511-0.505-0.848-0.839-12.266-1.471l-1.306-0.072l-0.374,1.252l-0.917,3.072l-2.586-8.734L43.655,65.26L43.655,65.26z"/>
	</g>
	<path fill="#202020" d="M163.313,50.606l-0.443-2.786c-1.527-8.766-3.127-8.89-4.189-8.97c-0.684-0.05-1.592-0.121-2.928,2.075
		c-0.363-4.312-2.023-8.673-4.463-11.423l-0.781-3.796c-2.662-11.222-4.1-11.222-5.367-11.222c-1.332,0-2.842,0.005-4.475,11.221
		l-0.59,4.06c-2.52,3.008-4.131,7.764-4.266,12.292c0,0-0.201,0.722-0.268,0.722c-0.078,0-0.314-0.722-0.314-0.722
		c-0.164-5.14-2.227-10.561-5.355-13.396l-0.686-3.341c-2.666-11.224-4.1-11.222-5.367-11.222c-1.334,0-2.848,0.003-4.479,11.222
		l-0.902,5.924c-2.012,3.132-3.227,7.43-3.221,11.47c0,0.142,0.01,0.276,0.01,0.421c-1.828-4.021-2.992-3.934-3.826-3.871
		c-1.053,0.08-2.65,0.203-4.244,8.824l-0.762,4.146c-2.311,3.166-3.732,7.833-3.73,12.202c0.008,8.655,5.369,11.742,9.984,11.758
		c2.912,0.36,5.211-0.1,3.475,2.637c-0.004,0.01-0.004,0.016-0.012,0.026c-2.154,2.842-3.818,6.435-2.867,10.235
		c0.926,3.664,4.619,6.888,8.992,7.836c3.551,0.771,6.678-0.156,8.586-2.546c2.738-3.421,3.033-3.413,4.281-3.394l0.598,0.006
		l0.604-0.008c1.244-0.022,1.543-0.028,4.281,3.387c1.172,1.458,3.848,3.467,8.242,2.606c4.406-0.857,8.332-4.049,9.295-7.916
		c1.119-4.497-1.424-8.709-4.117-11.718c0.023-1.121,2.051-0.855,4.389-1.193c0,0,0.004,0,0.008,0
		c4.625-0.001,10.023-3.091,10.014-11.777C168.415,59.21,166.413,53.629,163.313,50.606z"/>
	<path fill="#202020" d="M124.62,100.78c-1.025,0-2.084-0.114-3.143-0.349c-5.738-1.241-10.439-5.447-11.709-10.46
		c-0.824-3.305-0.291-6.802,1.543-10.259c-6.279-0.605-12.223-5.404-12.23-15.272c-0.006-4.856,1.455-9.875,3.928-13.616
		l0.623-3.385c1.328-7.186,2.98-11.411,7.504-11.749c0.195-0.017,0.395-0.028,0.605-0.028c0.303,0,0.59,0.022,0.867,0.064
		c0.574-2.056,1.387-4.016,2.393-5.736l0.797-5.211c1.402-9.658,2.965-14.267,8.023-14.267c4.768,0,6.512,4.121,8.859,13.979
		l0.49,2.393c0.857,0.931,1.643,2.011,2.338,3.207c0.359-0.629,0.746-1.224,1.156-1.781l0.451-3.118
		c1.439-9.885,2.938-14.292,8.025-14.292c4.77,0,6.518,4.12,8.861,13.979l0.621,3.024c1.576,2.018,2.846,4.567,3.678,7.345
		c0.012,0,0.025,0,0.035,0c0.215,0,0.416,0.011,0.607,0.024c4.559,0.342,6.189,4.633,7.457,11.935l0.279,1.748
		c3.262,3.757,5.322,9.652,5.326,15.419c0.006,6.208-2.373,9.806-4.367,11.727c-2.049,1.983-4.709,3.212-7.609,3.546
		c1.861,3.461,2.406,6.951,1.576,10.284c-1.285,5.163-6.141,9.411-12.084,10.57c-0.928,0.18-1.85,0.274-2.738,0.274
		c-5.109,0-7.99-2.908-8.99-4.157c-0.896-1.112-1.42-1.719-1.725-2.041l-0.307,0.006l-0.416-0.006
		c-0.301,0.322-0.828,0.929-1.719,2.046C131.485,99.305,128.288,100.78,124.62,100.78z"/>
	<g>
		<path fill="#FFFFFF" d="M129.874,28.632l-0.686-3.342c-2.666-11.224-4.1-11.221-5.367-11.221c-1.334,0-2.848,0.003-4.479,11.221
			l-0.902,5.927c-2.012,3.129-3.227,7.427-3.221,11.468c0,0.143,0.01,0.276,0.01,0.421c-1.828-4.02-2.992-3.931-3.826-3.867
			c-1.053,0.078-2.65,0.201-4.244,8.822l-0.762,4.144c-2.311,3.168-3.732,7.833-3.73,12.203c0.008,8.688,5.41,11.766,10.035,11.76
			c4.621-0.002,10.018-3.092,10.01-11.782c-0.004-4.331-1.416-8.961-3.699-12.122c1.85,1.532,4.123,2.183,6.236,2.18
			c4.625,0,10.021-3.09,10.012-11.774C135.255,37.342,133.134,31.586,129.874,28.632z"/>
	</g>
	<g>
		<path fill="none" d="M157.769,48.357c-0.031-0.022-0.068-0.044-0.1-0.066c-0.049,0.029-0.115,0.063-0.195,0.104
			C157.571,48.382,157.669,48.367,157.769,48.357z"/>
		<path fill="#FFFFFF" d="M163.313,50.578l-0.443-2.787c-1.527-8.765-3.127-8.888-4.189-8.971c-0.684-0.051-1.592-0.12-2.928,2.076
			c-0.363-4.312-2.023-8.674-4.463-11.424l-0.781-3.794c-2.662-11.225-4.1-11.222-5.367-11.222c-1.332,0-2.842,0.004-4.475,11.219
			l-0.59,4.061c-2.639,3.149-4.297,8.217-4.295,12.932c0.012,8.688,5.412,11.758,10.037,11.758c2.117,0,4.385-0.66,6.232-2.194
			c-2.277,3.169-3.684,7.795-3.676,12.13c0.006,8.692,5.408,11.767,10.029,11.765c4.625-0.006,10.023-3.092,10.014-11.779
			C168.415,59.181,166.413,53.601,163.313,50.578z M157.769,48.357c-0.1,0.01-0.197,0.024-0.295,0.038
			c0.08-0.041,0.146-0.075,0.195-0.104C157.7,48.313,157.737,48.335,157.769,48.357z"/>
	</g>
	<g>
		<path fill="#FFFFFF" d="M149.62,73.303c-0.736-0.551-1.543-3.632-2.125-5.89c-1.615-6.229-3.828-14.757-11.857-14.749
			c-8.607,0.017-11.182,12.348-11.801,14.758c-0.578,2.253-1.375,5.336-2.109,5.889c-2.453,1.845-10.312,8.428-8.48,15.754
			c0.926,3.661,4.619,6.889,8.992,7.835c3.551,0.771,6.678-0.156,8.586-2.545c2.738-3.42,3.033-3.415,4.281-3.396l0.598,0.006
			l0.604-0.009c1.244-0.02,1.543-0.027,4.281,3.388c1.172,1.461,3.848,3.467,8.242,2.607c4.406-0.856,8.332-4.048,9.295-7.916
			C159.948,81.716,152.075,75.145,149.62,73.303z"/>
	</g>
	<path d="M125.245,52.501c4.463-0.003,8.08-3.229,8.072-9.833c-0.006-6.604-3.629-14.086-8.09-14.083
		c-4.465,0.007-8.076,7.493-8.066,14.097C117.165,49.288,120.786,52.503,125.245,52.501"/>
	<path d="M112.7,74.222c4.461-0.004,8.074-3.227,8.068-9.832c-0.006-6.603-3.629-14.088-8.09-14.084
		c-4.465,0.006-8.08,7.494-8.07,14.099C104.616,71.009,108.233,74.228,112.7,74.222"/>
	<path d="M145.813,52.479c-4.461,0.005-8.078-3.208-8.086-9.816c-0.004-6.601,3.604-14.092,8.064-14.1
		c4.463-0.003,8.092,7.481,8.094,14.086C153.892,49.253,150.278,52.476,145.813,52.479"/>
	<path d="M158.405,74.181c-4.463,0.004-8.082-3.214-8.09-9.819c-0.004-6.601,3.605-14.091,8.068-14.097
		c4.463-0.005,8.086,7.48,8.094,14.083C166.483,70.953,162.864,74.176,158.405,74.181"/>
	<path d="M127.296,25.739l-3.467-2.502l-2.564,2.33c0,0,1.391-9.554,2.559-9.554C124.987,16.011,127.296,25.739,127.296,25.739"/>
	<path d="M148.622,26.129l-3.475-2.503l-2.559,2.329c0,0,1.391-9.554,2.553-9.554C146.31,16.398,148.622,26.129,148.622,26.129"/>
	<path d="M160.956,48.124l-3.188-2.095l-2.791,1.504c0,0,2.393-6.861,3.549-6.773C159.687,40.849,160.956,48.124,160.956,48.124"/>
	<path d="M115.071,48.085l-3.469-1.584l-2.531,1.909c0,0,1.32-7.146,2.482-7.235C112.712,41.086,115.071,48.085,115.071,48.085"/>
	<path d="M135.776,84.817c0,0,19.053-3.566,16.217-6.943c-0.926-1.104-3.707-3.25-3.707-3.25
		c-3.352-3.381-2.75-20.022-12.545-20.014c-3.904,0.005-6.148,2.638-7.648,6.019l0.012,0.026
		c-2.258,5.112-2.834,11.915-4.838,13.962c0,0-1.703,1.178-4.42,4.03C115.608,82.048,135.384,85.612,135.776,84.817z"/>
	<g>
		<path fill="#535353" d="M124.696,96.046c-4.078,0-9.177-2.916-10.267-7.256c-1.166-4.635,2.037-9.021,4.93-11.884
			c0.259-0.257,0.612-0.607,11.925-1.215l2.501-7.642l4.13,13.953l1.901-6.366l0.652,0.036c11.104,0.614,11.467,0.972,11.73,1.233
			c2.889,2.854,6.093,7.228,4.943,11.86c-1.088,4.354-6.188,7.277-10.267,7.277c-0.001,0,0,0-0.001,0
			c-0.415,0-0.824-0.029-1.216-0.087l-0.427-0.062l-0.022-0.045c-1.494-0.321-2.751-1.077-3.652-2.201
			c-3.054-3.809-3.648-3.809-4.729-3.809c0,0-0.818,0.014-1.024,0.014s-1.009-0.012-1.009-0.012c-1.091,0-1.691,0-4.743,3.821
			C128.806,95.223,126.954,96.046,124.696,96.046z"/>
		<path fill="#FFFFFF" d="M133.745,70.835l4.166,14.075l2.512-8.41c0,0,10.791,0.597,11.193,0.995
			c2.982,2.945,5.73,7.007,4.723,11.072c-0.938,3.749-5.501,6.648-9.464,6.648c-0.371,0-0.737-0.025-1.095-0.078l-0.014-0.027
			c-1.391-0.216-2.646-0.838-3.562-1.98c-3.04-3.792-3.871-4.119-5.375-4.119c-0.306,0-0.64,0.014-1.025,0.015
			c-0.378,0-0.706-0.013-1.007-0.013c-1.52,0-2.344,0.316-5.392,4.134c-1.158,1.448-2.869,2.071-4.709,2.071
			c-3.961,0-8.522-2.887-9.463-6.63c-1.023-4.069,1.729-8.143,4.709-11.093c0.4-0.397,11.953-1.007,11.953-1.007L133.745,70.835
			 M133.824,65.264l-1.654,5.056l-1.496,4.575c-11.071,0.604-11.404,0.934-11.898,1.425c-3.044,3.013-6.41,7.659-5.149,12.673
			c1.184,4.715,6.68,7.882,11.07,7.882c2.482,0,4.614-0.956,6.003-2.692c2.804-3.512,3.291-3.512,4.098-3.512
			c0.132,0,0.27,0.003,0.415,0.006c0.185,0.003,0.381,0.007,0.592,0.007c0.214-0.001,0.41-0.005,0.595-0.008
			c0.151-0.004,0.294-0.007,0.431-0.007c0.797,0,1.277,0,4.082,3.498c0.942,1.176,2.22,1.994,3.73,2.398l0.029,0.06l0.868,0.153
			c0.432,0.063,0.881,0.096,1.336,0.096c4.393,0,9.889-3.176,11.071-7.903c1.243-5.015-2.123-9.648-5.166-12.653
			c-0.51-0.505-0.847-0.84-12.266-1.471l-1.306-0.072l-0.374,1.252l-0.917,3.07l-2.584-8.731L133.824,65.264L133.824,65.264z"/>
	</g>
</g>
</svg>
