<?xml version="1.0" encoding="utf-8"?>
<!-- Generator: Adobe Illustrator 16.0.4, SVG Export Plug-In . SVG Version: 6.00 Build 0)  -->
<!DOCTYPE svg PUBLIC "-//W3C//DTD SVG 1.1//EN" "http://www.w3.org/Graphics/SVG/1.1/DTD/svg11.dtd">
<svg version="1.1" id="Layer_1" xmlns="http://www.w3.org/2000/svg" xmlns:xlink="http://www.w3.org/1999/xlink" x="0px" y="0px"
	 width="531.423px" height="430.118px" viewBox="240.003 73.539 531.423 430.118"
	 enable-background="new 240.003 73.539 531.423 430.118" xml:space="preserve">
<g>
	<path d="M739.666,73.539H638.643h-265.55H272.069c-16.492,0-30.045,12.176-31.624,27.768l265.413,185.845L771.27,101.307
		C769.692,85.719,756.153,73.539,739.666,73.539z"/>
	<path d="M240.289,159.973v312.854c0,17.025,14.232,30.83,31.78,30.83h100.984c0.013,0,0.026,0.001,0.04,0.001h366.573
		c17.549,0,31.76-13.814,31.76-30.83V159.973L240.289,159.973z"/>
</g>
<path fill="#FFFFFF" d="M771.27,101.307L505.858,287.152L240.445,101.307c-0.102,1.003-0.156,2.02-0.156,3.049v55.617
	c0,0,240.877,180.955,265.569,180.955c24.642,0,265.568-180.954,265.568-180.954v-55.617
	C771.426,103.327,771.371,102.31,771.27,101.307z"/>
</svg>
