<?xml version="1.0" encoding="utf-8"?>
<!-- Generator: Adobe Illustrator 16.0.4, SVG Export Plug-In . SVG Version: 6.00 Build 0)  -->
<!DOCTYPE svg PUBLIC "-//W3C//DTD SVG 1.1//EN" "http://www.w3.org/Graphics/SVG/1.1/DTD/svg11.dtd">
<svg version="1.1" id="Layer_1" xmlns="http://www.w3.org/2000/svg" xmlns:xlink="http://www.w3.org/1999/xlink" x="0px" y="0px"
	 width="487.003px" height="405.942px" viewBox="22.381 12.226 487.003 405.942"
	 enable-background="new 22.381 12.226 487.003 405.942" xml:space="preserve">
<g>
	<g>
		<path fill="#FFFFFF" d="M78.075,402.662c-22.335,0-40.506-17.829-40.506-39.743L37.696,63.98l0.076-0.75
			c2.064-20.396,19.391-35.776,40.304-35.776h375.289c20.903,0,38.223,15.38,40.288,35.775l0.074,0.733l0.127,47.822v251.134
			c0,21.914-18.163,39.743-40.489,39.743L78.075,402.662z"/>
		<path d="M453.364,42.455c13.231,0,24.098,9.775,25.364,22.286l0.125,47.085v251.094c0,13.656-11.405,24.743-25.489,24.743H159.155
			c-0.01,0-0.021-0.001-0.031-0.001H78.075c-14.083,0-25.506-11.08-25.506-24.743l0.126-298.178
			c1.267-12.514,12.144-22.286,25.38-22.286h81.08h213.127H453.364 M453.364,12.455h-81.081H159.155h-81.08
			c-13.7,0-26.857,4.963-37.05,13.976C30.681,35.577,24.226,48.109,22.848,61.72l-0.152,1.5l0,1.508l-0.126,298.178
			c0,30.198,24.9,54.756,55.506,54.756h80.332h0.01l0.738,0.001h294.208c30.597,0,55.489-24.558,55.489-54.743V111.826v-0.04v-0.04
			l-0.125-47.085l-0.004-1.475l-0.148-1.467c-1.378-13.605-7.827-26.134-18.162-35.279
			C480.223,17.421,467.065,12.455,453.364,12.455L453.364,12.455z"/>
	</g>
	<path fill="#FFFFFF" stroke="#000000" stroke-width="30" stroke-linejoin="round" stroke-miterlimit="10" d="M41.139,81.559
		L265.711,225.95l224.99-145.209"/>
</g>
</svg>
