<?xml version="1.0" encoding="utf-8"?>
<!-- Generator: Adobe Illustrator 16.0.4, SVG Export Plug-In . SVG Version: 6.00 Build 0)  -->
<!DOCTYPE svg PUBLIC "-//W3C//DTD SVG 1.1//EN" "http://www.w3.org/Graphics/SVG/1.1/DTD/svg11.dtd">
<svg version="1.1" id="Layer_1" xmlns="http://www.w3.org/2000/svg" xmlns:xlink="http://www.w3.org/1999/xlink" x="0px" y="0px"
	 width="487.003px" height="405.942px" viewBox="0 0 487.003 405.942" enable-background="new 0 0 487.003 405.942"
	 xml:space="preserve">
<path fill="#FFFFFF" d="M55.865,390.575c-22.335,0-40.506-17.83-40.506-39.744l0.127-298.938l0.076-0.75
	c2.064-20.396,19.391-35.776,40.304-35.776h375.289c20.902,0,38.223,15.38,40.289,35.775l0.072,0.733l0.127,47.822v251.134
	c0,21.914-18.162,39.742-40.488,39.742L55.865,390.575z"/>
<path d="M431.155,30.367c13.23,0,24.098,9.775,25.363,22.286l0.125,47.085v251.094c0,13.656-11.404,24.742-25.488,24.742H136.945
	c-0.01,0-0.021,0-0.031,0H55.865c-14.083,0-25.506-11.08-25.506-24.744l0.126-298.177c1.267-12.514,12.144-22.286,25.38-22.286
	h81.08h213.127H431.155 M431.155,0.367h-81.082H136.945h-81.08c-13.7,0-26.857,4.963-37.05,13.976
	C8.471,23.489,2.016,36.021,0.638,49.632l-0.152,1.5v1.508L0.36,350.819c0,30.197,24.9,54.756,55.506,54.756h80.332h0.01h0.738
	h294.208c30.596,0,55.488-24.557,55.488-54.742V99.738v-0.04v-0.04l-0.125-47.085l-0.004-1.475l-0.148-1.467
	c-1.377-13.604-7.826-26.134-18.162-35.279C458.012,5.333,444.856,0.367,431.155,0.367L431.155,0.367z"/>
<path fill="#FFFFFF" stroke="#000000" stroke-width="30" stroke-linejoin="round" stroke-miterlimit="10" d="M18.929,69.471
	L243.5,213.862l224.99-145.208"/>
</svg>
