<?xml version="1.0" encoding="utf-8"?>
<!-- Generator: Adobe Illustrator 16.0.4, SVG Export Plug-In . SVG Version: 6.00 Build 0)  -->
<!DOCTYPE svg PUBLIC "-//W3C//DTD SVG 1.1//EN" "http://www.w3.org/Graphics/SVG/1.1/DTD/svg11.dtd">
<svg version="1.1" id="Capa_1" xmlns="http://www.w3.org/2000/svg" xmlns:xlink="http://www.w3.org/1999/xlink" x="0px" y="0px"
	 width="1440px" height="1440px" viewBox="0 0 1440 1440" enable-background="new 0 0 1440 1440" xml:space="preserve">
<g>
	<path d="M268.75,1430.211c-69.157,0-134.368-27.125-183.622-76.378C35.875,1304.579,8.75,1239.368,8.75,1170.211V552.86
		c0-69.157,27.125-134.368,76.378-183.621c49.253-49.254,114.465-76.379,183.622-76.379h617.351
		c69.157,0,134.368,27.125,183.622,76.379c49.253,49.253,76.378,114.464,76.378,183.621v617.351
		c0,69.157-27.125,134.368-76.378,183.622c-49.254,49.253-114.465,76.378-183.622,76.378H268.75z M270.938,448.898
		c-58.531,0-106.149,47.72-106.149,106.376v612.748c0,58.531,47.619,106.149,106.149,106.149h613.239
		c58.385,0,105.885-47.618,105.885-106.149V555.274c0-58.656-47.5-106.376-105.885-106.376H270.938z"/>
	<path fill="#FFFFFF" d="M886.101,296.86c34.401,0,67.837,6.794,99.378,20.194c30.46,12.94,57.852,31.45,81.415,55.013
		s42.072,50.955,55.013,81.415c13.4,31.542,20.194,64.977,20.194,99.378v617.351c0,34.401-6.794,67.837-20.194,99.378
		c-12.94,30.46-31.449,57.852-55.013,81.415s-50.955,42.072-81.415,55.013c-31.541,13.4-64.977,20.194-99.378,20.194H268.75
		c-34.401,0-67.837-6.794-99.378-20.194c-30.46-12.94-57.852-31.449-81.415-55.013c-23.563-23.563-42.072-50.955-55.013-81.415
		c-13.4-31.541-20.194-64.977-20.194-99.378V552.86c0-34.401,6.794-67.836,20.194-99.378c12.94-30.46,31.449-57.852,55.013-81.415
		c23.563-23.563,50.955-42.072,81.415-55.013c31.542-13.4,64.978-20.194,99.378-20.194H886.101 M270.938,1278.172h204.318h204.603
		h204.318c29.242,0,56.809-11.491,77.62-32.356c20.806-20.86,32.265-48.487,32.265-77.793V963.704v-204.11V555.274
		c0-29.362-11.456-57.044-32.259-77.947c-20.812-20.913-48.38-32.43-77.626-32.43H679.858H475.256H270.938
		c-29.312,0-56.944,11.515-77.806,32.422c-20.857,20.903-32.343,48.588-32.343,77.954v204.319v204.11v204.318
		c0,29.31,11.489,56.939,32.35,77.8C213.999,1266.684,241.628,1278.172,270.938,1278.172 M886.101,288.86H268.75
		c-145.2,0-264,118.8-264,264v617.351c0,145.2,118.8,264,264,264h617.351c145.2,0,264-118.8,264-264V552.86
		C1150.101,407.66,1031.301,288.86,886.101,288.86L886.101,288.86z M270.938,1270.172c-56.182,0-102.149-45.967-102.149-102.149
		s0-148.125,0-204.318s0-148.043,0-204.11c0-56.068,0-148.012,0-204.319c0-56.307,45.967-102.376,102.149-102.376
		s148.125,0,204.318,0c56.193,0,148.265,0,204.603,0c56.339,0,148.282,0,204.318,0s101.885,46.069,101.885,102.376
		c0,56.308,0,148.251,0,204.319c0,56.067,0,147.917,0,204.11s0,148.136,0,204.318s-45.849,102.149-101.885,102.149
		s-147.979,0-204.318,0c-56.338,0-148.409,0-204.603,0C419.063,1270.172,327.12,1270.172,270.938,1270.172L270.938,1270.172z"/>
</g>
<g>
	<path d="M774.804,982.894c-40.657,0-78.828-15.78-107.48-44.434L500.783,771.92c-28.653-28.653-44.433-66.824-44.433-107.48
		s15.78-78.828,44.433-107.48l297.671-297.67c28.653-28.653,66.824-44.433,107.48-44.433s78.827,15.78,107.48,44.432
		l166.541,166.542c28.653,28.652,44.433,66.823,44.433,107.48s-15.779,78.828-44.433,107.48L882.284,938.461
		C853.632,967.114,815.461,982.894,774.804,982.894z"/>
	<path fill="#FFFFFF" d="M905.935,294.856c18.456,0,36.911,7,50.912,21.001l166.541,166.541c28.002,28.001,28.002,73.821,0,101.823
		L825.716,881.893c-14.001,14.001-32.457,21.001-50.912,21.001s-36.91-7-50.911-21.001L557.351,715.351
		c-28.001-28.001-28.001-73.822,0-101.823l297.671-297.671C869.023,301.856,887.479,294.856,905.935,294.856 M905.935,134.856
		c-29.989,0-59.266,5.68-87.017,16.882c-28.986,11.7-54.904,28.854-77.032,50.981L444.214,500.391
		c-90.457,90.457-90.457,237.64,0,328.097l166.542,166.541c22.126,22.127,48.043,39.28,77.029,50.981
		c27.751,11.203,57.029,16.883,87.019,16.883s59.267-5.68,87.019-16.883c28.985-11.7,54.902-28.854,77.03-50.981l297.672-297.672
		c22.128-22.127,39.28-48.044,50.981-77.029c11.203-27.751,16.883-57.029,16.883-87.019c0-29.99-5.68-59.268-16.883-87.019
		c-11.701-28.985-28.854-54.902-50.982-77.03l-166.54-166.54c-22.128-22.128-48.046-39.281-77.032-50.981
		C965.2,140.536,935.924,134.856,905.935,134.856L905.935,134.856z"/>
</g>
<g>
	<path d="M1262.771,733.736c28.002,28.002,51.436,18.517,52.074-21.079l8.492-525.923c0.639-39.595-31.233-71.468-70.828-70.829
		l-525.924,8.492c-39.595,0.639-49.08,24.072-21.079,52.074L1262.771,733.736z"/>
</g>
</svg>
