<?xml version="1.0" encoding="utf-8"?>
<!-- Generator: Adobe Illustrator 16.0.4, SVG Export Plug-In . SVG Version: 6.00 Build 0)  -->
<!DOCTYPE svg PUBLIC "-//W3C//DTD SVG 1.1//EN" "http://www.w3.org/Graphics/SVG/1.1/DTD/svg11.dtd">
<svg version="1.1" id="Capa_1" xmlns="http://www.w3.org/2000/svg" xmlns:xlink="http://www.w3.org/1999/xlink" x="0px" y="0px"
	 width="512.793px" height="511.426px" viewBox="-41.455 -40.441 512.793 511.426"
	 enable-background="new -41.455 -40.441 512.793 511.426" xml:space="preserve">
<g>
	<path fill="#FFFFFF" d="M16.617,454.991c-23.145,0-41.975-21.193-41.975-47.242l0.134-389.197l0.051-0.61
		c2.004-24.409,19.97-42.816,41.79-42.816h396.9c21.81,0,39.769,18.407,41.774,42.815l0.05,0.597l0.133,61.958v327.252
		c0,26.051-18.822,47.244-41.957,47.244L16.617,454.991z"/>
	<path d="M413.518-9.875c13.994,0,25.485,12.739,26.825,29.044l0.132,61.359v327.22c0,17.795-12.062,32.244-26.957,32.244h-311.15
		c-0.012,0-0.022-0.002-0.033-0.002H16.617c-14.894,0-26.975-14.441-26.975-32.242l0.134-388.58
		C-8.885,2.862,2.619-9.875,16.617-9.875h85.75h225.4H413.518 M413.518-39.875h-85.75h-225.4h-85.75
		c-15.244,0-29.545,6.436-40.271,18.122C-33.081-11.48-38.93,2.181-40.123,16.714l-0.101,1.22v1.225l-0.134,388.579
		c0,15.646,5.289,30.577,14.893,42.058c10.737,12.834,26.076,20.195,42.082,20.195h84.361l0.01,0.002h1.379h311.15
		c16.012,0,31.351-7.367,42.085-20.213c9.591-11.477,14.872-26.404,14.872-42.031V80.528v-0.032v-0.032l-0.132-61.359l-0.003-1.198
		l-0.098-1.194c-1.194-14.529-7.038-28.186-16.456-38.456C443.064-33.436,428.763-39.875,413.518-39.875L413.518-39.875z"/>
</g>
<g>
	<rect x="67.364" y="164.776" width="64.987" height="194.193"/>
	<path d="M100.274,71.148c-22.225,0-36.767,14.5-36.767,33.535c0,18.659,14.127,33.563,35.92,33.563h0.437
		c22.642,0,36.741-14.9,36.741-33.563C136.173,85.645,122.501,71.148,100.274,71.148z"/>
	<path d="M291.788,160.205c-34.499,0-49.91,18.871-58.534,32.1v-27.531H168.29c0.85,18.213,0,194.192,0,194.192h64.954V250.498
		c0-5.788,0.43-11.584,2.166-15.728c4.686-11.604,15.354-23.622,33.327-23.622c23.494,0,32.907,17.815,32.907,43.921v103.899h64.966
		V247.619C366.61,187.944,334.549,160.205,291.788,160.205z M233.254,192.922h-0.42c0.111-0.182,0.266-0.401,0.42-0.614V192.922z"/>
</g>
</svg>
