<?xml version="1.0" encoding="utf-8"?>
<!-- Generator: Adobe Illustrator 16.0.4, SVG Export Plug-In . SVG Version: 6.00 Build 0)  -->
<!DOCTYPE svg PUBLIC "-//W3C//DTD SVG 1.1//EN" "http://www.w3.org/Graphics/SVG/1.1/DTD/svg11.dtd">
<svg version="1.1" id="Layer_1" xmlns="http://www.w3.org/2000/svg" xmlns:xlink="http://www.w3.org/1999/xlink" x="0px" y="0px"
	 width="420.918px" height="484.739px" viewBox="0 23.313 420.918 484.739" enable-background="new 0 23.313 420.918 484.739"
	 xml:space="preserve">
<g id="Layer_1_1_">
</g>
<g id="Layer_3">
</g>
<g>
	<path fill="#FFFFFF" d="M546.461,518.052c-21.709,0-39.369-18.673-39.369-41.625l0.002-421.469
		c0-22.963,17.66-41.645,39.367-41.645l244.38,0.108c3.447,0.001,6.752,1.373,9.189,3.812l97.124,97.206
		c2.436,2.438,3.804,5.743,3.804,9.188v352.8c0,21.459-15.207,39.263-35.371,41.411c-0.445,0.048-0.894,0.072-1.341,0.073
		c0,0-50.2,0.141-50.212,0.141H546.461z"/>
	<path d="M546.461,26.313l244.374,0.108l97.124,97.206v22.387v239.354v91.06c0,14.859-10.417,27.063-23.749,28.484l-50.175,0.141
		H546.461c-14.554,0-26.369-12.808-26.369-28.625V146.014c0-0.011,0.002-0.022,0.002-0.035V54.958
		C520.094,39.141,531.901,26.313,546.461,26.313 M546.471,0.313c-0.004,0-0.006,0-0.01,0c-28.875,0-52.367,24.513-52.367,54.645
		v90.737c-0.002,0.107-0.002,0.213-0.002,0.319v330.413c0,30.12,23.492,54.625,52.369,54.625h267.573c0.023,0,0.048,0,0.073,0
		l50.175-0.141c0.896-0.003,1.792-0.052,2.684-0.146c26.79-2.854,46.993-26.216,46.993-54.338v-91.06V146.014v-22.387
		c0-6.892-2.735-13.501-7.606-18.377L809.228,8.044c-4.874-4.878-11.485-7.62-18.381-7.623L546.471,0.313L546.471,0.313z"/>
</g>
<g>
	<path fill="none" stroke="#000000" stroke-width="25" stroke-miterlimit="10" d="M791.436,25.721v77.906
		c0,11,9.325,19.594,20.325,19.594h76.175"/>
</g>
<g>
	<g>
		<path d="M826.936,446.721c0-7.18-5.82-13-13-13h-219c-7.18,0-13,5.82-13,13v3c0,7.181,5.82,13,13,13h219c7.18,0,13-5.819,13-13
			V446.721z"/>
	</g>
	<g>
		<path d="M826.936,387.721c0-7.18-5.82-13-13-13h-219c-7.18,0-13,5.82-13,13v3c0,7.181,5.82,13,13,13h219c7.18,0,13-5.819,13-13
			V387.721z"/>
	</g>
	<g>
		<path d="M826.936,328.721c0-7.18-5.82-13-13-13h-219c-7.18,0-13,5.82-13,13v3c0,7.181,5.82,13,13,13h219c7.18,0,13-5.819,13-13
			V328.721z"/>
	</g>
	<g>
		<path d="M826.936,269.721c0-7.18-5.82-13-13-13h-219c-7.18,0-13,5.82-13,13v3c0,7.18,5.82,13,13,13h219c7.18,0,13-5.82,13-13
			V269.721z"/>
	</g>
</g>
<g>
	<path d="M704.553,141.801c-29.273,0-53.004,15.078-53.004,46.013c0,5.336,0.721,10.491,2.039,15.379
		c13.271,8.44,31.207,13.63,50.965,13.63c19.757,0,37.692-5.19,50.966-13.63c1.318-4.889,2.039-10.043,2.039-15.379
		C757.558,156.879,733.826,141.801,704.553,141.801z"/>
	<g>
		<path d="M704.919,151.801c-18.473,0-33.502-15.029-33.502-33.502c0-18.474,15.029-33.503,33.502-33.503
			c18.475,0,33.504,15.029,33.504,33.503C738.423,136.771,723.394,151.801,704.919,151.801z"/>
		<path fill="#FFFFFF" d="M704.919,89.795c15.742,0,28.504,12.761,28.504,28.503c0,15.741-12.762,28.502-28.504,28.502
			c-15.741,0-28.502-12.761-28.502-28.502C676.417,102.557,689.178,89.795,704.919,89.795 M704.919,79.795
			c-21.229,0-38.502,17.272-38.502,38.503s17.272,38.502,38.502,38.502c21.23,0,38.504-17.272,38.504-38.502
			S726.15,79.795,704.919,79.795L704.919,79.795z"/>
	</g>
</g>
<g>
	<g>
		<path fill="#FFFFFF" d="M52.887,495.052c-21.709,0-39.369-18.673-39.369-41.625L13.52,77.958c0-22.963,17.66-41.645,39.367-41.645
			l244.379,0.108c3.447,0.001,6.752,1.373,9.189,3.812l97.125,97.206c2.436,2.438,3.803,5.743,3.803,9.188v306.8
			c0,21.459-15.207,39.263-35.371,41.411c-0.445,0.048-0.893,0.072-1.34,0.073c0,0-50.201,0.141-50.213,0.141H52.887z"/>
		<g>
			<path d="M56.266,49.313l236.808,0.108l94.117,97.206v22.387v239.354v45.06c0,14.859-10.095,27.063-23.015,28.484l-48.62,0.141
				H56.266c-14.103,0-25.553-12.808-25.553-28.625V169.014c0-0.011,0.002-0.022,0.002-0.035V77.958
				C30.715,62.141,42.157,49.313,56.266,49.313 M56.275,23.313c-0.004,0-0.006,0-0.01,0c-27.981,0-50.746,24.513-50.746,54.645
				v90.737c-0.002,0.107-0.002,0.213-0.002,0.319v284.413c0,30.12,22.765,54.625,50.748,54.625h259.288c0.022,0,0.048,0,0.072,0
				l48.62-0.141c0.869-0.003,1.737-0.052,2.601-0.146c25.961-2.854,45.539-26.216,45.539-54.338v-45.06V169.014v-22.387
				c0-6.892-2.651-13.501-7.372-18.377l-94.117-97.206c-4.723-4.878-11.129-7.62-17.812-7.623L56.275,23.313L56.275,23.313z"/>
			<g>
				<path fill="none" stroke="#000000" stroke-width="25" stroke-miterlimit="10" d="M292.104,48.421v79.008
					c0,11.155,9.165,19.871,19.976,19.871h77.767"/>
			</g>
		</g>
	</g>
	<g>
		<g>
			<path d="M326.935,422.072c0-6.037-5.605-10.932-12.521-10.932H103.49c-6.915,0-12.521,4.895-12.521,10.932v2.523
				c0,6.038,5.605,10.932,12.521,10.932h210.924c6.915,0,12.521-4.894,12.521-10.932V422.072z"/>
		</g>
		<g>
			<path d="M326.935,375.266c0-6.037-5.605-10.932-12.521-10.932H103.49c-6.915,0-12.521,4.895-12.521,10.932v2.523
				c0,6.038,5.605,10.932,12.521,10.932h210.924c6.915,0,12.521-4.894,12.521-10.932V375.266z"/>
		</g>
		<g>
			<path d="M326.935,328.459c0-6.037-5.605-10.932-12.521-10.932H103.49c-6.915,0-12.521,4.895-12.521,10.932v2.523
				c0,6.038,5.605,10.932,12.521,10.932h210.924c6.915,0,12.521-4.894,12.521-10.932V328.459z"/>
		</g>
		<g>
			<path d="M326.935,281.652c0-6.037-5.605-10.932-12.521-10.932H103.49c-6.915,0-12.521,4.895-12.521,10.932v2.523
				c0,6.038,5.605,10.932,12.521,10.932h210.924c6.915,0,12.521-4.894,12.521-10.932V281.652z"/>
		</g>
	</g>
	<g>
		<path d="M208.951,161.596c-27.401,0-49.616,14.115-49.616,43.072c0,4.995,0.675,9.82,1.909,14.396
			c12.424,7.901,29.212,12.759,47.707,12.759c18.494,0,35.283-4.858,47.709-12.759c1.233-4.576,1.908-9.401,1.908-14.396
			C258.568,175.711,236.354,161.596,208.951,161.596z"/>
		<g>
			<path d="M209.295,170.957c-17.292,0-31.36-14.068-31.36-31.36c0-17.292,14.068-31.361,31.36-31.361
				c17.294,0,31.361,14.069,31.361,31.361C240.656,156.888,226.589,170.957,209.295,170.957z"/>
			<path fill="#FFFFFF" d="M209.295,112.915c14.735,0,26.682,11.945,26.682,26.681s-11.946,26.68-26.682,26.68
				c-14.735,0-26.68-11.944-26.68-26.68C182.615,124.861,194.56,112.915,209.295,112.915 M209.295,103.554
				c-19.873,0-36.041,16.168-36.041,36.042c0,19.874,16.168,36.041,36.041,36.041c19.873,0,36.042-16.168,36.042-36.041
				C245.337,119.723,229.168,103.554,209.295,103.554L209.295,103.554z"/>
		</g>
	</g>
</g>
<path d="M-434.103,47.317c0-13.23,9.775-24.098,22.286-25.363l47.085-0.125h251.094c13.656,0,24.742,11.404,24.742,25.488v294.21
	c0,0.01,0,0.021,0,0.031v81.049c0,14.083-11.08,25.506-24.744,25.506l-298.177-0.126c-12.514-1.267-22.286-12.144-22.286-25.38
	v-81.08V128.399V47.317 M-464.103,47.317v81.082v213.128v81.08c0,13.7,4.963,26.857,13.977,37.05
	c9.146,10.344,21.678,16.799,35.288,18.177l1.5,0.152h1.509l298.178,0.126c30.197,0,54.756-24.9,54.756-55.506v-80.332v-0.01v-0.738
	V47.317c0-30.596-24.557-55.488-54.742-55.488h-251.094h-0.04h-0.04l-47.085,0.125l-1.475,0.004l-1.468,0.148
	c-13.604,1.377-26.134,7.826-35.278,18.162C-459.137,20.46-464.103,33.616-464.103,47.317L-464.103,47.317z"/>
<polygon fill="none" stroke="#000000" stroke-width="29" stroke-linejoin="round" stroke-miterlimit="10" points="-172.449,-8.171 
	-172.449,105.383 -58.896,105.383 "/>
<path stroke="#000000" stroke-width="2" stroke-miterlimit="10" d="M-1176.884-338.985l53.554,53.554v30h-83.554v-83.554H-1176.884
	 M-1176.884-367.985h-30c-16.017,0-29,12.984-29,29v83.554c0,16.016,12.983,29,29,29h83.554c16.017,0,29-12.984,29-29v-30
	c0-7.691-3.056-15.067-8.494-20.506l-53.554-53.554C-1161.816-364.93-1169.192-367.985-1176.884-367.985L-1176.884-367.985z"/>
<path d="M-1469.537-312.497c0-13.23,9.775-24.098,22.286-25.363l47.085-0.125h251.094c13.656,0,24.742,11.404,24.742,25.488v294.21
	c0,0.01,0,0.021,0,0.031v81.049c0,14.083-11.08,25.506-24.744,25.506l-298.177-0.126c-12.514-1.267-22.286-12.144-22.286-25.38
	v-81.08v-213.128V-312.497 M-1499.537-312.497v81.082v213.128v81.08c0,13.7,4.963,26.857,13.977,37.05
	c9.146,10.344,21.678,16.799,35.288,18.177l1.5,0.152h1.509l298.178,0.126c30.197,0,54.756-24.9,54.756-55.506V-17.54v-0.01v-0.738
	v-294.209c0-30.596-24.557-55.488-54.742-55.488h-251.094h-0.04h-0.04l-47.085,0.125l-1.475,0.004l-1.468,0.148
	c-13.604,1.377-26.134,7.826-35.278,18.162C-1494.571-339.354-1499.537-326.198-1499.537-312.497L-1499.537-312.497z"/>
<path d="M-1215.057-648.039c0-13.23,9.775-24.098,22.286-25.363l47.085-0.125h251.094c13.656,0,24.742,11.404,24.742,25.488v294.21
	c0,0.01,0,0.021,0,0.031v81.049c0,14.083-11.08,25.506-24.744,25.506l-298.177-0.126c-12.514-1.267-22.286-12.144-22.286-25.38
	v-81.08v-213.128V-648.039 M-1245.057-648.039v81.082v213.128v81.08c0,13.7,4.963,26.857,13.977,37.05
	c9.146,10.344,21.678,16.799,35.288,18.177l1.5,0.152h1.509l298.178,0.126c30.197,0,54.756-24.9,54.756-55.506v-80.332v-0.01v-0.738
	v-294.209c0-30.596-24.557-55.488-54.742-55.488h-251.094h-0.04h-0.04l-47.085,0.125l-1.475,0.004l-1.468,0.148
	c-13.604,1.377-26.134,7.826-35.278,18.162C-1240.091-674.896-1245.057-661.74-1245.057-648.039L-1245.057-648.039z"/>
<path d="M-1047.065-45.069c0-13.23,9.775-24.098,22.286-25.363l47.085-0.125H-726.6c13.656,0,24.742,11.404,24.742,25.488v294.21
	c0,0.01,0,0.021,0,0.031v81.049c0,14.083-11.08,25.506-24.744,25.506l-298.177-0.126c-12.514-1.267-22.286-12.144-22.286-25.38
	v-81.08V36.013V-45.069 M-1077.065-45.069v81.082v213.128v81.08c0,13.7,4.963,26.857,13.977,37.05
	c9.146,10.344,21.678,16.799,35.288,18.177l1.5,0.152h1.509l298.178,0.126c30.197,0,54.756-24.9,54.756-55.506v-80.332v-0.01v-0.738
	V-45.069c0-30.596-24.557-55.488-54.742-55.488h-251.094h-0.04h-0.04l-47.085,0.125l-1.475,0.004l-1.468,0.148
	c-13.604,1.377-26.134,7.826-35.278,18.162C-1072.099-71.927-1077.065-58.771-1077.065-45.069L-1077.065-45.069z"/>
<g>
	<path fill="none" stroke="#000000" stroke-width="25" stroke-miterlimit="10" d="M-318.564-289.279v77.906
		c0,11,9.325,19.594,20.325,19.594h76.175"/>
</g>
</svg>
