<?xml version="1.0" encoding="utf-8"?>
<!-- Generator: Adobe Illustrator 16.0.4, SVG Export Plug-In . SVG Version: 6.00 Build 0)  -->
<!DOCTYPE svg PUBLIC "-//W3C//DTD SVG 1.1//EN" "http://www.w3.org/Graphics/SVG/1.1/DTD/svg11.dtd">
<svg version="1.1" xmlns="http://www.w3.org/2000/svg" xmlns:xlink="http://www.w3.org/1999/xlink" x="0px" y="0px"
	 width="420.918px" height="531.766px" viewBox="0 0 420.918 531.766" enable-background="new 0 0 420.918 531.766"
	 xml:space="preserve">
<g id="Layer_1">
</g>
<g id="Layer_2">
	<g>
		<path fill="#FFFFFF" d="M52.846,518.052c-21.708,0-39.369-18.673-39.369-41.625l0.002-421.469
			c0-22.963,17.66-41.645,39.367-41.645l244.38,0.108c3.448,0.001,6.753,1.373,9.19,3.812l97.124,97.206
			c2.436,2.438,3.804,5.743,3.804,9.188v352.8c0,21.459-15.207,39.262-35.371,41.411c-0.446,0.048-0.894,0.072-1.341,0.073
			c0,0-50.2,0.141-50.212,0.141H52.846z"/>
		<path d="M52.846,26.313l244.375,0.108l97.124,97.206v22.387v239.354v91.06c0,14.859-10.417,27.063-23.749,28.484l-50.175,0.141
			H52.846c-14.553,0-26.369-12.808-26.369-28.625V146.014c0-0.011,0.002-0.022,0.002-0.035V54.958
			C26.479,39.141,38.287,26.313,52.846,26.313 M52.857,0.313c-0.004,0-0.007,0-0.011,0c-28.875,0-52.367,24.513-52.367,54.645
			v90.737c-0.001,0.107-0.002,0.213-0.002,0.319v330.413c0,30.12,23.493,54.625,52.369,54.625H320.42c0.024,0,0.048,0,0.073,0
			l50.175-0.141c0.896-0.003,1.792-0.052,2.683-0.146c26.791-2.855,46.994-26.216,46.994-54.338v-91.06V146.014v-22.387
			c0-6.892-2.736-13.501-7.607-18.377L315.613,8.044c-4.874-4.878-11.485-7.62-18.381-7.623L52.857,0.313L52.857,0.313z"/>
	</g>
	<g>
		<path fill="none" stroke="#000000" stroke-width="25" stroke-miterlimit="10" d="M297.821,25.721v77.906
			c0,11,9.326,19.594,20.326,19.594h76.174"/>
	</g>
	<g>
		<g>
			<path d="M333.321,446.721c0-7.18-5.82-13-13-13h-219c-7.18,0-13,5.82-13,13v3c0,7.18,5.82,13,13,13h219c7.18,0,13-5.82,13-13
				V446.721z"/>
		</g>
		<g>
			<path d="M333.321,387.721c0-7.18-5.82-13-13-13h-219c-7.18,0-13,5.82-13,13v3c0,7.18,5.82,13,13,13h219c7.18,0,13-5.82,13-13
				V387.721z"/>
		</g>
		<g>
			<path d="M333.321,328.721c0-7.18-5.82-13-13-13h-219c-7.18,0-13,5.82-13,13v3c0,7.18,5.82,13,13,13h219c7.18,0,13-5.82,13-13
				V328.721z"/>
		</g>
		<g>
			<path d="M333.321,269.721c0-7.18-5.82-13-13-13h-219c-7.18,0-13,5.82-13,13v3c0,7.18,5.82,13,13,13h219c7.18,0,13-5.82,13-13
				V269.721z"/>
		</g>
	</g>
	<g>
		<path d="M210.938,141.801c-29.273,0-53.004,15.078-53.004,46.013c0,5.336,0.721,10.491,2.039,15.379
			c13.272,8.44,31.207,13.63,50.965,13.63s37.693-5.19,50.966-13.63c1.318-4.889,2.04-10.043,2.04-15.379
			C263.944,156.879,240.212,141.801,210.938,141.801z"/>
		<g>
			<path d="M211.305,151.801c-18.473,0-33.502-15.029-33.502-33.502c0-18.474,15.029-33.503,33.502-33.503
				c18.474,0,33.503,15.029,33.503,33.503C244.808,136.771,229.779,151.801,211.305,151.801z"/>
			<path fill="#FFFFFF" d="M211.305,89.795c15.742,0,28.503,12.761,28.503,28.503c0,15.741-12.761,28.502-28.503,28.502
				c-15.741,0-28.502-12.761-28.502-28.502C182.803,102.557,195.564,89.795,211.305,89.795 M211.305,79.795
				c-21.23,0-38.502,17.272-38.502,38.503s17.272,38.502,38.502,38.502c21.23,0,38.503-17.272,38.503-38.502
				S232.536,79.795,211.305,79.795L211.305,79.795z"/>
		</g>
	</g>
</g>
<g id="Layer_3">
</g>
</svg>
