<?xml version="1.0" encoding="utf-8"?>
<!-- Generator: Adobe Illustrator 16.0.4, SVG Export Plug-In . SVG Version: 6.00 Build 0)  -->
<!DOCTYPE svg PUBLIC "-//W3C//DTD SVG 1.1//EN" "http://www.w3.org/Graphics/SVG/1.1/DTD/svg11.dtd">
<svg version="1.1" xmlns="http://www.w3.org/2000/svg" xmlns:xlink="http://www.w3.org/1999/xlink" x="0px" y="0px"
	 width="429.653px" height="540.394px" viewBox="0 0 429.653 540.394" enable-background="new 0 0 429.653 540.394"
	 xml:space="preserve">
<g id="Layer_1">
</g>
<g id="Layer_2">
	<g>
		<path fill="#FFFFFF" d="M49.827,525C30.803,525,15,509.327,15,490.304v-441C15,30.28,30.803,15,49.827,15h259
			C327.85,15,343,30.28,343,49.303v31c0,2.981,2.845,5.697,5.826,5.697h31C398.85,86,414,101.28,414,120.303v370
			C414,509.327,398.85,525,379.826,525H49.827z"/>
		<path d="M308.826,29c11,0,20.174,9.303,20.174,20.303v31c0,11,8.826,19.697,19.826,19.697h31c11,0,20.174,9.303,20.174,20.303v370
			c0,11-9.174,19.696-20.174,19.696h-330c-11,0-19.827-8.696-19.827-19.696v-441C30,38.303,38.827,29,49.827,29H309 M308.826,0h-259
			C22.808,0,1,22.285,1,49.303v441C1,517.322,22.808,539,49.827,539h330C406.845,539,429,517.322,429,490.304v-370
			C429,93.285,406.845,71,379.826,71H358V49.303C358,22.285,335.845,0,308.826,0L308.826,0z"/>
	</g>
	<g>
		<path fill="#FFFFFF" d="M334.826,129C316.354,129,301,113.775,301,95.303V34.264c0-11.458,8.621-17.641,16.58-17.641
			c5.675,0,11.345,2.741,16.692,8.148l70.651,71.394c9.803,9.912,8.358,18.505,6.612,22.687c-2.627,6.293-8.659,10.148-16.17,10.148
			H334.826z"/>
		<path d="M317.83,30.123c1.799,0,4.238,1.38,6.969,4.141c5.461,5.521,16.236,16.438,23.971,24.259l23.003,23.27
			c7.735,7.821,18.351,18.409,23.598,23.713s5.241,9.493-0.005,9.493s-18.539,0-29.539,0h-31c-11,0-19.826-8.697-19.826-19.697v-31
			c0-11,0-24.518,0-30.039C315,31.503,316.03,30.123,317.83,30.123 M317.743,3.123c-9.59,0-18.227,4.414-23.849,12.109
			C289.981,20.588,288,27.169,288,34.264v30.039v31C288,121.219,308.91,142,334.826,142h31h29.539
			c12.946,0,23.924-6.88,28.648-18.198c3.307-7.92,3.027-16.756-0.786-25.02c-1.965-4.258-4.88-8.321-8.666-12.148l-19.51-19.708
			l-4.092-4.128l-23.015-23.266L357.71,29.187l-13.758-13.91C334.016,5.231,324.215,3.123,317.743,3.123L317.743,3.123z"/>
	</g>
	<g>
		<path d="M338,451c0-7.18-5.82-13-13-13H106c-7.18,0-13,5.82-13,13v3c0,7.18,5.82,13,13,13h219c7.18,0,13-5.82,13-13V451z"/>
	</g>
	<g>
		<path d="M338,392c0-7.18-5.82-13-13-13H106c-7.18,0-13,5.82-13,13v3c0,7.18,5.82,13,13,13h219c7.18,0,13-5.82,13-13V392z"/>
	</g>
	<g>
		<path d="M338,333c0-7.18-5.82-13-13-13H106c-7.18,0-13,5.82-13,13v3c0,7.18,5.82,13,13,13h219c7.18,0,13-5.82,13-13V333z"/>
	</g>
	<g>
		<path d="M338,274c0-7.18-5.82-13-13-13H106c-7.18,0-13,5.82-13,13v3c0,7.18,5.82,13,13,13h219c7.18,0,13-5.82,13-13V274z"/>
	</g>
	<g>
		<path d="M215.617,146.08c-29.273,0-53.004,15.078-53.004,46.013c0,5.336,0.721,10.491,2.039,15.379
			c13.272,8.44,31.207,13.63,50.965,13.63s37.693-5.19,50.966-13.63c1.318-4.889,2.04-10.043,2.04-15.379
			C268.623,161.158,244.892,146.08,215.617,146.08z"/>
		<g>
			<path d="M215.984,156.08c-18.473,0-33.502-15.029-33.502-33.502c0-18.474,15.029-33.503,33.502-33.503
				c18.474,0,33.503,15.029,33.503,33.503C249.487,141.051,234.458,156.08,215.984,156.08z"/>
			<path fill="#FFFFFF" d="M215.984,94.075c15.742,0,28.503,12.761,28.503,28.503c0,15.741-12.761,28.502-28.503,28.502
				c-15.741,0-28.502-12.761-28.502-28.502C187.482,106.836,200.243,94.075,215.984,94.075 M215.984,84.075
				c-21.23,0-38.502,17.272-38.502,38.503s17.272,38.502,38.502,38.502c21.23,0,38.503-17.272,38.503-38.502
				S237.215,84.075,215.984,84.075L215.984,84.075z"/>
		</g>
	</g>
</g>
<g id="Layer_3">
</g>
</svg>
